<mxfile host="Electron" agent="Mozilla/5.0 (X11; Linux x86_64) AppleWebKit/537.36 (KHTML, like Gecko) draw.io/24.7.8 Chrome/128.0.6613.36 Electron/32.0.1 Safari/537.36" version="24.7.8">
  <diagram name="Page-1" id="9ClBQkxLPo5ebyZKEoe3">
    <mxGraphModel dx="1033" dy="1212" grid="1" gridSize="10" guides="1" tooltips="1" connect="1" arrows="1" fold="1" page="1" pageScale="1" pageWidth="850" pageHeight="1100" math="0" shadow="0">
      <root>
        <mxCell id="0" />
        <mxCell id="1" parent="0" />
        <mxCell id="lUp-__aHvqPOSjCO5s3E-1" value="" style="rounded=0;whiteSpace=wrap;html=1;" vertex="1" parent="1">
          <mxGeometry x="180" y="120" width="180" height="80" as="geometry" />
        </mxCell>
        <mxCell id="RO6m8RRyVHGOy0ZAHMT--5" style="edgeStyle=orthogonalEdgeStyle;rounded=0;orthogonalLoop=1;jettySize=auto;html=1;exitX=1;exitY=0.5;exitDx=0;exitDy=0;entryX=0;entryY=0.5;entryDx=0;entryDy=0;" parent="1" source="RO6m8RRyVHGOy0ZAHMT--1" target="RO6m8RRyVHGOy0ZAHMT--3" edge="1">
          <mxGeometry relative="1" as="geometry" />
        </mxCell>
        <mxCell id="RO6m8RRyVHGOy0ZAHMT--16" value="&lt;b&gt;client:&amp;nbsp;&lt;/b&gt;send_request_header&lt;div&gt;&lt;br&gt;&lt;/div&gt;&lt;div&gt;&lt;b&gt;server:&amp;nbsp;&lt;/b&gt;receive_request_header&lt;/div&gt;" style="edgeLabel;html=1;align=center;verticalAlign=middle;resizable=0;points=[];" parent="RO6m8RRyVHGOy0ZAHMT--5" vertex="1" connectable="0">
          <mxGeometry y="1" relative="1" as="geometry">
            <mxPoint as="offset" />
          </mxGeometry>
        </mxCell>
        <mxCell id="RO6m8RRyVHGOy0ZAHMT--1" value="send request for data to server" style="whiteSpace=wrap;html=1;aspect=fixed;" parent="1" vertex="1">
          <mxGeometry x="40" y="120" width="80" height="80" as="geometry" />
        </mxCell>
        <mxCell id="RO6m8RRyVHGOy0ZAHMT--2" value="&lt;font style=&quot;font-size: 18px;&quot;&gt;Client&lt;/font&gt;" style="text;html=1;align=center;verticalAlign=middle;whiteSpace=wrap;rounded=0;" parent="1" vertex="1">
          <mxGeometry x="50" y="80" width="60" height="30" as="geometry" />
        </mxCell>
        <mxCell id="RO6m8RRyVHGOy0ZAHMT--3" value="receive request from client" style="whiteSpace=wrap;html=1;aspect=fixed;" parent="1" vertex="1">
          <mxGeometry x="420" y="120" width="80" height="80" as="geometry" />
        </mxCell>
        <mxCell id="RO6m8RRyVHGOy0ZAHMT--4" value="&lt;font style=&quot;font-size: 18px;&quot;&gt;Server&lt;/font&gt;" style="text;html=1;align=center;verticalAlign=middle;whiteSpace=wrap;rounded=0;" parent="1" vertex="1">
          <mxGeometry x="430" y="80" width="60" height="30" as="geometry" />
        </mxCell>
        <mxCell id="RO6m8RRyVHGOy0ZAHMT--6" value="&lt;font style=&quot;font-size: 9px;&quot;&gt;receive acknowledgement&lt;/font&gt;" style="whiteSpace=wrap;html=1;aspect=fixed;" parent="1" vertex="1">
          <mxGeometry x="40" y="200" width="80" height="80" as="geometry" />
        </mxCell>
        <mxCell id="RO6m8RRyVHGOy0ZAHMT--15" style="edgeStyle=orthogonalEdgeStyle;rounded=0;orthogonalLoop=1;jettySize=auto;html=1;exitX=1;exitY=0.5;exitDx=0;exitDy=0;entryX=0;entryY=0.5;entryDx=0;entryDy=0;" parent="1" source="RO6m8RRyVHGOy0ZAHMT--7" target="RO6m8RRyVHGOy0ZAHMT--11" edge="1">
          <mxGeometry relative="1" as="geometry" />
        </mxCell>
        <mxCell id="RO6m8RRyVHGOy0ZAHMT--21" value="&lt;b&gt;client:&amp;nbsp;&lt;/b&gt;send_payload_header&lt;br&gt;&lt;br&gt;&lt;b&gt;server:&amp;nbsp;&lt;/b&gt;receive_payload_header" style="edgeLabel;html=1;align=center;verticalAlign=middle;resizable=0;points=[];" parent="RO6m8RRyVHGOy0ZAHMT--15" vertex="1" connectable="0">
          <mxGeometry x="0.02" relative="1" as="geometry">
            <mxPoint as="offset" />
          </mxGeometry>
        </mxCell>
        <mxCell id="RO6m8RRyVHGOy0ZAHMT--7" value="send payload 1 header" style="whiteSpace=wrap;html=1;aspect=fixed;" parent="1" vertex="1">
          <mxGeometry x="40" y="280" width="80" height="80" as="geometry" />
        </mxCell>
        <mxCell id="RO6m8RRyVHGOy0ZAHMT--8" value="&lt;font style=&quot;font-size: 9px;&quot;&gt;receive acknowledgement&lt;/font&gt;" style="whiteSpace=wrap;html=1;aspect=fixed;align=center;" parent="1" vertex="1">
          <mxGeometry x="40" y="360" width="80" height="80" as="geometry" />
        </mxCell>
        <mxCell id="RO6m8RRyVHGOy0ZAHMT--26" style="edgeStyle=orthogonalEdgeStyle;rounded=0;orthogonalLoop=1;jettySize=auto;html=1;exitX=1;exitY=0.5;exitDx=0;exitDy=0;entryX=0;entryY=0.5;entryDx=0;entryDy=0;" parent="1" source="RO6m8RRyVHGOy0ZAHMT--9" target="RO6m8RRyVHGOy0ZAHMT--13" edge="1">
          <mxGeometry relative="1" as="geometry" />
        </mxCell>
        <mxCell id="RO6m8RRyVHGOy0ZAHMT--27" value="&lt;b&gt;client:&amp;nbsp;&lt;/b&gt;send_payload&lt;br&gt;&lt;br&gt;&lt;b&gt;server:&amp;nbsp;&lt;/b&gt;receive_payload" style="edgeLabel;html=1;align=center;verticalAlign=middle;resizable=0;points=[];" parent="RO6m8RRyVHGOy0ZAHMT--26" vertex="1" connectable="0">
          <mxGeometry x="-0.05" y="-4" relative="1" as="geometry">
            <mxPoint x="7" y="-4" as="offset" />
          </mxGeometry>
        </mxCell>
        <mxCell id="RO6m8RRyVHGOy0ZAHMT--9" value="send payload 1" style="whiteSpace=wrap;html=1;aspect=fixed;" parent="1" vertex="1">
          <mxGeometry x="40" y="440" width="80" height="80" as="geometry" />
        </mxCell>
        <mxCell id="RO6m8RRyVHGOy0ZAHMT--22" style="edgeStyle=orthogonalEdgeStyle;rounded=0;orthogonalLoop=1;jettySize=auto;html=1;exitX=0;exitY=0.5;exitDx=0;exitDy=0;entryX=1;entryY=0.5;entryDx=0;entryDy=0;" parent="1" source="RO6m8RRyVHGOy0ZAHMT--10" target="RO6m8RRyVHGOy0ZAHMT--8" edge="1">
          <mxGeometry relative="1" as="geometry" />
        </mxCell>
        <mxCell id="RO6m8RRyVHGOy0ZAHMT--23" value="&lt;b&gt;client:&amp;nbsp;&lt;/b&gt;receive_acknowledgement&lt;br&gt;&lt;br&gt;&lt;b&gt;server:&amp;nbsp;&lt;/b&gt;send_acknowledgement" style="edgeLabel;html=1;align=center;verticalAlign=middle;resizable=0;points=[];" parent="RO6m8RRyVHGOy0ZAHMT--22" vertex="1" connectable="0">
          <mxGeometry x="0.04" y="-5" relative="1" as="geometry">
            <mxPoint x="6" y="5" as="offset" />
          </mxGeometry>
        </mxCell>
        <mxCell id="RO6m8RRyVHGOy0ZAHMT--10" value="&lt;font style=&quot;font-size: 9px;&quot;&gt;send acknowledgement&lt;/font&gt;" style="whiteSpace=wrap;html=1;aspect=fixed;" parent="1" vertex="1">
          <mxGeometry x="420" y="360" width="80" height="80" as="geometry" />
        </mxCell>
        <mxCell id="RO6m8RRyVHGOy0ZAHMT--11" value="receive payload 1 header&lt;span style=&quot;background-color: initial;&quot;&gt;&amp;nbsp;&lt;/span&gt;" style="whiteSpace=wrap;html=1;aspect=fixed;" parent="1" vertex="1">
          <mxGeometry x="420" y="280" width="80" height="80" as="geometry" />
        </mxCell>
        <mxCell id="RO6m8RRyVHGOy0ZAHMT--14" style="edgeStyle=orthogonalEdgeStyle;rounded=0;orthogonalLoop=1;jettySize=auto;html=1;exitX=0;exitY=0.5;exitDx=0;exitDy=0;entryX=1;entryY=0.5;entryDx=0;entryDy=0;" parent="1" source="RO6m8RRyVHGOy0ZAHMT--12" target="RO6m8RRyVHGOy0ZAHMT--6" edge="1">
          <mxGeometry relative="1" as="geometry" />
        </mxCell>
        <mxCell id="RO6m8RRyVHGOy0ZAHMT--18" value="&lt;b&gt;client:&amp;nbsp;&lt;/b&gt;receive_acknowledgement&lt;br&gt;&lt;br&gt;&lt;b&gt;server:&amp;nbsp;&lt;/b&gt;send_acknowledgement" style="edgeLabel;html=1;align=center;verticalAlign=middle;resizable=0;points=[];" parent="RO6m8RRyVHGOy0ZAHMT--14" vertex="1" connectable="0">
          <mxGeometry x="0.1" y="-2" relative="1" as="geometry">
            <mxPoint x="15" y="2" as="offset" />
          </mxGeometry>
        </mxCell>
        <mxCell id="RO6m8RRyVHGOy0ZAHMT--12" value="&lt;font style=&quot;font-size: 9px;&quot;&gt;send acknowledgement&lt;/font&gt;" style="whiteSpace=wrap;html=1;aspect=fixed;" parent="1" vertex="1">
          <mxGeometry x="420" y="200" width="80" height="80" as="geometry" />
        </mxCell>
        <mxCell id="RO6m8RRyVHGOy0ZAHMT--13" value="receive payload 1" style="whiteSpace=wrap;html=1;aspect=fixed;" parent="1" vertex="1">
          <mxGeometry x="420" y="440" width="80" height="80" as="geometry" />
        </mxCell>
        <mxCell id="RO6m8RRyVHGOy0ZAHMT--29" value="&lt;font style=&quot;font-size: 9px;&quot;&gt;receive acknowledgement&lt;/font&gt;" style="whiteSpace=wrap;html=1;aspect=fixed;" parent="1" vertex="1">
          <mxGeometry x="40" y="520" width="80" height="80" as="geometry" />
        </mxCell>
        <mxCell id="RO6m8RRyVHGOy0ZAHMT--31" style="edgeStyle=orthogonalEdgeStyle;rounded=0;orthogonalLoop=1;jettySize=auto;html=1;exitX=0;exitY=0.5;exitDx=0;exitDy=0;entryX=1;entryY=0.5;entryDx=0;entryDy=0;" parent="1" source="RO6m8RRyVHGOy0ZAHMT--30" target="RO6m8RRyVHGOy0ZAHMT--29" edge="1">
          <mxGeometry relative="1" as="geometry" />
        </mxCell>
        <mxCell id="RO6m8RRyVHGOy0ZAHMT--34" value="&lt;b&gt;client: &lt;/b&gt;receive_acknowledgement&lt;br&gt;&lt;br&gt;&lt;b&gt;server: &lt;/b&gt;send_acknowledgement" style="edgeLabel;html=1;align=center;verticalAlign=middle;resizable=0;points=[];" parent="RO6m8RRyVHGOy0ZAHMT--31" vertex="1" connectable="0">
          <mxGeometry x="0.0406" y="2" relative="1" as="geometry">
            <mxPoint x="6" y="-2" as="offset" />
          </mxGeometry>
        </mxCell>
        <mxCell id="RO6m8RRyVHGOy0ZAHMT--30" value="&lt;font style=&quot;font-size: 9px;&quot;&gt;send acknowledgement&lt;/font&gt;" style="whiteSpace=wrap;html=1;aspect=fixed;" parent="1" vertex="1">
          <mxGeometry x="420" y="520" width="80" height="80" as="geometry" />
        </mxCell>
        <mxCell id="lUp-__aHvqPOSjCO5s3E-3" value="" style="endArrow=classic;html=1;rounded=0;exitX=0.5;exitY=0;exitDx=0;exitDy=0;edgeStyle=orthogonalEdgeStyle;curved=1;entryX=0.5;entryY=0;entryDx=0;entryDy=0;" edge="1" parent="1" source="lUp-__aHvqPOSjCO5s3E-1" target="lUp-__aHvqPOSjCO5s3E-4">
          <mxGeometry width="50" height="50" relative="1" as="geometry">
            <mxPoint x="240" y="180" as="sourcePoint" />
            <mxPoint x="660" y="50" as="targetPoint" />
            <Array as="points">
              <mxPoint x="270" y="40" />
              <mxPoint x="740" y="40" />
            </Array>
          </mxGeometry>
        </mxCell>
        <mxCell id="lUp-__aHvqPOSjCO5s3E-4" value="" style="rounded=0;whiteSpace=wrap;html=1;" vertex="1" parent="1">
          <mxGeometry x="570" y="120" width="340" height="100" as="geometry" />
        </mxCell>
        <mxCell id="lUp-__aHvqPOSjCO5s3E-5" value="&lt;h3&gt;send_request_header(3)&lt;/h3&gt;" style="text;html=1;align=center;verticalAlign=middle;resizable=0;points=[];autosize=1;strokeColor=none;fillColor=none;" vertex="1" parent="1">
          <mxGeometry x="570" y="110" width="190" height="60" as="geometry" />
        </mxCell>
        <mxCell id="lUp-__aHvqPOSjCO5s3E-6" value="&lt;b&gt;Encrypt data:&amp;nbsp;&lt;/b&gt;secure_send(5)" style="text;html=1;align=center;verticalAlign=middle;resizable=0;points=[];autosize=1;strokeColor=none;fillColor=none;" vertex="1" parent="1">
          <mxGeometry x="570" y="160" width="190" height="30" as="geometry" />
        </mxCell>
        <mxCell id="lUp-__aHvqPOSjCO5s3E-7" value="&lt;b&gt;Unstable network accomodation: &lt;/b&gt;bounded re-transmission" style="text;html=1;align=center;verticalAlign=middle;resizable=0;points=[];autosize=1;strokeColor=none;fillColor=none;" vertex="1" parent="1">
          <mxGeometry x="570" y="180" width="350" height="30" as="geometry" />
        </mxCell>
        <mxCell id="lUp-__aHvqPOSjCO5s3E-12" value="" style="rounded=0;whiteSpace=wrap;html=1;" vertex="1" parent="1">
          <mxGeometry x="570" y="220" width="340" height="100" as="geometry" />
        </mxCell>
        <mxCell id="lUp-__aHvqPOSjCO5s3E-13" value="&lt;b&gt;Decrypt data:&amp;nbsp;&lt;/b&gt;secure_recv(5)" style="text;html=1;align=center;verticalAlign=middle;resizable=0;points=[];autosize=1;strokeColor=none;fillColor=none;" vertex="1" parent="1">
          <mxGeometry x="575" y="260" width="180" height="30" as="geometry" />
        </mxCell>
        <mxCell id="lUp-__aHvqPOSjCO5s3E-14" value="&lt;b&gt;Unstable network accomodation: &lt;/b&gt;bounded re-transmission" style="text;html=1;align=center;verticalAlign=middle;resizable=0;points=[];autosize=1;strokeColor=none;fillColor=none;" vertex="1" parent="1">
          <mxGeometry x="570" y="280" width="350" height="30" as="geometry" />
        </mxCell>
        <mxCell id="lUp-__aHvqPOSjCO5s3E-15" value="&lt;h3&gt;receive_request_header(3)&lt;/h3&gt;" style="text;html=1;align=center;verticalAlign=middle;resizable=0;points=[];autosize=1;strokeColor=none;fillColor=none;" vertex="1" parent="1">
          <mxGeometry x="570" y="210" width="200" height="60" as="geometry" />
        </mxCell>
        <mxCell id="lUp-__aHvqPOSjCO5s3E-16" value="" style="shape=image;aspect=fixed;image=data:image/jpg,/9j/4QAWRXhpZgAATU0AKgAAAAgAAAAAAAD/4gHYSUNDX1BST0ZJTEUAAQEAAAHIAAAAAAQwAABtbnRyUkdCIFhZWiAH4AABAAEAAAAAAABhY3NwAAAAAAAAAAAAAAAAAAAAAAAAAAAAAAAAAAAAAQAA9tYAAQAAAADTLQAAAAAAAAAAAAAAAAAAAAAAAAAAAAAAAAAAAAAAAAAAAAAAAAAAAAAAAAAAAAAAAAAAAAlkZXNjAAAA8AAAACRyWFlaAAABFAAAABRnWFlaAAABKAAAABRiWFlaAAABPAAAABR3dHB0AAABUAAAABRyVFJDAAABZAAAAChnVFJDAAABZAAAAChiVFJDAAABZAAAAChjcHJ0AAABjAAAADxtbHVjAAAAAAAAAAEAAAAMZW5VUwAAAAgAAAAcAHMAUgBHAEJYWVogAAAAAAAAb6IAADj1AAADkFhZWiAAAAAAAABimQAAt4UAABjaWFlaIAAAAAAAACSgAAAPhAAAts9YWVogAAAAAAAA9tYAAQAAAADTLXBhcmEAAAAAAAQAAAACZmYAAPKnAAANWQAAE9AAAApbAAAAAAAAAABtbHVjAAAAAAAAAAEAAAAMZW5VUwAAACAAAAAcAEcAbwBvAGcAbABlACAASQBuAGMALgAgADIAMAAxADb/2wBDABQODxIPDRQSEBIXFRQYHjIhHhwcHj0sLiQySUBMS0dARkVQWnNiUFVtVkVGZIhlbXd7gYKBTmCNl4x9lnN+gXz/2wBDARUXFx4aHjshITt8U0ZTfHx8fHx8fHx8fHx8fHx8fHx8fHx8fHx8fHx8fHx8fHx8fHx8fHx8fHx8fHx8fHx8fHz/wAARCAJsCQwDASIAAhEBAxEB/8QAGwABAAEFAQAAAAAAAAAAAAAAAAMBAgQFBgf/xABLEAACAQMCAwUDBwkGBQQDAAMAAQIDBBEFIRIxQQYTIlFxMmGBFEJScpGx0RYjMzVUc6HB4RU0Q2KSkyRTVYKyBzZj8CVE8YN0ov/EABkBAQADAQEAAAAAAAAAAAAAAAABAgMEBf/EACsRAQEAAgICAgICAQQCAwAAAAABAhEDIRIxBEETUSJhMhQjQnEzgVKRof/aAAwDAQACEQMRAD8A7MAAAAAAAAAAAAAAAAAAAAAAAAAAAAAAAAAAAAAAAAAAAAAAAAAAAAAAAAAAAAAAAAAAAAAAAAAAAAAAAAAAAAAAAAAAAAAAAAAAAAAAAAAAAAAAAAAAAAAAAAAAAAAAAAAAAAAAAAAAAAAAAAAAAAAAAAAAAAAAAAAAAAAAAAAAAAAAAAAAAAAAAAAAAAAAAAAAAAAAAAAAAAAAAAAAAAAAAAAAAAAAAAAAAAAAAAAAAAAAAAAAAAAAAAAAAAAAAAAAAAAAAAAAAAAAAAAAAAAAAAAAAAAAAAAAAAAAAAAAAAAAAAAAAAAAAAAAAAAAAAAAAAAAAAAAAAAAAAAAAAAAAAAAAAAAAAAAAAAAAAAAAAAAAAAAAAAAAAAAAAAAAAAAAAAAAAAAAAAAAAAAAAAAAAAAAAAAAAAAAAAAAAAAAAAAAAAAAAAAAAAAAAAAAAAAAAAAAAAAAAAAAAAAAAAAAAAAAAAAAAAAAAAAAAAAAAAAAAAAAAAAAAAAAAAAAAAAAAAAAAAAAAAAAAAAAAAAAAAAAAAAAAAAAAAAAAAAAAAAAAAAAAAAAAAAAAAAAAAAAAAAAAAAAAAAAAAAAAAAAAAAAAAAAAAAAAAAAAAAAAAAAAAAAAAAAAAAAAAAAAAAAAAAAAAAAAAAAAAAAAAAAAAAAAAAAAAAAAAAAAAAAAAAAAAAAAAAAAAAAAAAAAAAAAAAAAAAAAAAAAAAAAAAAAAAAAAAAAAAAAAAAAAAAAAAAAAAAAAAAAAAAAAAAAAAAAAAAAAAAAAAAAAAAAAAAAAAAAAAAAAAAAAAAAAAAAAAAAAAAAAAAAAAAAAAAAAAAAAAAAAAAAAAAAAAAAAAAAAAAAAAAAAAAAAAAAAAAAAAAAAAAAAAAAAAAAAAAAAAAAAAAAAAAAAAAAAAAAAAAAAAAAAAAAAAAAAAAAAAAAAAAAAAAAAAAAAAAAAAAAAAAAAAAAAAAAAAAAAAAAAAAAAAAAAAAAAAAAAAAAAAAAAAAAAAAAAAAAAAAAAAAAAAAAAAAAAAAAAAAAAAAAAAAAAAAAAAAAAAAAAAAAAAAAAAAAAAAAAAAAAAAAAAAAAAAAAAAAAAAAAAAAAAAAAAAAAAAAAAAAAAAAAAAAAAAAAAAAAAAAAAAAAAAAAAAAAAAAAAAAAAAAAAAAAAAAAAAAAAAAAAAAAAAAAAAAAAAAAAAAAAAAAAAAAAAAAAAAAAAAAAAAAAAAAAAAAAAAAAAAAAAAAAAAAAAAAAAAAAAAAAAAAAAAAAAAAAAAAAAAAAAAAAAAAAAAAAAAAAAAAAAAAAAAAAAAAAAAAAAAAAAAAAAAAAAAAAAAAAAAAAAAAAAAAAAAAAAAAAAAAAAAAAAAAAAAAAAAAAAAAAAAAAAAAAAAAAAAAAAAAAAAAAAAAAAAAAAAAAAAAAAAAAAAAAAAAAAAAAAAAAAAAAAAAAAAAAAAAAAAAAAAAAAAAAAAAAAAAAAAAAAAAAAAAAAAAAAAAAAAAAAAAAAAAAAAAAAAAAAAAAAAAAAAAAAAAAAAAAAAAAAAAAAAAAAAAAAAAAAAAAAAAAAAAAAAAAAAAAAAAAAAAAAAAAAAAAAAAAAAAAAAAAAAAAAAAAAAAAAAAAAAAAAAAAAAAAAAAAAAAAAAAAAAAAAAAAAAAAAAAAAAAAAAAAAAAAAAAAAAAAAAAAAAAAAAAAAAAAAAAAAAAAAAAAAAAAAAAAAAAAAAAAAAAAAAAAAAAAAAAAAAAAAAAAAAAAAAAAAAAAAAAAAAAAAAAAAAAAAAAAAAAAAAAAAAAAAAAAAAAAAAAAAAAAAAAAAAAAAAAAAAAAAAAAAAAAAAAAAAAAAAAAAAAAAAAAAAAAAAAAAAAAAAAAAAAAAAAAAAAAAAAAAAAAAAAAAAAAAAAAAAAAAAAAAAAAAAAAAAAAAAAAAAAAAAAAAAAAAAAAAAAAAAAAAAAAAAAAAAAAAAAAAAAAAAAAAAAAAAAAAAAAAAAAAAAAAAAAAAAAAAAAAAAAAAAAAAAAAAAAAAAAAAAAAAAAAAAAAAAAAAAAAAAAAAAAAAAAAAAAAAAAAAAAAAAAAAAAAAAAAAAAAAAAAAAAAAAAAAAAAAAAAAAAAAAAAAAAAAAAAAAAAAAAAAAAAAAAAAAAAAAAAAAAAAAAAAAAAAAAAAAAAAAAAAAAAAAAAAAAAAAAAAAAAAAAAAAAAAAAAAAAAAAAAAAAAAAAAAAAAAAAAAAAAAAAAAAAAAAAAAAAAAAAAAAAAAAAAAAAAAAAAAAAAAAAAAAAAAAAAAAAAAAAAAAAAAAAAAAAAAAAAAAAAAAAAAAAAAAAAAAAAAAAAAAAAAAAAAAAAAAAAAAAAAAAAAAAAAAAAAAAKOUVzaAqCCrdU4J4fE/JGJ/aFw3tQjj3sDZA16vq750o/aXq8qdacftAzQYfyyf0F9o+WS+ggMwGH8sl9BFflkvoIDLBifLJfQRT5ZL6CAzAYfyyf0F9pT5ZP6C+0DNBgu9q/wDLj9pfC8z7cMegGWCFXNN9cF6qQfKSAvBTKfUqAAAAAAAAAAAAAAAAAAAAAAAAAAAAAAAAAAAAAAAAAAAAAAAAAAAAAAAAAAAAAAAAAAAAAAAAAAAAAAAAAAAAAAAAAAAAAAAAAAAAAAAAAAAAAAAAAAAAAAAAAAAAAAAAAAAAAAAAAAAAAAAAAAAAAAAAAAAAAAAAAAAAAAAAAAAAAAAAAAAAAAAAAAAAAAAAAAAAAAAAAAAAAAAAAAAAAAAAAAAAAAAAAAAAAAAAAAAAAAAAAAAAAAAAAAAAAAAAAAAAAAAAAAAAAAAAAAAAAAAAAAAAAAAAAAAAAAAAAAAAAAAAAAAAAAAAAAAAAAAAAAAAAAAAAAAAAAAAAAAAAAAAAAAAAAAUbS5vBFO5hHk8sCYGHK6k/ZWCKVScvakwM6VWEeckRu6guWWYeABPK7l82KRY69V/Ox6EYCBylLnJsoVADAAAAAAUKgCgAAAAACgyAAAAAAMtcmy9Vqi5TZYAJ1d1FzwyWN5F+0mjDAS2Ea9OXzl8SRNPkasqpyjybQG0BgQuqkXu8omjdxftJoDJBbGpGXsyTLgAAAAAAAAAAAAAAAAAAAAAAAAAAAAAAAAAAAAAAAAAAAAAAAAAAAAAAAAAAAAAAAAAAAAAAAAAAAAAAAAAAAAAAAAAAAAAAAAAAAAAAAAAAAAAAAAAAAAAAAAAAAAAAAAAAAAAAAAAAAAAAAAAAAAAAAAAAAAAAAAAAAAAAAAAAAAAAAAAAAAAAAAAAAAAAAAAAAAAAAAAAAAAAAAAAAAAAAAAAAAAAAAAAAAAAAAAAAAAAAAAAAAAAAAAAAAAAAAAAAAAAAAAAAAAAAAAAAAAAAAAAAAAAAAAAAAAAAAAAAAAAAAAAAAAAAAAAAAAAAAAAAAAAAAAAAAFk6sIc2BeUckubwYs7tv2FgglKU3mTbAy53UI+z4mQTuZy5bIiwADbfNtjBUBBgYAAAFQKAqALQXFAKYGCoAoCoYFAABQAAAAEqAqUIAAoSKlAUyBUZKACoKFALgUAFRkoALk2uRJC4nDrle8hAGfTu4y2lsTxkpLKeTVZLozlF5i2gNoDDp3bW09zIhWhPk9/ICQAAAAAAAAAAAAAAAAAAAAAAAAAAAAAAAAAAAAAAAAAAAAAAAAAAAAAAAAAAAAAAAAAAAAAAAAAAAAAAAAAAAAAAAAAAAAAAAAAAAAAAAAAAAAAAAAAAAAAAAAAAAAAAAAAAAAAAAAAAAAAAAAAAAAAAAAAAAAAAAAAAAAAAAAAAAAAAAAAAAAAAAAAAAAAAAAAAAAAAAAAAAAAAAAAAAAAAAAAAAAAAAAAAAAAAAAAAAAAAAAAAAAAAAAAAAAAAAAAAAAAAAAAAAAAAAAAAAAAAAAAAAAAAAAAAAAAAAAAAAAAAAAAAAAAAAAAAAAAAAAAiqV4U+by/ICUiqV4Q65fkjFqXE57cl7iICapcTnsvCiHnzKgIAVKAAikpKKbeyRrrnV6dF4hHjZFsiZLfTZlTHs7j5TQVRrGehO3gk1pUFvEvMrkIVBTIyBUFuQBUMoMgVGShQC7JTIw/IrwvyAoUyX92y1waIFoyMFAkyMlGUyBdkZLcjIF2QW5LJVoxlhsi2T2mS30lZQopJjJJoGRkpkGjIyUANK5GSmRkGlcjJbkrkIXZGS3IyBcCmQSLiqlgsK5AyaV1KO0vEjKp14VOTw/I1mSqlgDbgwKV1KG0vEjMp1Y1F4WBeAAAAAAAAAAAAAAAAAAAAAAAAAYGs6ktJsXcuk6qTS4VLAGeDjvy9h/wBPl/u/0H5ew/6fL/d/oB2IOO/L2H/T5f7v9B+XsP8Ap8v93+gHYg478vYf9Pl/u/0H5ew/6fL/AHf6AdiDj128p9bCS/8A8v8AQkj26tn7VpUj6Sz/ACA6wHN0+2umyeJwrQ/7cmwt+0Wl3DShdRUn0lsBtAWQqQqLNOcZLzTyXgAAAAAAAAAAAAAAA5fUe2dKyvattG0dVU3jjVTGX9gHUA478vYf9Pl/u/0N1oOvU9ahVcaTozptZi5Zyn1A24AAAAAAAABianerTrGrdOHeKms8OcZAywcd+XsP+ny/3f6D8vYf9Pl/u/0A7EHHfl7D/p8v93+g/L2H/T5f7v8AQDsQcd+XsP8Ap8v93+g/L2H/AE+X+7/QDsQceu3kG8f2fL/d/oddTn3lOM8Y4kngC4AAAAAAMTU71adY1bp0+8VNZ4c4yBlg478vYf8AT5f7v9B+XsP+ny/3f6AdiDjvy9h/0+X+7/Qfl7D/AKfL/d/oB2IOO/L2H/T5f7v9B+XsP+ny/wB3+gHYg49dvINpf2fL/d/oddTlx04yxjiSYFwAAAAAAAAAAAAADDvtUs9Pjm6rxg/LqznrvtzQg2rW2lU/zTeP4AdaDz2r221KbfBChTXTEW/vZjS7W6vLlcqPpBfgB6WDzWPa3V487iMvWCMmj231GDXeUqFRdfC0/vA9BByln24tajUbq3nS/wA0XxI6Kz1C1vocdrWjUXue4GSAAAAAAAAAAAAAAAACyrPu6cp4zwrODkfy9h/0+X+7/QDsQcd+XsP+ny/3f6D8vYf9Pl/u/wBAOxBx35ew/wCny/3f6D8vYf8AT5f7v9AOxBx35ew/6fL/AHf6D8vYf9Pl/u/0A7EHIQ7eUX7VjOPpUz/Inp9uLFv85QqxXuwwOoBp7ftRpVw0lccDfSawbWlWp1o8VKpGa84vIF4AAAAAAAAAAAAAAAAAAAAAAAAAAAAAAAAAAAAAAAAAAAAAAAAAAAAAAAAAAAAAAAAAAAAAAAAAAAAAAAAAAAAAAAAAAAAAAAABjahXqW1jWrUYqVSEcxTWcgZIPOrntXrTTzih71T/ABNdW13U6y/OXtX4Ph+4D1OVSEfanFerMerqljRT7y6pRx/mPKalzXq/pK9Sf1ptkQHrtnfW1/CU7WqqkYvDaMk5fsH+rK37w6gAAAAAAAAAAAAAAAAAAAAAAAAAAAAAAAAAAAAAAAAAAAAAAAAAWzqRgsyZDWuVHaG78zElKU3mTywJqtzKe0NkQc+ZUBAVKFckijAb2MKvqEaMnmOcEWye0yWs0x697b2/6Sok/I0N3r1dycacVFGkr3M6lVubbbI8p9LeF+3RajrdOrbThQTy9smljUm2svK95jwzUe2yJpxcMJmWV23wmo29nqsbSnwOOfiUudclVwqa4cGkr1t1hbCnJS5Pcbujxlu2w/tC4cnLjk0bPTtXc1w1d2upo6M1FtNZyUhN28n7+RHlZ6WuGNjtaVWNWPFFkhzum6lGm1GpspG/jJSSa6muN3HNlj41eChRssouyWuRHOqomHWuJuXDBfEpllMZupk3dNhxrzJYSglvzNXSVRPMpZMqM9jPHmlLNM3vYpbIp33uMXvEXKaNZlL6QndX3FjqNkfFkZJ2lVsoMlMkbBlAyhG0qNlrbLmR1HwrYi5am0ybuleJkFdZ8RbOpKKLHWbWDlz5scsdOnDiyl3E9Gq3HDJeMwIT4WTd8scxxc01qp5eG73GRxleMx1UyV4jbHlxy9Mrx2e2QpDiMbvMPmXxqE/lx3raPx5e9J8jJFxou4kX3FdLsjJZxDJO0aSZGSPI4idmkmSuSNSK5J2jS/JXJZkZCNL8jJbkBC9MujNxeU8EeSuSRnUbvpU+0y4yUlmLyjTpktKvKm9nt5AbQENK4jU9z8iYAAAAAAAAAAAAAAAAAAABFcW1G6pd3cU1Uhz4WSgDU1uzWk1l4rSMX5xk0cf2k7Of2TivbylO3k8eLnFnoxrO0dCNfQ7uMlnFNyXw3/kB5YAABsrPQNRvYKdG2lwPlKWyLdCtI3ur21GazBzTkvNLmeqxioxUYpJLZJAeb/kjq2P0UP8AUQ1ezGrUln5K5fVaPTwB5DXsLq2eK9vUhjziY57JOEKkeGcYyXk1k0eq9lLG+i5UY/J63Rx5P1QHAWt/d2clK2uKlNront9h1Gk9tZJqnqUE1/zYbY9UczqOnXGmXLoXMMPo1ykvNGIB7Db3FK5pRq0JqcJcmmSnlmia3caRcKUG50X7dNvZ+nvPTLK7pX1tC4oS4oTWfQCcAAAAAAAAAAYmqXcbHTq9xJ+xF49TyapOVWpKpN5lJtt+87Xt5fcFCjZQe8/HP06fzOIAG57K33yHWaXE8U6vgl8eX8TTFYycJKUXhp5TA9lBg6NeK+0uhXT3ccS9UZwAAAAAAI61GncUpUq0FOEucX1JABqqvZvSayxKzgvfFtfzOU7SdmFptL5VZylKh86Mt3H4+R6AYup0Y3GnXFKSypQewHkYAAcztNC7IUalvC41FylKayqaeEl7zltKo/KNTtqb5SqLJ60kopJclsBrafZ7SqaSjZU9vNt/zNkkopJLCWyKgAAAAAAEdajTuKUqVaCnCXOL6kgA1VXs3pNZYlZxXvi2v5nKdpOzC02l8qs5SlQziUZbuPx8j0AxNUoxuNNuacllSpvYDyQAAOZ2uh9kKM7eFxqLlKU1lU08JL3nK6VR+UanbU3ylUWT1pJRSS5LYDW0+z+lU0lGyp7ebb/mbJJJJLZIqAAAAAAAAAAAAo2opuTwlzbOO7QdrnGUrbTWsraVb8B2x15xb061lh/4sk/4HFgX1a1SvUc6s5Tm+bk8ss58gdx2V7NwhSje31PiqS3pwfKK82Bz+ndmdR1CKnGmqVN/OqbG5pdg5bOrfJe6NP8AqdokksLZFQOJq9hKiTdK+jJ9FKnj+Zo9R7P6hpqcq1Lipr58N0epFJRU4uMkmnzTA8aJbe5rWtRVKFSVOa6xZ1Hazs5G2TvrKGKfOpBfN96OSA7vs92sV0422oYjV5RqclL1OrPGU8PK5ne9kNdd5T+RXUs1qa8En85AdSAAAAAAAAAAAAApJKUWmsp8zW1Oz2lVFiVlT+Da/mbMAcZr3ZCjSt53GncScFmVNvOV7jjD2WSUouL5NYPI9SpdxqNzSSwo1ZJL3Z2AxgCsU5SSXNvAGVY6Xeag/wDhaEqiXN9EbJdkdWaz3UP9R3uk2sLPTaFKnFJKCbx1bMwDzGr2W1ams/JuP6rNdcWVzatq4oTpteaPXyOrRp14OFWnGcXzUlkDx0ybS/urGanbV502uie32HR9qOzMLSm7yxi1SXt0/o+9HJgd3oXa6FzKNvqCjTqPZVF7L9fI6pNNZW6PGjuexutyrx+QXM3KcVmnJvmvIDrQAAAAAAAAAAAAAAAAAAAAAAAAAAAAAAAAAAAAFtSap05TfKKyzSaZ2ptdTvI21KlUjKSbzLkZ+s11baTc1X82DOD7Hfr6l9VgelAAAAAAAAAAAAAAAAAAAAAAAAAAAAAAAAAAAAAAAAAAAAAAAAAAAAAAAAirW1CvFxrUoTi+kopnA9rNChplWFxaxat6jw4/Rkehml7W0lU7P3Lay4Ykvtx/MDzMAAd92D/Vlb94dQcv2D/Vlb94dQAAAAAAAAAAAAAAAAAAAAAAAAAAAAAAAAAAAAAAAAAAAAAirV4015y8gL5zjBZk8GFWryqPC2iWTnKo8yZaASKgo2ShUo2UcixyAvyUc8EUqiRBVqtRz0AyJ14wTcpJI5/U7qFavmnNOKXQw9Vvqk5umniJraU3xcOeZTLuNcJq7ZFzJSxwvcw3ni8WxkVoSpTTmtvcQN8UmysnS97qajlbonk3Jbshpv7CV7xeCtaSdLe6jVTTkk0Y3DKnU4UXTqOPLmWRqZeXzLSM7dVLKbjLxcyrqqphdSGT4t2yS3o8XjbxgiyRONtumXCo4RxhM6DSdQVakqc3icf4nPcVODwvEy+hPFbjU+HBXG6TnjuOw40iOpWSXM1vy7igsPLwY1W7k/M1uUc2mxnWWWyGVzGJral5iOEyOnJ1Myb2Ry5S5VO+m4o13UXkjNpvJp7asm8LkbSlVSW27ML1VZlGRPwrctW/IwrivOM1xciRV0o8SLTLtbfTK4sBzxzML5W5y2wiRTzzZp539oljI7xeY4veQJouWSPy5LTVTKRXJC3hFqqbl8eWXqpuKZsoy3iT5MsnPhRrbNEm10knzIp0oMjlXediOddvZHNlyYV1Ycef0VIxWyZSMUt2R892WTqyzhcjlvd6duMvrbKUkOIxoyclsXRm1zK6sW8WQuHn1Kv3EHepcysa8G+ZXs8U6k8DjZapKS2Brhy5YscuGVd3jHe+8jljkWOn1Nv9QpPjz7ZKnnqVpybbyYkG09iRN+eCZzW2Iy4JJWRKpjZbsui3jchikvUk4jpxtt3XNlJOok4iqZHkqma7ZWJMlckeSuSdq6SZK5LEyuSVV+SqZZkrkCSMsPZmZQuvmz+01+S5SJG5TTWUVNbQuZU3h7xNhCcZxzFgXAAAAAAAAAAAAAAAAAAAYer/AKovf3E//FmYYerfqi9/cT/8WB5KAAN32PWe0FD0l9x6Weadj/8A3BQ9JfcelgAAAAAGt1zSqeq2M6Uku8is05dUzy2rTlRqzpzWJReGj2Q877a2SttWVaKxCvHi+K5/yA506PsfrDsr35LWl+Yr7LPzZdDnCsZOMlKLw08pgeyg1+hXy1DSqFf52OGXqjYAAAAAAAo2opt8luypqe0t98g0etNPE5rgj6sDgNevnf6tcVs5ipcMfRbEWmadV1KvOlS+ZBzb9DDO87Daf3VjUu5rxVniP1V/XIHCNOLaaw1s0UNt2msfkGs1oJYhPxx9H/XJqQO07B3+1exm/wD5IL7/AOR2R5Pot47DVLeunhKWJej2Z6vGSlFSW6aygKgAAAAAAAEdf9BU+q/uJCOv+gqfVf3AeP1dqs/rMtLqv6Wf1mWgbLs7+vLT6/8AJnqh5X2d/Xtn9f8Akz1QAAAAAAAAAAABHcf3er9R/cSEdx/d6v1H9wHj9TapP1ZaXVf0s/rMtA2XZ39eWn1/5M9UPK+zv69s/r/yZ6oAAAAAAAAAAAAwdYv46dpta4k90sRXmzOOK7e3uZ29lF7Jd5L7l9zA5CrUlVqSqVHmUnlstAA3HZfTf7R1aCms0qXjn/JfaempJJJLCRzHYW07rTatw1iVWeF6L/8Ap1AAAAAABZVpxq05U5pSjJYafU8q1qwem6nWtvmxlmD84vkesHF9vbTe3u4rnmEmBxpNZ3M7O6p16TxKEskIA9fsbqF7Z0rim/DUin6E5ynYS9dWzrWknl0pcUfR/wBcnVgAAAAAAAAAAAAAA8q7QLGuXn7xnqp5V2g/Xl5+8A1xJb/3il9dfeRklv8A3il9dfeB6/Q/QU/qr7i8so/oaf1V9xeAAAFlWnGtSnTqLMJpxa80zyTULZ2d9Xt3/hzaPXjzTtfBQ1+tjqlL7QNIT2VzOzu6Vem/FTkmiAAex0asa1GFWDzGcVJejLzV9mqjq6DZt9IKP2bG0AAAAAAAAAAAAAAAAAAAAAAAAAAAAAAAAAAFlWrCjTlUqSUYRWW30A5vtxeqjpsLaL8VaW/ojnOx36+pfVZi69qb1XUqlffu14aa9yMrsd+vqX1WB6UAAAAAAAAAAAAAAAAAAAAAAAAAAAAAAAAAAAAAAAAAAAAAAAAAAAAAAAAartN+oLz6i+9G1NV2m/UF59RfegPLgAB33YP9WVv3h1By/YP9WVv3h1AAAAAAAAAAAAAAAAAAAAAAAAAAAAAAAAAAAAAAAAAAAxbi4x4IPfqwLq9woeGO8vuMN5by3lgqShQo2VZayAbLXIpJkUpPkBfKZHxOTwiybkllrBh1biUX4XgjYzqrhSg5VJZfkam5vOLO+F5EF1cy4d3lmFL2MyZXLPS+OO2Nc5qVZSXUspQcZcXkUb8TxyJUnwS9Cu20iG4uHPCl0IU0+RbVZbDmW10pvtn0lmJWptDyLreKUkpciOu25t9EZ/bot1ignCcuSyRPMXuZsZfm8RjmRh1G3PxLDNJXPZpNb0+Pd8jKadN4eyMaFWMYpJk8ZKtDGM4KVrjqRPRpqrslt5mPjhqOPvM3T005R6EFxSSk+Dm2V9prMtXwpxcefzjJqY4W2ljGDEo1ZUoKMkmmuaKSr746FKjW2BUea7iuRdS7zjcVyZJXpRjUVRPmZWn01VquWNkWyuo5c5ZV1KEqaSWzMqjWnCfDU28i+rSxuKtCNxRxyljZo5/ftjjO11apxQ6PBLbqNWng0kKVWjVcZOTXvNnZt05PL5jKeLbGMhWnC3hmFdzqW01KTbibWm23uY+p2/fW74VuVntXx/TEoanRclnKM9XUHyOd+TToyUpR5GWqqnHbZk5YyekyXXTdTnxRyuRgXlyqdKS4uFkFK9cGo1N4k9WFG7pOUsMSaq05L6quk1JTtXKbb35slrTb5EFCpGlSVKCwkWuq+LBbly3NR1/Hw3dpFLYcyyU1HmRSq+RzSWu+RJOpjZFkJriwyJyzu2W95h7F/FpJI2KSUdiLZsjpXD5MleJb8jPVhJpTBY1h8iRLcvxvyG0+WkEe84vAjI7xxwp82XPwRyyNzTeWhe1d+SXiUiu3Iic+FpRWS9tYTXMppFWZxLdYJopOHFncsypc0VW+yNfOdRncb3V6ZcmR8iqZ145b9OS4pMlUyzIyays7ikTKpkSZdkvKzsSplUyJMuTLbUsSplckaZXJZXSRMZLEy5MIXpk1GtKm8p/Ax8lUyRuKVWNWOVz8iQ1FKq4PKZsqNZVY+/yAlAAAAAAAAAAAAAAAAMPVv1Re/uJ/+LMww9W/VF7+4n/4sDyUAAbvsf8A+4KHpL7j0s807H/+4KHpL7j0sAAAAAAHLdvKHHptGtjenUxn3Nf0OpNJ2uhx6BXf0Wn/ABA80AAHbdgbpyo3Nq37LU4/zOwPOuxNfutcUM/pYOP8/wCR6KAAAAAADg+3V/3t7Ts4Pw0VmXq/6YO4r1Y0KE6s3iMIttnkl9cyvL2tcT51JuXougFltRlcXFOjBZlOSSPW7K3jaWdGhDlTikcH2KsflOqO4kvBQWfi+R6GByvbqx72ypXcF4qUuGXo/wD+fxODPXr+2jeWVa3ksqcWvj0PJK9KVCtOlNYlCTiwLD07stffLtHpOTzOn4JHmJ0/Ye/7jUJ2k34a8fD9Zf0yB34AAAAAAABHX/QVPqv7iQjr/oKn1X9wHj9X9LP6zLS6r+ln9ZloGy7O/r2z+v8AyZ6oeV9nf17Z/X/kz1QAAAAAAAAAAABHcf3er9R/cSEdx/d6v1H9wHj9X9LP6zLS6r+ln9ZloGy7O/r2z+v/ACZ6oeV9nf17Z/X/AJM9UAAAAAAAAAAAAeXdprh3Ou3Ms5UZcC+CPT6j4acpeSbPIbyfeXlef0qkn/ECEAupx46kY+bSA9S7PUPk+iWtPrwZfxNkQ2seC1oxXSCX8CYAAAAAAGh7Y0O+0Ko1zpyUjfGBrlPvdGvIedJ4A8oAAHQdirh0daUM+GrBxx7z0Y8o0Or3OsWk84xUR6uAAAAAAAAAAAAAADyrtB+vLz94eqnlXaD9eXn7wDXElv8A3il9dfeRklv/AHil9dfeB6/R/Q0/qr7i8so/oaf1V9xeAAAA837ZvOv1PqR+49IPLO0dwrnW7qa5KXCvgBrAAll4A9O7KR4ez9rnqm/4s3BhaNbu10m1oyWJRpxz643MHtNR1Ovb0VpTkpKT4+GSjt8QN02lzIal5bUl+duKUPrTSPNNRoaxb73yuEvpNtr7UaxzlL2pN+rA9Tq6/pdFeO9pf9r4vuMKr2x0mHs1KlT6sH/M84AHsVvWjcUKdaCajOKkskhiaV+rLX93H7jmu03aiVGc7PT5Ymtp1V09yA6K+1iw09P5TcQjJfNW8vsRqZdttMjLChXkvNRWPvPP5zlUm5Tk5SfNtloHrOnatZ6nBytaqk1zi9mvgZp5DYXtWwu6dxRk1KDzjzXketUKirUYVFylFMCQAjr16dvRlVrTUIRWW2wJDHub22tFm4r06fulJJnF6z2xrV5SpadmlS5d4/af4HMVa1StNyqzlOT5tvIHo1btdpNJtKtKo19GDMaXbfTU9qVw/SK/E4/S9FvNVl/w1PwLnOW0UdDT7CS4V3l4lL/LHKA2VPtppcn4lWh6w/Az7XtDpd1hU7uCb6T8P3nKX3Yq8oQc7apCul83lI5qpTnSqOFSLhOLw01hoD2OMozipRakn1TyVPKNP1m906adCtLh6wk8pneaD2joatHu54pXKW8G+foBuwAAAPMbi/1upOcZVLtxy/msD0O91Oz0+m53VeEMdM5b+BwfaDtLU1Rujbp07ZPk+cvU1E7e8qPM6NeT83BsgknGTjJNNbNPoBQ3PZOrTo63TnWqQpwUX4pSSRpi6EJ1JcMIylLyissD1n+07D9utv8Adj+I/tOw/brb/dj+J5V8juf2et/oY+R3P7PW/wBDA9V/tOw/brb/AHY/iZUZKUVKLUovdNPZnkHyO5/Z63+hnq+mprT7dNNNU1s/QDJAKNpJtvCXUCpHWuKNvHir1YU4+cpJHKa52wVGcrfTcSktnVfJehx9zeXF3Uc7itOpJ+bA9FuO1Wk0Hwu543/ki2Yk+22mx5U7iXpFficPYafc6jXVK1pOcur6L1Z0tDsLWlBOvdwhLyisgbSHbbTJPeFePrFfiZlv2n0m4eI3Sg/KcWjnbnsNcQg3bXMKjXzZLGTmbu0r2Vd0bmnKnUXRgeu0qtOtBTpVI1IvrF5ReeRWmoXVlUU7atODXk9jtNB7W07yUbe+SpVntGfzZfgB1IAAAAAAa7WNYttIocdeWZv2Ka5yA2DeFlmvu9d02zyq13TyukXxP+BwGqdor7UpNSqOlS6QgzW0aNW5rRpUYSqVJvCS3bA9AqdtNLg/D30/SH4lkO22my5068fWK/E1Nn2HualNSuq8aLfzUuJoXvYi4o0pTtq8azSzwtYb9AOjtu0+k3LUY3ShJ9Jpx/jyNrTqQqx4qc4zi+sXlHjsouMnGSaknhp9DKstSu7Cop21aUH5Z2YHrYOb7P8AamnqMo290lSuMbPpM6QAAAAMTUdRt9MtnXuZ8MVyXWT8kcFq3aq9v5OFGToUfoxe79WB3l1qtjZ/3i6pwflxZf2I1dXtjpUPZnUqfVg/5nnUpSk8ybb82bnSuzF/qcFUUVRpPlOptn0QHTflxp2cdzcevCvxJafbLSp+1KrD60PwNYuwb4d73f6hq9T7J39hTdWGLimt24c18AO5tdZ0+8wqF3Tk3yTfC/sZnnjKbi8ptM3Gldpb7TZKPG61FfMm/uA9OBr9I1e21a37yhLEl7UHzizYAAAANV2m/UF59Rfejamq7TfqC8+ovvQHlwAA77sH+rK37w6g5fsH+rK37w6gAAAAAAAAAAAAAAAAAAAAAAAAAAAAAAAAAAAAAAAGLc1+HwQ59WBS5ucPghz6sxiiRcICABKFGWS5F7IpMgWTZjznjLJKj2Zg1Zvci1KtWvKfNmDdVeGL3JJSwjXXtTKwitvSZ7Y1erxPZkVWs+FLJDUluWp8RXxabZFPeS2ySwalOSxs0Q0pOKTi8Mq5OLyviw0npj1o4m0XQo7prcrVWfF5mRGMPk8ZxknLqibVZO11JcTw+ZHNbtCOWy9RWN3hlGnsg3FJ8iCvRcp5W+SeSyvcUSkkn06Eyq5Rgzi4vBkWlwqSaks5LLh5nvzLIQ4pJLmy97nbOdVvrCLqUpzbwsGG+eE3zNlb0lQsHx9UaOrcuEpKHIzmLS5abKrUo01GNOWdt8+Zj3FWLp8UWk0ap1JNt5MmztK99UUIJ46voW8ftn5q05zm+rOk0qzqRpJyjjPmZOm6JRtIJyXHPzZtHKMIkZYy+2d7YsbSMn49zKp21OC2iR0p95U9xluOVtsVxmP0a0hnb0preKZbG1o59lFZqUeTLqTeSNy3VidK/JodFhkNW3aT6ozluiuE1uWvHjUbaKvaRqxa5GtqaRWg80p5XkdRWtk90Ydb8ysy5eZjlhcExzc7O4g81I4QknCHhbRvKk4VINZTNPcQ46ypx5MymW6mSW6Ycbh5aTMyhJSwyWNhQprlljhhD2UkVyzmXp6PDh4lSlJ7pkKoyMmNRdeRJ4ZrwtZM/Kx070w+4l5lyt11ZJUk4c+RC6+5beVWm6nVFRW2C+NKT67ENFyq1FGOWbqnbweMoTG2suXk/GxIW7ik4vcKnJy5Gx7vC2Rb3eGaXiscv57WvuKbijGWDbSoccsM19e2lSk/Izyxs7dHDyS9VYir3WzLcpcy6OGY1sRTXMuVThZTde9F0Yxb3Cau4lJFqe5bUp8G8XsUjLzLY5XH0zywlm0qZXJGmXZO2XbkuK/ITLcjJpKyuK/JVMsyVyaSs7EiZcmRZKplpWdiZMqmRJlyZZWxKmVyRplyYQkTJadRwkmnggTKpkjcUKyqx95KailUcZJpmzo1VVjnr1AkAAAAAAAAAAAAADD1b9UXv7if/izMMPVv1Re/uJ/+LA8lAAG77H/+4KHpL7j0s807H/8AuCh6S+49LAAAAAABq+0sePQbxf5P5o2hrtfWdEu/3YHlQAA2nZqfd69aS/zNfamj1I8n0SXDrNm//liv4nrAAAAAABznbS++TaV3EXidd4+HU88N72vv/lmszhF5p0PAvXr/ABNfpFm77UqFBLaUln3IDveyVh8i0enKSxUrfnJfy/gbwthFQhGEViMVhIuAHnPbOx+S6u6sViFdcS9Vz/kejHP9srD5XpDqxWalB8S9OoHnJNZ3ErS7pV4e1TmpEIA9htq0bi3p1oPMZxTRKc12JvvlGmSt5PM6DwvRnSgAAAAAAjr/AKCp9V/cSEdf9BU+q/uA8fq/pZ/WZaXVf0s/rMtA2XZ39e2f1/5M9UPK+zv69s/r/wAmeqAAAAAAAAAAAAI7j+71fqP7iQjuP7vV+o/uA8fq/pZ/WZaXVf0s/rMtA2XZ39e2f1/5M9UPK+zv69s/r/yZ6oAAAAAAAAAAAEF9Lgsq8vKD+48gPW9VeNMuX/8AGzyQATWazeUF51I/eQk9h/f7b97H70B67BYhFeSRcUXJFQAAAAAAQXseOzrRfWDJyO4Wbeov8rA8dAAEtq+G6otdJr7z2CLzFPzR47Q/T0/rL7z1+hvQpv8Ayr7gJAAAAAAAAAAAAAA8q7Qfry8/eHqp5V2g/Xl5+8A1xJb/AN4pfXX3kZJb/wB4pfXX3gev0f0NP6q+4vMejc0e5h+dh7K+cvIud3brnXpr/uQEwMGtrOnUF+cvaC93Gsmm1DtpZUYtWcZV59HjCA2mv6rDStOqVG13slw04+bPLZScpOT3beWZWo6jcancOtcz4n0XRGIANr2b016lqtODWacHxTfuMKxsa+oXEaFtTc5Py5L3s9L0PR6WkWapxxKrLec/NgbMAAWVaUK1OVOpFSjJYaZ5j2k0xaXqk6VP9FNccPcv/wC5PUTiv/UCCU7OfVqS+78QOOAAHf6tq39m9m7aFN4r1qajH3LG7OFoW9e8rcFCnOrUe+IrLM25r1dZvrahSTeIxpQj97PRNH0mhpVpGnSiuNrM59WwPM7vTLyySlc21SnF/OcdvtMU9irUadxSlTrQU4SWGmjn63YvTqlRyhKpTT+ansBwllaVL67p29GLc5yx6e89bo01SowprlGKRh6Zotlpafyan43zm92zYAOR532s1yV/dStaEv8Ah6Txt85+Z1vae/en6PVnB4qT8EfieYADP0XTZapqNO3WVHnN+SMA7rsHZ8FnWu5LepLhi/cv65A6e2tqVpQhRoQUYQWEkSgADmO1+iQurWV7QhivSWZY+dE6ctnFThKEllSWGB42X0as6FWNSlJxnF5TXQyNVtXZ6lcUH8ybx6GIB6h2d1datYKcsKtT8NRfzNseZ9lNQdjrFKLeKdZ93L48v44PTABbwx+ivsLgBbwR+ivsPJ9Y/XF9+/n/AOTPWjyXWf1zffv5/wDkwMM3nY9J69Szv4WaM3nY79fUvqsD0jgj9FfYOCP0V9hcALeCP0V9hcAAOO7Za5Kn/wDj7aeG1+dkvLyOpvrmNnZVriXKnBv49DyW5rzubipWqPMpybbAjJLahUurinQpLM6klFL1Izp+w1n32pTuZLMaMdvVgdhpGmUdLs4UaSXFjxy6yZngADVa/o9LVbKUWkq0FmEvf5G1AHjc4Sp1JQmsSi2mvJlqbTytmb3thZ/JdbqSisQrJTX3P+KZogO+7Ia472k7O5lmtTXhb+dE6g8j027nY39G4g8OEt/Tqes0aka1GFWO8ZxUl8QLwABi6je09OsqtzVfhgtl5vojy3Ub+tqN3O4ryzKT2XkvI6Lt1qDqXVOyg/DTXHL3vocmAPQOxukxtbFXlSKdassxyuUThLSi7i6o0VzqTUftZ69SpqlShCKwopJIC8AAea9sLWNtrlRwWI1Up49/X+Jozsu31o+O3u0tscEmcaBWE5QmpQbUk8po9Q7N6i9S0mnVm81I+Cfqv6YPLj0HsNQnS0ec5rCqVXKPphL+QHSkdxXhbUJ1qrxCCy2SHJ9utQdK2pWVN4dV8U/Rf/f4AcrrWq1dWvZVZtqmtoR6JGvAA6Hslo0dSu3WrxzQo4ePpPoj0SMVGKjFJJckjU9mLP5FotCLWJzXHL1ZtwA5gAcH2y0WFrUV9bx4adR4mlyT8zlT1nWLRX2mXFDG8oPh9eh5M1h4fMDL03UK2m3cK9CWGnuujXkepafeU9Qs6VzReYzWfR9UeRHX9hNQcatWxm/DLxwXv6gduAABqu036gvPqL70bU1Xab9QXn1F96A8uAAHfdg/1ZW/eHUHL9g/1ZW/eHUAAAAAAAAAAAAAAAAAAAAAAAAAAAAAAAAAAAAAI61RU4Nvn0Asua/dx4Y+0zB5vL5lW3OTlLmwEBUAAGCjJFs3sRuXD7Syi6bMec8xwVSirzW+DAqS5k9aeDEnLKAx69TCNZcTc2zKuZ7mvqOTexC0iJpdS1vDwhNMpGPVhK+E3EnpzXEm1lECWS+HJpvBFXlT1Ixb2ez6FbqlSjwTpSW63RFGWN10Laksvi6lYmpYPCyzIo+OE4xim8ZMPvMxJqU5RWY7BbGr6bWcS5F1alONPiisx8yOms1Mz3XkSyrYg4JtR8irS+mBUfFLcltI/noya2TI5xWW+RLbTSZa+mM9tlc3XfQ7n5q6mpuaPdywzI7zE9iO9bqKL5yewi2cmmPbW8q9eMEs5Z22mWkLektlsjUaTZq3pqpNeORvaDljAt7YsziUlsYtSM5SxHcmWc8iqlwszz79kQ0k6UsN7mdF5RitcdTJkx4eHPUrhdFVnFLmRxeHsJS4itPwpsvuWoSrOMld2+ZZGT6kjaxsaTtCji184jnGNSDjNcy9Y6lJRXmRYOd1Kxr0MyotuPuNXSrunVTqZTXPJ2vCmsPcw7vS7e5j44LPmjK8S2Nku2qjJVKeU+Zh1eJSwzavTZUlim8xRSWmSq44nhnJOPKX09LHmwk9tTOXDHOS2E5N5WUbyOk0sLijnBSrpdN+z4fQ08Lr0mfJw21TqcSxLcx5bM2n9j1ZPaoki+OjOLzUnle4Tjsafn459odJpvjc2tuhvEspMx6dNQSUFjBkU89TXDHtwcvJ53aRR40XShhbCMuEt4tzp1HP2oo7kdSCllSWUT9NiyazuZ5Y9LTLVaq5sZJOdNZXkYkHjZ8zoYtOOGanUqHdzU4rZnJy8WpuO/g57lfDJi8ZJHZbkMY4i23guhUWDmsdli9NuW4qwxuuRbxkkamfeQrZUcW1syRMjqt8eS6Lyjo48vphnj9rhkFGbysLF2SuSwrk0lZ2L8lclmSqZeVlYvTLkyPJVMuzsSplyZEmXpllUiZcmRplyYQkTMihVcJJoxUy9PBI3VOanFNFxrbau4S35PmbFNNZXICoAAAAAAAAAAGHq36ovf3E/wDxZmGHq36ovf3E/wDxYHkoAA3fY/8A9wUPSX3HpZ5p2P8A/cFD0l9x6WAAAAAADXa/tol3+7NiavtLLg0C8f8Ak/mgPLQABm6Ms6vZr/5o/eesnlfZ2Hea5aR/z5+zc9UAAAAYmqXkbHTq9xL5kXj3syzj+3l9w0qNlF7y8cl7ugHFznKpOU5vMpPLfmzr+wdhmVa9muXgg/vOPinKSS5t4PVtEslp+lW9DGJKOZer3YGeAABZWpxrUZ05rMZxcWXgDyLUbaVnf17eSw4Ta+BjHV9urHuryleRXhqrhl6o5QDedkb/AORazTjJ4p1l3b9Xy/jg9KPGoScJxnF4lF5T8mes6TeK/wBOoXC+dFZ9zAzAAAAAAjr/AKCp9V/cSEdf9BU+q/uA8fq/pZ/WZaXVf0s/rMtA2XZ39e2f1/5M9UPK+zv69s/r/wAmeqAAAAAAAAAAAAI7j+71fqP7iQjuP7vV+o/uA8fq/pZ/WZaXVf0s/rMtA2XZ39e2f1/5M9UPK+zv69s/r/yZ6oAAAAAAAAAAAGHqyzpdyv8A42eSnruoR4rC4j5wZ5EAJ7D+/wBt+9j96ICayeL23f8A8kfvA9fXIqUjvFP3FQAAAAAAR13ihU+qyQhu3w2tV+UGB4+AAL6P6an9Zfeev0Nren9RfceQ2yzc0l5zX3nsFNcNOK8kkBcAAAAAAAAAAAAAHlXaD9eXn7w9VPKu0H68vP3gGuAL6CTr001lOSyviBbxPzf2jifmz1Slo2mOlBvT7ZtxX+FEkWkacuVjbr//ABIDybdl0ac5y4YRcm+iR63CwtKfsW1GPpBE8YQh7EVH0QHlltoOp3TXd2lTD6yWF9pvtP7EVJNSv6yivoQ3f2nbgDFsNOtdOpd3a0owXV9X6sygAAAAHGf+oPKy/wC/+R2Zxn/qDysv+/8AkBxgAA63sJp6qV617Nfo1wQ9Xz/++87k0nZGgqGg0XjDqNzf/wB+BuwAAAAADiO31zmvbWy5RTm/U5A33bOq569Vj0hGKX2GhAHqXZqgrfQrSC6w4/t3/meXRWZJebPXdPh3en20Po0oL+CAyAAAAAHnXbaj3Wt8eNqlNP47nPHWdv44vLSXnCS/ijkwKwk4TjOLxKLymeu2NZXNlRrLlOCZ5Cen9lqneaDbf5Y8IG3AAA8l1n9c337+f/kz1o8l1n9c337+f/kwMM3nY79fUvqs0ZvOx36+pfVYHpQAAAADnO29z3OjKkudaoov0W/8jzw7H/1Aqvjs6S5YlJ/wOOAHf9hKChpdWr1qVPuOAPSux9Pu9Ao/5m5AbwAAAABx3b+jmnaVkuTcWcUeg9uoZ0eEvo1EefAD03sncu50Kg28yptwfw//AKeZHd9gambC4p/RqZ+1f0A6sAjuHw29WXlBv+AHlWsXDutVuareeKo8GEX1nmtUfnJ/eWAbTszT7zXrRPpPi+xZPUjzLsis9orX/u/8WemgAABjX9lR1C1nb145hJfZ7zi7nsReQqv5NVhUp9MvDO9AHFaf2In3inf1o8C+ZDqdlRpQoUoUqUVGEFhJdC8ADzLtZcu412v5U8QX/wB+J6Y3hN+R5HqVR1dRuZvm6svvAxiS2p99c0qf05qP2sjM3Rafe6vaR/8Ali/seQPVqMO7owgvmxSLwAAAAo91g8n1ij8n1a7pYwo1ZY9MnrJ5j2shwdoLlebT+1Aacz9DuXa6vbVc4Smk/QwC6k8VYPykgPZAR0JcdCnP6UU/4EgA1Xab9QXn1F96NqartN+oLz6i+9AeXAADvuwf6srfvDqDl+wf6srfvDqAAAAAAAAAAAAAAAAAAAAAAAAAAAAAAAAAAAApJqKbfJGurVHVnnouRNd1svu4/ExkBUAqEAAAFGVKMJRzMWq8IyZowrl4TIGFXeWYlWWETTllsxa8vCyEtfcTbbMZybJpribFKlhp4yRV5GPu+ZVJciarHMm8Je4hw5SwgnS5xS2XItcGTRpT+ixKMoe0sFdr+LHcWijlhGTGDqeiMevKOeGK5Fpdq5TS2MtzIpvLWeRjQXUy6EU8bEZJ4+09JNyz095h3M25to2EI8UXvsjBr05d7hlcfbXOddIIxnNcy+MJweVyJ4QeORJJYhjBPkicXW2FKrJS95n6bb8dRVKvLomYsKPeV1nkb+FGMIxx5C3TG72yIzzUSRn0G00YVpT4quXyNjOCjhrkU3Z2rWTlcGSKOJy3InX8GClKeW0yueUvok0zU4cPCiuVCO7IFHqYd98pqSjCkvC+bImXXpMm6z1OMt00SOcVDBi0LdwpqLe7JpKEPnZZEtTZN9Kcbb2LszKRlHPMvU1yLY4/2ratXFncrOo4Iuc0iCtVysE3+M6pO1Y3cc4lsZCqRkspmqrLMWzBpXlSE3FN4RnjzWe2n49zp0TaxsRup7jBt7qU8Z5GQ5pk5cm/SPDXtJ3nvLONuRE2IyafqZTlX8WRGe6WCZ7xMSMuGosmS5YR04ZbjOzSJ+B5LqcuJFlTdF1HYvOqn6SPYskySTRDNotURLCexdnKwY9OMs7cidJohFFF5La1KNaDjInS23Is+IrcZrRLZdxori2VOo41JMjUEovhRt76073FSKy10MGMFBZktzzuXG4XT1uLmmWP9sakm2+JbEq2LsljaMr20ttJPiKJFVljDTJl0rYql5sFr8LK5OnD058p2rkrktBtKysXZK5LMlS8rOxemVTLMlcmkrKxImXJkSZemXjOpUy5MiTL0yUJUy5MiTL0whLGWDPtK3zJfA1qZLTlh8yRuQQ29XvIb80TAAAAAAAAADD1b9UXv7if/izMMPVv1Re/uJ/+LA8lAAG77H/+4KHpL7j0s807H/8AuCh6S+49LAAAAAABpO10+DQK6+k0v4m7OW7eV1DTaNHO86nF8Ev6gcEAAN52Oourr9GXSmpSf2NfzPSjh+wNvm4ubhraMVBP1ef5HcAAABRtJNvkjyvX77+0NWr1k8w4uGHotkd92mvvkGj1pReKk1wR9WeYAX0asqNWNWGOKDysrJufyu1n9pj/ALUfwMrQ+yi1OwjdVq0qXG3wpLobH8hKH7XU+xAaT8rtZ/aY/wC1H8B+V2s/tMf9qP4G7/ISh+11PsQ/ISh+11PsQGk/K7Wf2mP+1H8B+V2s/tMf9qP4G7/ISh+11PsQ/ISh+11PsQHNX+vahqVDuburGdPPFju4rf4I1p2/5CUP2up9iOV1jTpaXqFS2k3JR3jJ9UBhHbdg77ip17KT9nxwX3nEmw0G+en6tQrt4hxcM/R7MD1YFE1JJrkyoAAACOv+gqfVf3EhHX/QVPqv7gPH6v6Wf1mWl1X9LP6zLQNl2d/Xtn9f+TPVDyvs7+vbP6/8meqAAAAAAAAAAAAI7j+71fqP7iQjuP7vV+o/uA8fq/pZ/WZaXVf0s/rMtA2XZ39e2f1/5M9UPK+zv69s/r/yZ6oAAAAAAAAAAAFlaPFRqR84tfwPH68O7r1IfRk19jPYzyjXaHyfWbunjH5xv7d/5gYBfQlw16cvKSf8SwAexUHxUKb84p/wJDD0mqq+l21RPOaaMwAAAAAAGHq8+60q6n9Gm2Zhp+1NZUdBucvHFHh+0DzEAAZelUu+1O2p+dRHrZ5n2Sod/r1DKyqac/8A79p6YAAAAAAAAAAAAAADyrtB+vLz94eqnlXaD9eXn7wDXElv/eKX1195GSW/94pfXX3gev0f0NP6q+4vLKP6Gn9VfcXgAAAAAAAAAAAOM/8AUHlZf9/8jszjP/UHlZf9/wDIDjAAB6xo0eHSLVf/ABozjE0r9WWv7uP3GWAAAAAAeY9q3nX7n1Rpzc9rI8Ov3Pvw/wCBpgLqf6SPqj1+2WLakv8AIvuPIIe3H1R6/avNrRfnCP3ASgAAAAOJ/wDUFfnrF/5Z/wAjjzr/AP1Af5+yX+Wf8jkAB6R2LlxaBT905I83PSex0eHQKXvk2BvQAAPJdZ/XN9+/n/5M9aPJdZ/XN9+/n/5MDDN52O/X1L6rNGbzsd+vqX1WB6UAAAAA4Tt8/wDjrZf5H/I5Q6zt9HF5avzhL+RyYA9P7LLGg2v1TzA9O7KvOgW3oBuAAAAAHO9t1/8Agn+9iednonbh/wD4PHnViedgDs//AE+l/fo+XA/vOMO1/wDT+GKd5PzcV94HYkF7/crjH/Ll9xOR148dCpH6UWv4AePT9uXqUL664a9ReUmv4lgG37Ky4e0Fq/e1/Bnp55LpFbuNVtKmcKNWOfTO56ynlJgVAAAAAAABZV2pT+qzyG63uqz/AM8vvPX6izTkvNM8gu1i7rLyqS+8CI2XZ1Z12z+v/JmtNj2eeNcs3/n/AJAeqgAAAAB5r2xWO0Nf6sf/ABR6UeadsHntDcekfuQGkC2aYKxWZJebA9c058WnWr86MH/BGSQWMeGwt4+VKK/gicAartN+oLz6i+9G1NV2m/UF59RfegPLgAB33YP9WVv3h1By/YP9WVv3h1AAAAAAAAAAAAAAAAAAAAAAAAAAAAAAAAAAir1FSpt9ehKa65qd5VwvZQEe7bb5sqURUICpQqAAAAoyuAwlHPka+75M2E+RrL2WEyKRrar5mFXn4WZFWRr7iezRCyFyXDnqX020llvHUxqabnl8jIXi6la0xW1PNEPeOL25okqSwjFk8smGV02lDU4cKVSG66ozFXtbqnjOJHPx35GRThOEePoUuE+k451nVaUaW8ZpmBVUM+HmTSUprJiy2kTjEZXaqWCejPhZjtl0HgtYYXVbCD4IuWefQx6km6vE+QVR8BFKT5vkUka5ZJ41MdMksKsOLE1szGdVRSawUlUcksIeKfyM23oqrc5prwI2bUuIpplJRt47bszY285zTxsQwyu6ltKbjT4pcyZVk1wyKyXBAxYJyqZSK53XSkS1koSTXJlIvfYrc7UE3zTIqU3JbGNuqvrcbClPw7l6akvDggpQlw+J4RFVuoUnwx3ZpbZESbuoyqmEsJ7mJLibxkxKlSrJ8Snz6FrqVE1ny3ObK7rpx4qzotR5yLu/iupr5VcR3YU8pJZz1ZXysi84Jvtmu6XRMjqXeOcG17iFFxT8lafixSd6pLlzLO6pZzjDLUnxZ5kiWXllbl/Z4SEYcPssnhyIkXZaInJ+1bhtfJMom8bBSL1jmWxstZ2WIbipOnTylll9rfKp4amzJZLjj4cN+8i+R8cPFFRl5nVjbPSnWu2V4ZcmVwo9SCFGUI4wHGXXJt5X9M9RfOrFbORfScJ8tzEkvFyZJSap8kyMeTLfa1xmuma/CtiseW5CqnEyZPY2l2ys0vctiJ8yyrSlUkmptJdCRQHdPSWK8KNdqFtJPvIcuqM7j4diranFp8mV5OOZ46q3HyXDLbnXJ95wspUzDD6GXc2rpVm/mvkYtztFI82zxy1Xr4ZzLVhCeSXiysYMOLxuZUHlFcppfKE94kUZE3Qx5+CRrxX6YZz7S5GSxSK5OhhYuKluRk0jKxdkqmWZK5Lys7F+S5MjyVTLys7EyZemQpl6ZaVSpUy9MiTLkyVUqZemRJl6ZIy7eq4TT+02aakso0sJYZsbOrmPC/gBlAAAAAAAAGHq36ovf3E//FmYYer/AKovf3E//FgeSgADd9j/AP3BQ9JfcelnmnY//wBwUPSX3HpYAAAAAAPPe294q+qwoReY0IYfq+f8jt9SvqenWVS4qtJRWy835HlNzXnc3FStUeZTk2wIgDYaHps9T1KlQivAnxTflFAd12RsnaaLBzWJ1Xxv06G8LYQVOEYRWFFYRcAAI7itC3oVK1R4hCLk2Bw/bq+729p2kX4aKzL1ZzNtRlcXFOjBZlOSikX3tzO8vKtxU9qpJy9De9ibH5RqbuJLwUFleoHeWdvG0tKVvD2acFFfAmAAAAAAABx/byw4qVG9gt4vgn6Pl/8AfedgYmq2ivtNuLdrLnB49ea/iB5IC6cHTnKElhxeGWgen9mL75fo9GUnmcFwS9Ubc4PsLf8AdXtS0m/DVWY+qO8AAAAR1/0FT6r+4kI6/wCgqfVf3AeP1f0s/rMtLqv6Wf1mWgbLs7+vbP6/8meqHlfZ39e2f1/5M9UAAAAAABi6hf0NNtncXLapppbLLMo43t7epQoWcXu3xy/kB0el6va6tGcrVzag8PijgzzkewC/4S6f/wAiX8EdcAI7j+71fqP7iQjuP7vV+o/uA8fq/pZ/WZaXVf0s/rMtA2XZ39e2f1/5M9UPK+zv69s/r/yZ6oAAAAAADF1C/oabbO4uW1BNLZZZlHG9vb1cNCzi9345fyA6PS9XtdWjOVq5tQeHxRwZ5yPYBf8ACXT/APkS/gjrgBwHbqzdLUqdyl4a0MP1X9MHfml7Vae9Q0iags1KXjj/ADQHmYAA9H7GXKr6JGn1oycfhzN+ef8AYjUFbajO2qPEK62+sv8A6z0AAAAAAAHKdvLlQsqNuudSXE/RHVnmfau/V9rFTgeadHwR+HP+IGlAKwi5zUYrLbwgOw7A2j4rm7a22hF/xf8AI7U12hWC07SqFB+3jin6vc2IAAAAAAAAAAAAAAPKu0H68vP3h6qeVdoP15efvANcSW/94pfXX3kZJb/3il9dfeB6/R/Q0/qr7i8so/oaf1V9xeAAAAAAAAAAAA4z/wBQeVl/3/yOzOM/9QeVl/3/AMgOMAAHrelfqy1/dx+4yzE0r9WWv7uP3GWAAAAAAed9t6Pd613n/Mgn9mxzp3Hb20crehdRXsPhk/czhwCeHk9b0qp3ulWk/OjDP2I8kPS+yNx8o0Ghl5lTzB/B7fwA3YAAAADg+3s86hbw+jTb+1/0OVN32vrqvrtXDyqaUP8A79ppAB6n2coujodpF7NwTZ5jaUJXV1SoR51JqP2s9eo01SowppYUYpAXgAAeS6z+ub79/P8A8metHk2s/rm+/wD9if8A5MDCN52O/X1L6rNGbzse/wD89S+qwPSgAAAAHH9v6OaVpX+jJx+3f+RxJ6X2ttHdaHW4VmVJqovhz/g2eaAD0fsZU49Bpp84zkv4nnB3HYG44rW4oN7xkpJe4DrgAAAAHL9u58Ol0oZ9qp9xwJ1/b64Tr2tunvGLm16//wAOQAHoHYSi4aTUqP59V49EkefpZeFzPVdAtfkejW1JrxcPE/V7gbEAAeUa5bu21e6p4wlNtGAdX27sXTvKV5FeGouGT96OUAcnlHrOkXSvNMt66e8oLPqeTHa9hdSThUsKj3Xip/zQHYgAAAAAAAHk2sUe41a6p+VRv7dz1k867a2joax3yWI1op5965/yA54ytKn3eqWk/KrH7zFLoTdOpGcecWmgPY08rJUgs6qr2dGrF5UoJk4AAADy/tRPvNeu2ukuH7D06clGDk3hJZPIr6t8pva9b/mVJS+1gQEltB1LmlCKy5SSIzcdlrR3et0FjMab45fAD0ynHgpxivmpIuAAGq7TfqC8+ovvRtTVdpv1BefUX3oDy4AAd92D/Vlb94dQcv2D/Vlb94dQAAAAAAAAAAAAAAAAAAAAAAAAAAAAAAAABDc1O7pPzfI18US3VTvK2FyiRoCpUoAhUAAAAAKNlrqxTw2YF9eTo1UoNYKZ5zGba8fHc7qM2b2NRqEuZctUm9pQT9DCu7jvc4TTM5y41tfj8mP0wq0zCcO9njOxJWco5ymYqqNN4L766ZeOr2y60IQoLEcPzMWMsFJ1pNYb2KKWIhe/0q06ksJbssnbuMsMRquEsomqVO9SkuY7iNSo4wUOZdKTxtyLHJmTY2c7urwx9lc2EMZ1J8opvJkWmnV7mfsuK82dHb6dRt4puKcjMg6VNZ2RTy+oWNRS7P0OH85Ocn7gtDoUqnEpcS8pG7pR71OUeXuMaVagqvDN+JbYFt0Y+2B/Y8Kss0kuFc0mSvSKLj46Oce83FrShHMoLGSStwx5kyaiMst1pZ6ZZ06a4aKcjEqWc7qLp0qCpx80jpYwg1lpBqCWEiJjZ9nlP002maTVtnmdecv8vQ3Cg11Djw8hGLfNlpapVk48WxbGk4+yjIUEi7kVs2MSVtKp7b2Kd3St452RNXrKEXuaetcOu5JvKM8rjg1wwuaarqVNycItvHXoYNWo6u6e3TBFKCTaSJqLwsNLfqY5Z7rsw4vGbFOaSSJYJSWZSKVOFpKO78y2EEuhllY1k6StR6PJFWrxpLlmT5Ilx5FHCLeWk2Z7m+1tdFGcpxzJJehI900UptRluvQu5tsjLXtH3pFGnNSzxGRBNLxPJRF5TLK0VKloyUVXl8XkpKKUU0+ZRbE2XGq+4kzjkT0qmdmYyeUIywzfj5LjWOeG2xSTQcYshpT4olslOU+bSR6H5Jrbl8e0rpLyIp0E3kyY7rcq4l/GVHlYxFTaezwTLluUawyqYkLdr0g3hbBFk9i+lVuNy5cyNy3JViMc9SAnTVSDTRzOrValC7hTlDEOj8zqYPK3Nbrtn8otJTiszhuimfHMu2nHy5YXpp4eOOxLRbSakayleSpTjGpBpcm2Q3t9UnUcKbxA5Pw5W6enl8rj8dug5rKIKyyjVadqEqU3CtJ8D6vobWU4yWYyTRnlx5ceSOLlx5Ix41MPDJVMgqxw+JFIzOiXc2pnjq6ZXGOMhUiCrUcpqEX6loxysjOUslcmKqmOpJGomuZeMbWQmVRFGZemXilSKWC+LIslyZZSp0y9MhiyRMuokTL0yNFyYEiZkUajjJNGKmSwZKG6hJSimupcYllUynFv0MsJAAAAAAwNcmqejXsn/wAmS+1YM5tRWW0l7zke2Wt0ZWjsLaopzm13ji9klvgDiAABt+y1WNHXraUnhN8P27Hp541CUoTUoNqSeU10OssO29WlTjC9t1VaWOOMsN/ADuQcr+XNnj+7Vc/Ahq9u6a/Q2UpfWnj+QHYGLfahbafRdS5qqCXJdX8DhrvtnqNdONFU6EX1Sy/tNDcXNe6qOpcVZVJPrJgbLX9dq6xcY9i3g/BD+bNQDP07R73Uqijb0Xw9Zy2SAw6NGpXqxpUouc5PCSPSuzeix0mz8azcVN5vy9w0Ps7baTBTf524a3m1y9DcgACjaSy2kveBU5Ttvqio2isaUvHV3njpE2Wsdo7PTaUlGca1fHhhF5397POby7rX1zO4ry4pzeWBAej9jLVW+iQqY8VaTk/5HnB6H2R1W3raXStpVIwrUvDwt4yumAOjAAAAAAAAALalSFKLlUnGMV1bwB5r2stFaa3V4ViNTxr4mlN52t1CjqGq5t3xQpx4eJdWaMCa0uZ2d1SuKT8dOSkj1myuqd7aUrik8xqRT9DyA6Dsz2ielz7i5zK2k+nODA9GBBbXlvdwU7etCpF+TJwBDeTVO0rTfJQf3EraSy3hHM9rNcoULGdpQqKdeqsPhfsoDgG8tt9QABm6PWVDVrWpLkqiz8dj1hPKyuTPGk8PKOo0vtnXtaMaN3RVeMVhTUsPH8wO+Byq7c2fW3rL7Cv5c2X7PW/gB1IOVfbmzxtb1n9hiXPbqbTVraKL6SnLP8AOsvr2jYW069xJRjFfF+h5bql/U1K+q3NTbjey8l0RXUNUu9Tqcd1VcscorZL4GGB3nYGONOuX51f5I6o5nsLHGkVH51WdMAIL2ap2VeT6Qf3EzaSy3hHM9rdcoUbGdnQqKdars+F+ygOAby231AAGbo9ZUNWtakuSqLPx2PWE8rK5M8aTw8o6nS+2de1oxo3dFV1FYU1LDx/MDvQcqu3Nn1t6y+wr+XNl+z1v4AdSDlX25s8bW9Z/YYlz26m01a2ii+kpyz/ADrL69o2FtOvcTUYxXLq/Q8t1O/qalfVbmps5vZeS6IrqGqXepVOO6quWOUVsl8DDA7zsDHGnXL86v8kdUc12FjjSJvzqM6UAUaTTT3TKgDzftVostNvZVqUX8mqvKf0X1RoT1+9s6N9bTt7iPFCS+w841zs/c6TVclF1Ldvw1EuXqBqaVSdGpGpTbjOLymujPTuz+s09Ws4vKVeCxOP8zy8mtLuvZV41rao6c49UB7ADkNN7b0pRUNQpSjL6dPdP4G5p9pdJqLa8in5NMDbA1FXtPpNJP/i4ya6RTNDqnbZyi6enUnFv/EqfgBte1OuR061lQoyzc1FhY+avM85by8vdl9atUuKsqtabnOTy5MsAHUdjtFd1cq9rw/M034M/OkYugdm6+p1I1a8ZU7Vc2+cvQ9EoUKdtRhRowUKcFhJASAAAAAAAAAAAAAAAAHk2s1O91e7muTqyX2PB6HrmtW+m2k/zkZV5JqEE98nmE5Oc3KTzKTy2BQupy4KkZeTTLQB7BaTU7SjNcpQi/wCBMc12U1yhcWMLWvUUK9JYXE8cSOkTTWU8gVAAAAAAAAAAA4r/ANQJrvLOHVKTOyqVIUYOdSSjFbttnmfabU46pqkqlN5pU1wQfmvP7QNQAAPWNGmp6TayXJ00Zxy3YzV6VWxVjVmo1aT8Cb9pHUgAAAAAGHqtlHUNPrW0vnx2fk+jPKK9GdvWnSqxcZwbUl7z2M5XtZ2ed5F3tnH89FeOK+cvxA4M67sJfqnWrWU3jj8cPXqclKLi2pJprmmSW1xUtbiFajLhnB5TA9hBqNE1+21ShHM1TuEvHBvr7jbgCC9uYWdpVr1HiMItklWrTowc6s4wiubk8HA9qu0K1CXyS0b+TxeZS+m/wA565rSuLipVk8ucmyMGw0fSLjVrmNOlFqCfjm+UUBuexGluveO+qR/N0ViHvkd6Y9jZ0rC1hb0I4hBfb7zIAAAAeW9paPca9dxxjim5/bv/ADPUjjO3OmSk4X9KOUlw1MfwYHGGy7PXKtdatqkmlHiw2/JmtCbTTWzQHswOR0LtfRdCFDUm4TgsKpzUl7zoYatYVI5jd0mvrYAzQYUdXsJ14UIXMJVajxGMd8maBbUhGrTlTmsxkmmvceU6zp89N1GrQkvCnmL80esGl7R6HHV7XMMRuae8JefuYHmZu+yd+rHWaam8U63gl8eX8TUXFCrbVpUq0HCcXhpkabTynhoD2YHM9mu0tK7oQtryahcRWFJ8p/1OlTTWU8oCpRtRTbeEhKSim5NJLqzke1PaWnGlKysJqU5bTqLkl5IDmu0F9/aGsXFaLzDi4Yei2NaCezs619cRo28HOcn06AZ/ZvTZalqtOLWaVN8c2enpJJJbJGt0PSKWkWapxw6st6k/NmzAAADA1nToanp1W3l7TWYPykuR5XXozt606VWLjODw0z2M5rtR2cWowd1aJK5it4/TX4gefE1pdVbK5p3FCXDUg8ojq050ajp1IuE47NNci0D1bRtWo6taRq02lNLxw6xZsDyKxv7jT66rWtRwkvsfqdnpvbW2qxjC/g6NTrKO8X+AHVAwKWs6dWipU7yk0/N4Lp6vp9NZld0l/wB2QM0Gjue1ulUE+GtKs/KEfxM3SNThq1o7inBwjxOKTe+wGeaLtbpn9oaW5045rUPFH3rqjelGk1h8gPGuQOo7VdnZ2lWV5ZwcqEnmcVzg/wADlwPROxd+rnSu4b/OUHjHu6HRHlGj6pV0m9jXp7x5Tj9JHpenana6lRVS3qJ55x6oDMAMe8vrexourc1Ywil1e7A13am+Vjo9bEsVKq4I+e55kbXtBrM9YvOPDjQhtTi/vZqgB33YnTHbWUrurHFSv7OekTQdmuz9TU68a1eLjaweW38/3I9FhGMIKEElGKwkuiAuAAA0/aufD2euv8ySX2o3BxnbbV6c6ULChNSfFxVGny8kBxgAA7vsDUTsbmHWM0zqzznshqtPTtQlTry4aNdcLfk+jPRYyjOKlFpp8mgKgAAAAAAAAAAAAAAAAAAAAAAAAAAAABHWn3dOUiQw76fswXqwMRb7vqXotRcSgKlCpAAAkCj5FSjK1Ma68jNPiRqq9Zyl4+Z0VWCmsM09/ZPhcoczDPHyjs4M5hl216qpMtnNSeTGm5QbUkW96c/hY9SZ41k5T5rJZK3oy34UmQqqVVb3k6s9IsxvtbXslNeDZmHO1qR5rPobDvx366l5nlGGfBhk1UqUl0ZWEZo2UqkGuSIpKL5I0nJb7jnvxv1WG0yezvK9rJ9zvnoyvcpvJIoKK2RNzMfj37TzvburhzqqPuiW0+OvVjDvJycnjmRMzNHjxXyfkivtpljjhi6ezpqhQjTzyRjVtPhUulV5enUsvqs4Uswlh5J7Ou501xPLJ3N6cOrJ5RmU48MUKijUxxdCqeYlkms4NGW1W0lhFF5lr2e4c9iNi5yySU8EMHmXuJM4K7SrNtPYslNpFs59TFqXVOLa4sv3Fc8pF8cbVl3GVXlLCNfOMaMGl1M91VUjmPIwK8J1Kyx7KOS9118e50tpx4lxNbF0kpYWNkScKiuEphGdrqglgvhHieEY/ilnOUSQfC0k8MaL6TyhKHNFMF05qXDDjy+pWcYrHCyuWOlcct+1qRekURejK1aiRUFUVVCmC7AwDatCMeJRfIvqRUZNLkRYXUvj4pYLb3NfalmrtVPcpLZlXHheGy2XMrOrpHtk273MtGDbvxGansep8e7xcfLNVdkcRYVXM6WCs48S25kGWnh7GWkR1UuqGjaOMsCck0OHyCprOck9m1FHO5ctufIryLJPI0ja7vCvFxRaZBJ4JKe4GuubSlVUoVIJ43j5nJXDcZyhKOMPB3N5DwqS2wcfrdPhvZNLCZnOstJvrbAabi5dC6lVq0pcUJ/DJE21tkuUuBNYTbNLJVZbO4yvlV1UWYxbXXCLY3so+FrcghdVKPsPBSVRzk6k1u+RTwn6aflyve2a7mbhhJp+ZAq80+pbGbltktqNZwn6sSMvK1dVrz58TwS0bucFHqsGGprO6yiqkumyL6TutnZXbnUcZvd7o2UZHNOWGuB4fVmbb99XwuJqK5sjS0yvpvEy+LMam8RSzyJosRap4sviyGLL0y6idMvTIoskQEiLosjReiUMu3nwyTNonlJmlpvc2lrPip46oJTgAAavtDTvKumSjp6k6/EscLSeDaADzirpPaSt+kp3Ev8A/KvxMb8mdZf/AOlP/VH8T1AAeX/kxrH7DP8A1R/EfkxrH7DP/VH8T1AAeX/kxrH7DP8A1R/EfkxrH7DP/VH8T1AAeYLsxrD/AP0pL/uj+JfHspq8uduo+skemADzqn2M1SfPuIfWm/wNhb9hJPDubxLzUIZ/idqANJZdlNMtGpOk60l1qPJuadOFKKjTjGEV0SwXAAAAMPVYV56bXja575x8GHh5OFq6T2lrfpKdxL//ACr8T0YAeYPszrLeXZTb+tH8Sn5Max+wz/1R/E9QAHl/5Max+wz/ANUfxKx7Na1B5jZ1ItdVOP4np4A86p6Z2mpLEIXCX71fid5p0asdPt43Ge+VOKnnnnG5kgAAAAAA5rtTb6vXr0HpaquCi+Pgklvtjmc3V0XtDX/S0a80+jqL8T0kAeX/AJMax+wz/wBUfxH5Max+wz/1R/E9QAHl/wCTGsfsM/8AVH8R+TGsfsM/9UfxPUAB5lT7Pa7SeadrVh9Wol/Mylp/aiKwo3H+5H8T0MAec1NK7S1VipTuGv3q/Exn2Z1lvLsptv8AzR/E9PAHl/5Max+wz/1R/EfkxrH7DP8A1R/E9QAHl/5Max+wz/1R/EfkxrH7DP8A1R/E9QAHl/5Max+wz/1R/EfkxrH7DP8A1R/E9QAHl/5Max+wz/1R/EfkxrH7DP8A1R/E9QAHl/5Max+wz/1R/EfkxrH7DP8A1R/E9QAGk7KWNxYaV3V1SdOpxt8Laf3GZrULmpplaNlxd+14eF4ZngDzmppXaWqsVKdw1+9X4mM+zOst5dlNv60fxPTwB5f+TGsfsM/9UfxH5Max+wz/ANUfxPUAB5f+TGsfsM/9UfxH5Max+wz/ANUfxPUAB5f+TGsfsM/9UfxH5Max+wz/ANUfxPUAB5f+TGsfsM/9UfxH5Max+wz/ANUfxPUAB5f+TGsfsM/9UfxH5Max+wz/ANUfxPUABpOyllcWGlKldU3TqcbfC2n9xuwAAAAFtSnCrBwqRUovmmsplwA5jU+xlrct1LObt5v5uMxf4HM3fZbVLVv8wqsV86m8npoA8fnZ3NNtTt6scecGROEo84teqPY5RjL2op+qLHb0Xzo03/2oDyBU5y5Qk/RE1Oxu6rSp21WTflBnrSt6K5Uqa/7UXqKj7KS9EB5tZ9k9UuWuOlGhF9aj/A6jS+yFlZtTuG7movNYivgdEAKRioRUYpJLkl0KgAAAAAAAAAAAAAAFlZSdGah7XC8ep59PTe09RYnC4a/eL8T0QAeYz7N61OXFOzqSfm5xf8y38mNY/YZ/6o/ieoADy/8AJjWP2Gf+qP4j8mNY/YZ/6o/ieoADzBdmdZTyrKaa6qUfxMmnpXaWksU6dwl+9X4nowAwdGhc09LoRveLv1Hx8Ty8mcAAAAAAADSdpY6rKhQ/sjj4+J8fA0tunM3YA85udK7S3axcUq9ReTqRx95i/kxrH7DP/VH8T1AAeX/kxrH7DP8A1R/EfkxrH7DP/VH8T1AAeYR7N61CSlGzqRa5NTiv5mwpW3aylFRgrhJf54v+Z34AjocfcU+89vhXF6kgAAAAAABpNY7M2ep5qJdxXfz4rn6o5C+7J6naSbhTVeHSUH/JnpQA8hlbXdvPLo1qcl14WjIhrOqUoqMbusl5M9UlCMvain6osdtQfOjT/wBCA8pr3V/e/palar7t2X22j6hdNKjaVH72sfeeqKhSj7NKC9IokSxyA4nTOxNSTU9RqqMf+XDdv1Z19pZ0LKiqVtTVOC6InAAAAAAALKtOFanKnUipQksNPqXgDidX7FzjKVXTZqUXv3UtmvRnNXGl31s8VrWrF/Vz9x62UaT5pMDxyVKpH2oSXqikYSk8Ri2/cj2F0KL50oP1iiit6CeVRpr0igPPOzGm3j1i2r/JqipQlmUmsJbM9IKJJLCWEVAAADXarolnqsMXEMVFyqR5o43UOxt/bScrVxuKfTG0vsPQwB5FV0+8t5YqW1WLX+Vk1LVNStY8NO5rQS6N/ierOKlzSfqiN29F86NN+sUB5XW1HUbtcNSvWqLyTf8AIsoabe3EsUrWrJ/VwesK3orlSpr0ii9JJbJL0A4HTuxd5XkpXs428PJbyOx03SrTS6XBbU0n1m+bM4AAAAAAAAAazVdBstVi++hw1OlSGzOQ1Dsbf27crVxuIdMbS+z+p6EAPI62nXlvLhq2tWL+q2Y8qc4+1CS9UextJ80n6ljt6L50qb9YoDx5QlL2Yt+iJqdldVWlTt6sm/KDPWlb0Fyo01/2okUYx9mKXogPNbPspql01xUlRj51H+B3Wh6Z/ZOnxtu87x8Tk5YxzNiAAAApKKlFxkk0+aZzWr9jra7cqtnL5PUe/DjMX+B0wA8vvOzep2jfFbucV86m8owYRu7WfFCNalJdUmj14slTpy9qEX6oDy1a3qqXD8srehj1JXl3Liqd9WfvTZ6x8mof8mn/AKEXRpU4+zTivRIDy+07P6ndtd3ayin86fhR0+k9i6VFxq6hNVZL/Dj7P29TrABbTpwpQUKcVGKWEktkXAADG1BV3Y1la57/AIfBjnkyQB59WtO1VeLjUjcNP/PFfzMF9mtZk8uym2+rnH8T08AeX/kxrH7DP/VH8R+TGsfsM/8AVH8T1AAeX/kxrH7DP/VH8TMt9O7T2seGhTrwXlxxf8z0QAars8tQjYY1Ti7/AIn7TWcfA2oAAAAAAAAAAAAAAAAAAAAAAAAAAAADV1pcdeUvgbGtLhpSfuNXHzAuRUoipKAqUKkAACQKMAre0xG8ohuJJU22jIZj3MOKmzDOZYy2NsLLZtz1/GMstI09RNS54N5dJJM09xvPYy4s7l7ehnhMZuIsvzKcT8y+lSc5YJnZzzz2NbZGM5NsdOXQuUZPqTStZxWVuiNpxeGmiNz6a42X7VjHHvL0i1cyRYXUra2iiRckvnFrqJciOVUjVLZEksZ8PI22iW7XHVaxnZGqsaUrq4UMeHqdTRhGlTUI7JGmMcfPydaikoKacZLKZWnTVLaKwikpJTSzzZPEnTk3UlOT68hNJyT8i1ywi1ybLqKVa0YLxSSRdSaqehhXFq688sybeLpQwym7tbU0yW1HZFuW3sUSzuyRIjSGPXUu7fDzNf3MV03NvUj4TC7pJtxeTDlnbo4stIWsRxjBDnxMnrtqJixbbZz306cFz5lrLsFsuRSN4hdVRk1LYntVGtPMtkvMiknNezsT05+HhiuSNZpXK3XS+tGEamIL4kam+8Ucc+ohHj5MrwZ580Uy97qZ60lW2zL0Rxz1eWS04qc8ZwZa3UW6naqRVIq48MmmVwZ3pG1AXJFcFUIpJ9CaMouOMYZa0U4c8pYfQ0wy0jKbXVIuOG3nJG3uXTm5c+hi06rnVax4UTryu4SXXbPt3mRmmLbx3TMk9H481i4uW9ql0Fllq3ZLFYR0xhVehZUwy+SeOZgXFKp3jkpNryJyup6JN1PFrOCRrYw6LaqY3+JmN4QxvlCzSmERyLnIskyyqNrLJoLCI4rJLwvBCUd3h0t1lHIa7Viq9OMV7KOvrp93g4nWoON9UUjOz+e02/xYGG/F5ktOVKnlzhxywWUoyxhvCYSzN8O/vL7ZomsSy/sJ4Qb2wZ+m6ZK5qd61mEfvKwanVcV7WXnOyCLWvlLuptSW5WnGFRNYln3C5hmtLdYTxnoRRcc+JtL3BK2pT7tbtZ8iziwthUll7LYuoUnWnwppepZZSG73NtbTjGmlExFbwgt5LJLVj3Eac4raRWomWq2VOWxPGRhW9RSimZEWTpbbJiySLMeMiWD3AniyWL2IEyWDJEqZcixFyJQlizOs6mJ46M18WZNCXDJMDbgpF5imVCQAAAAAAAAAAAAAAAAAAAAAAAAAAAAAAAAAAAAAAAAAAAAAAAAAAAAAAAAAAAAAAAAAAAAAAAAAAAAAAAAAAAAAAAAAAAAAAAAAAAAAAAAAAAAAAAAAAAAAAAAAAAAAAAAAAAAAAAAAAAAAAAAAAAAAAAAAAAAAAAAAAAAAAAAAAAAAAAAAAAAAAAAAAAAAAAAAAAAAAAAAAAAAAAAAAAAAAAAAAAAAAAAAAAAAAAAAAAAAAAAAAAAAAAAAAAAAAAAAAAAAAAAAAAABi308UlFc2zDjyK3ify1vLxhbFETBcgUKhAVKFSAABIoGChVKycuFGLWuIxT3L7mooRbZpLqs5ZecIzyy0vixtRr4bx1NVCp48snuanHBp+ZBFYh6lMcJi1z57lNMq0f571NvCnmJpaEuCcX1N5RlmKMuX2xwqkqawlgp3FOaxKKJ3ui3kYdtpkwKumwzmMmvca+4oToTxLl0Zu5TS5mJd4qQ4eZrhlftrjyVqiaja1bjalTlL0RvNO02l8nTrU02/M29vTVGOIRUUvcbybRlzSemq03TZ2tPinF8bMqrxpeGLfwM2U5SeESQiscsstJNue5291rKFvUcuOe3uMpmROO3kWxoZWcjSu0UIybyzIjFY3Q7vCLXPhRM6QsqpJ7FIrKMStCvO4TjJ8HkZtJYjh8ysy3VrjqbXJEiQUSys5xj4FuTeu0TtbWzwvBi0k3nZr1JeKb55yXpNx35nLlfOtp/GMSrTymY3c92tsv1NlKBDKBlljWuOemFgjnlJtLLMipDhfuImsbmM6rrl3GNGrJz4GsJk9Gai5LO7RSNPiny3ZeuFLDSya2/cL60pSUoN4awSpZLYokSMcsrU9QSL45TTXMokXoz2i1c23u+ZVIIqit7UXKJXBRMuhhyXFyCKnoW/EuKS5lK9vGCcs48kZUJwUMp7Iwq9V1Z56Lkdecwww/tjjcrkip0u8eHyIKFp3Tk5S4m2bGkuGk2+b5EbiRjhrH/ALTc7tWjHBOWU0SpHfx46xcmd3SKJZSUUi1IT3RtOlFiuKcp8KluXNJmvqU5Rm3BZfkZtCUpU05rEimGdtssWyxkm4hqQ4aiaJnvAT3eCxtqOMmvpRZKaiVj4uZG4ylImpwxzICMcdCWPIJoq2orIGNeTUYNvkt2cJcVPld/Ock+Hi6bnVazdxp0ZRbw5bI5OrXgsQprC6vzM5d1XK/TIdvCbm+8jTjFZw3uyCVaNOkoU113fmYzqvLwR8bZbSsjaWep1LRSVNYUluRw1HuISVPHHLnLBrpN9WWFtJ8WZUpyhh1VniWURtRcMxiXQk5QjxPOCjqJPCSwErZuLppKOJLqW0k888ZKxk5t7bF1SLjJcSa2JElSPCs8SfoJyfcxfv2Ik8LdZQqVHNJckgNjaTzBGbGRrbOWzRnQYGTFksGQRZLFhLIiySLIYMlQE6L0RQZIiReiam9yBEsHuSNxby4qS9xKYllLwtGWQkAAAAAAAAAAAAAAAAAAAGLeajaWLirq4hScnhKT3ZkQnGpBThJSi9009mBcAAAAAAAAAAAAAAw56pZQu1ayuaarP5rksmYAAAAAAAAAAAAAo2km28JdQKgxLbU7K7rTpW9zTqVIc4xkZYAAAAAAAAAAAACOvXpW9J1K1SNOEecpPCAkBj2d7bX1PvLWtCrHrwvkZAAAAAAAAAAAAADGvL+1sYKd1WhST5cT5gZILKVWnXpxqUpxnCW6lF5TLwAAAAAAAAAAAAGJX1OytriNCtc04VZcouSAywFvyAAAAAAAAAAAAADEpanZVrmVvSuacq0ecVJZAywAAAAAAAAAAAAAFtSpClBzqSUIRWXJvCRBZ6ha3yk7WvCrw8+F8gMkAAAAAAAAAAAAABBd3lvZUu9uasaUPOTxkut7ildUlVoVI1IPlKLygJQAAAAAAAAAAAAAGJdalZ2dSELm4p05z5KUsMyoyUoqUWmnumuoFQAAAAAAAAAAAAAGH/all8r+S/KaXffQ4ln09TMAAAAAAAAAAAAAUlJQi5SaUVu2+gFQYlpqVneznC2uKdSUHhqMsmWAAAAAAAAAAAAAiuLija0nVuKkacFzlJ4QEoILS8t72kqttVjUg+sXknAAAAAAAAAAAAAYt5qFpYqLuq8KXE8LifMDKBbTqQqwU6clOEllNPKZcAAAAAAAAAAAAAAAAAAAAAAAAAAAAAAAAAAAAAAAAAAAGtvF/wAT8CMmvF/xHwIiUCKlCoAqUBAqUKlAKMoypbN4i2QNdfzy+E0t5LEWbG7nxTcjV3LymcmV3k0nprZvihn3l3DmCxyRa9pNY2L4SXA0bxnUbcoy3fobWxuoygoye5hqiq9LbmjGcJ0J7526lLJl0S6dLGaa5lspGloahOG0t0Zkb6nNe0jG4WNJdpqk8mPGcY1Yye6TLZ14vqiCU0+qJmK23X2rUqcZeaJKlTojR2GqQVNU5vDRn/KoSaallG8vSjMjLBk08RjlGF3kWlhk9KonHGS0qFajyySm8QIJPcuUsIiexPlN4LaiTWCNTwVcuJE7CUUolizkub3QnsRoSx5FWtiJSLnLYX0lbJJFkakJPEXkhu6jjFJJvL6GJSrSjUaSWfuOTLLVb44eUbJojlEuoTdSDb5l8kX1ubU9XTDqQyjElHDwbGaMGvGUamUsowzwdHHnfTFqPh6uLXUmoqNNScmm3/Ex5Z45Zzv0MqlKM6OMJSRX1OnRe/ZEkUSJMvUmc9XSZwVT3LEy+DSknJZXkVVq7JXJfOpCSxGmo+8jIykisXZKookVRQquXjGSSlDjljoWEtLK5F+ObvamV1Es+aS5Ise25fgpODlFpcz0PG1zbR0a3HLCxgzI4xlmHa0JR3msGS5pdTfi3r+TPk1vpK5be4iqTSRa6qMatV35m22SVSy8l6nl4Rhd4+hkW8nnfmJRLOXDsiPeSz0K1YSTZfDDXCyRbTeGTuOVsUVDw7ckXQXDz5EwW4xzMS6u4U6c5N+GKyye5rRimkzkNZv3Xbt6G8M+JrqZ5Xd1E+u612o38764lPOILZIxocEee7JI2834YweWUdtKD8bUWveXmoptGuFSbZVxUo7JkjhSju5cT9xcpwS2p5XqNo2xOpLTo95snuXVYU5JuMXGfVCg3CSb2JtTvpMrGfDtLDIHGcfDOPLqbGV0u7zHmRUKjnl4Ti3jBSWq7rAjmLbTL4tPxVG5eSLrqjwVXw7JmPvyLy7WTQTm+FbItaxvgrCo4tqPVF6m3ScNueWSJrTbLfUzoMw6GyMlTUVlgZcWSxZg293CrNxT3M2LCU8HuTIx4GQuQEsGSIhiTRJF6JIsiRJEDYWUsT9UZ5rLR/nImzCQAADz3Wu0d1/bUqllXcKdLwRS5S89jqu0+pf2dpNRxeKtXwQ+PN/Zk8xbbeXzYHeaT2yoXHDSv0qM+XH81/gdRTqQqwU6clKL3TTymeNmw0zWr3S55t6r4OtOW8X8APVgc9pPayzvuGncNW9Z9JPwv0Z0CaaynlAVAAAEdatToU3UrTjCC5uTwjldW7aU6fFS06PeS5d5Ll8AOnu7y3sqLq3NWNOC6t8zjtW7aVKnFS02PBHl3kufwOYvL24vqzq3VWVST83y9CACStXq3FR1K05Tm+bk8mbpeuXuly/MVW6fWnLdM1wA9H0jtXZ3/DTrNW9Z9JPZ+jN8nlZR40bnSe0t9puIcffUV8ybzj0A9NBqdK7Q2WqJRpz7ut/y5c/h5m2AAAADGvb+2sKTqXVWNOPve7ON1ftnWrcVLToulDl3j9p/gB1mp6xZ6XT4rmqlLpBbyfwOK1btdeXvFTts29F+XtP4nP1Kk61RzqzlOct3KTy2WgVcm5cTbb8zeaT2pvdO4adSXf0F82XNejNEAPU9K16y1SKVGoo1etOWzNmeNRlKElKLcZLdNdDpdJ7YXVrw071O4pcuJ+0vxA9ABh6fqlpqVPjtaql5x6r4GYAAAAGt1TW7LS4Pv6qdTpTju2cVq3au91Dip0W7ei+kXu/Vgdbq3aWy0zMONVq6+ZB5x6+RxOq9ob7VG4zqd3R6U4bL4+ZqXvzAF1OpOlNTpycZLdNPc6fSe2Vxb8NO/XfU+XGvaX4nLAD1yx1G11Gl3lrVjNdUnuvVGUePW1zWtKqq29SVOa5OLwddpHbT2aWpR93exX3oDswQ21zRu6Sq29SNSD5OLyTAAAAKSlGEXKTSS5tmj1ftRZadxU6clXrr5sXsvVnE6rr17qkmq1RxpdKcdl/UDrdX7YW1rxU7LFxVXzl7K/E4vUNUu9Sqcd1WlPyjyS+BhgCe0vLiyqqrbVZU5rqmdfpHbSMuGlqUeF8u9itvijiQB7FQr0rmlGrQqRqQlylF5RIeS6fql3ptTjta0oecc7P1R2ekdsLa64ad6lQq8uL5r/ADpwWwlGcVKDUovk0XAAC2c404OdSSjFbtt8gLiK4uaNrSdW4qRpwXNyeDm9X7ZULfipWCVapy437K/E4y/wBRutRq95dVpTfRN7L0QHU6t209qlpkfd3sl9yORubqvd1XVuKsqk31k8kQAztN1e80ypxW1VqPWD3T+B2mkdrrS84ad3i3q+bfhfxPPQB7KmpJOLynyaKnl2ldoL7S2o06jqUf+XN5Xw8jt9J7TWWpcMHLua7+ZN8/QDdAAAAQXV3Qs6Tq3NWNOC6yYE5h6hqdpptLjuqsYeUer9Ecrq/bScuKlpseFcu9kt/gjk69erc1XUr1JVJvnKTywOi1btjc3XFTsU7en9L5z/A5qU5Tk5Tk5Se7bKADcaT2kvtMxBT72iv8OfT0O30ntHZaolGM+6rP/Dm8P4eZ5gE2nlPDA9mB51pPa28seGnct3FFbeJ+JfE7XTdZs9Thm2qri6we0l8ANgAAABg6jq1nplPiuaqUukFzfwAzjU6r2gstLTjUqcdbpThu/j5HJat2vu7zip2mbek9sr2n8TnZScm3Jtt82wNzq3aa+1LMFPuaL+ZB8/U00ZSjJSi2mt8ooAOk0ntfdWnDTvM3FJdX7S+J2unatZ6nT4rWqpPrF818DyYvo1qlCoqlGcqc48pReGgPYwcPpPbSpT4aWpR7yPLvIrdep2Fne299SVW2qxqRfk+QGQAAABp9W7R2WmJxc1VrL/Dg/v8AIDbtpLLeEjntX7W2djxU7Zq4rL6L8K9Wclq3aO+1NuEpulR/5cHhfHzNQBn6nrN5qk83FV8HSC2ijEoXFW2qqpQqSpzXJxeCMAdjpPbSUeGlqUcrl3sV96OvtbqheUlVt6sakH1i8nj5k2V/c6fVVS1rSpy64ez9UB66Dk9I7Z0a3DS1GKpT5d4vZfr5HU06sK0FOlNTi9008pgXgAACkpKMXKTSS6s5vV+19rZ8VOzxcVV1XsoDoq1anQpupWnGEI83J4SOU1ftpTp8VLTo95Ll3kuXwOU1HVrzU6nFdVpSXSCeIr4GEBkXl7cX1V1bmrKpJ+b5F9hqV3p1XvLWtKHmuj9UYgA77SO2Nvc8NK/SoVOXH81/gdNCcakVKElKL3TT5njZsdL1y90uS7iq3T605bxYHqoNBpHaqz1Dhp1mqFZ/Nk9n6M3yeVlAVAAAEVxcUrak6lepGnBc3J4OT1ftoo8VLTY5fLvZL7kB1F7f21hSdS6qxpx6Ze79DjdW7Z1q3FS0+PdQ5d4/af4HNXV1XvKrq3NWVSb6yeSEC6rVnWqOpVm5zby23ls2Wla/faW0qVRzpdact1/Q1YA9K0jtPZaliE5KhXfzJPn6M3h4yb3Se1N7p3DTqSdegvmze69GB6SDWaXrtlqkUqNRRq43py2ZswAAAAxL/UrXTqXeXVWMF0XV+iOM1btlcXPFTsE6FPlx/Of4AdZqmt2Wlwff1U6mNqcd5M4rVu1d7f8AFTot29F9Ivd+rNDOcqk3KcnKT3bby2UArxPOcvPmb7Se1d7YcNOu3cUV0lzXozQAD1XTNastUhm3qrjxvTltJGxPG6c505qdOTjJbpp4aOn0ntlcW/DSv131Plx/OX4gd6DFsdRtdQpd5a1YzXVZ3XqZQAAAAavVdfstLi1VqKdXpTjuzidW7UXuo8UISdCi/mQeG/Vgdbq/aiy07ip05KvXXzYvZerOJ1TXr3VJNVqjjS6U47I1gAvpValGoqlKcoTW6aeGdTpPbOtS4aWox72HLvF7S9fM5MAeu2V9bX9JVbWrGpH3Pdepknj9rd17KsqttVlTmusWdhpHbSM+GlqUeF8u9itvigOwBHQr0rikqlGpGcJcnF5JAABRvCy9gKls5xpwc5yUYrdtvZGh1btXZ2HFToNXFZdIvZerOK1PW73VJ/8AEVX3fSnHaK+AHWav2yoW/FSsEq9T6fzV+Jxt/qV1qNXvLqtKb6LovRGIAMizvrmxqqra1ZU5e58zsNI7aU6vDS1GKpy5d5Hk/U4cAex0qtOvTVSlOM4S3UovKZeeTadq15plTitasorrB7xfwO10jtfa3nDTu8W9Z7Zfsv4gdICkZKSTi00+TRUAAWVasKNNzqzUIR3bbwkBeQ3V3Qs6Tq3NWNOC6yeDmdX7Z0qPFS06Kqz5d4/ZXp5nHXt/c39V1LqrKpLpl7L0A6fVu2kpcVLTY8K5d7Jb/BHJ17irc1XUr1JVJvm5PJGANhpmtXulzzb1XwdYPeLO10jtZZ33DTuGres+kn4X6M86AHsqaayip5hpPaO+0xqEZurRX+HN5S9PI7fSe0dlqaUYz7qs/wDDm9/h5gbgAAACC7vLeypOrc1Y04Lq2BOYeoapaabS47qtGHlHq/RHKat20nPipabHgjy7yS3+COUr16txVdSvUlUnLnKTywOj1btjc3PFTsU6FP6Xzn+BvOx2qyvrGVCtNyrUere7R54bLs/qL0zVKVZv823wz9GB6oCkWpRTXJ7lQAAAAAAAAAAAAAAAAAAAAAAAAAAA195+n+BETXn6f4EJKBFShVEAVKFQKBgslUSAqQ3EuGmytSsowclu+hrZKtVk5zlt0Rjyckx6aYYeXaGtumau42bNrXTUctGoupp5SObG7qbNMTaUsEUk6c2nyL4vEzMjaSr087e46JdKWMSnWlTeYsyVc0qscTwn7zAq05UpuD6Efi8i1xlVZlW3p84TSz7zHVN59qO3vI92VSfkTIL1LGVs8lOZY00XQaXNk6Quxts2X061an7E2hCpCKkms5RRcDX9SDtmUtSrYjCSbk3hNM6qxtXGjFynKUms7s4lSiqsGsrEkd9ZyUqMGuWCPGLSrnSa6lkoVFyZljZi4Sp2wuKS5oKaZkSgn0EaUX0K+NhtBKeyEqq4GupfXpRiueDWVavBLdi2xaTbNjV2JFUTNW7lJbMrG8XmV8ulvFtMKRDGzoqTlw7t55kVK6i+pkKqmtiupU9xPFKMcJYRSRGqhXiyNoWzRFJZ5krZGzLJeMOtRfFxQxkjdPbxJGbIjkkzCx0YZ2MYuRc4eRThZlY6JlKqmXpkeGXLJWwSovRHFN9CWMJFPG1S2KoqlkvjSfUlVPHQvjxWs7nIjjAmSwVjF52XIkksvLaydnHw6jnyz2tiskqRRNIjq1Gl4WdeOMxjG3a6ecbbe9mLNpN4bYfHJ7yyWzTXNEW7QjlOT5FjT5yE5yXsxLaVGtOXFUePJIQTU8eWDKox8SZDGkkjJprhRpEVfVw1hFKdPG7LsIpKoordk1CRS4NzFvLuFOLc5KC9TW6nrdO1g0mpT6JHJ3N7WvavFXm35Loitty9Hps9U1p1G6Vu8x6y8zSzuJ9Fj0J40k1sXqgnzRE1ipbtgOpJ9WFN53ZmVLLKyjDq0Z0n4lt5l5ZSaqRJNZ4kSRnww4dtzFWXyLouXmTo0mb8blnMi5PbilHMSKSlLfPP3FsuJeYNJ3JPeMXEzLC2lWqZxhLqa2lxTmk5NHR28e5pU4xypc8+ZTK6Vy6a7UKWM8Jq5rHM6K8jxJrCRpq1KOPa38iML9JxrFi9yq2lsw4Y5F8IZ3k8Gu12TRl4csguK7m+GL2I51H7MXsTWlDjlxS5ATWFs+JVJZXkbiBj0lhbE8QMiC8OSaL2I6O8ZIugwJUTRIUSxCUiL4liL4koZNB+JG2XI1FD2kbdckEqgACG5taF3RdK4pRqQfSSychq3Ytriq6bLK591J/cztQB49cW9a1qOnXpypzXNSWCI9bv9NtdRpOndUYzXR9V6M4zVuxtxbcVSwbr0/oP2l+IHLm30ntHfaW1GM+9or/Dnul6eRqqlOdKbhUi4yXNNFoHpul9pbHUYpcao1esJvH2GJq3a+1s+KnZ4uKq6r2UeegDN1HVbzU6nFdVXJdILaK+BhAltrWvd1VTt6cqk30igIjJstPutQqqna0ZTfVpbI6nSexWeGrqU/f3UX97OvtrajaUlSt6cacF0isActp3YmjGk3f1JTqNbRg8KJqdW7I3dlmpa5uKK8l4l8D0QAeNSi4tqSaa6Moeoar2fsdUTlUp93W6VIbP4+ZxOq9mL7TnKcY99RXz4Ll6oDSptNNPDXJo6PSO113ZcNO6zcUV5vxL4nOPbmAPU7TXtOu7Z143EIxisyU3hxNDq/bRR4qWmxy+XeyX3I4oATXV1XvKzq3NWVSb6yeSEGZp+l3epVOC1pOS6y6L4gYZstM0O91SS7mk40+tSSwkdbpHY62teGrevv6q34fmr8TpYxjCKjCKjFbJJYSA5eHYi0Vo4TrTdd/4i5L4HM6r2dvtMblKm6lHpUgsr4nqBRpNNNZT6MDxoHomr9krO+4qlt/w9Z/R9l/A4vUtFvdMni4pPg6TjumBhUa9W3qqpRqSpzjylF4Z1mkdtJw4aWpR41y72K3+KOQAHqtTXdOp2quXdQdN8sPLfwOS1ftjcXPFSsE6FN7cfzn+By4ArOcqknKcnKT3bby2UBttK7PX2ptOFN06XWpNbAalJt4Syze6T2WvdQ4alSLoUX86S3fojr9J7M2Om4m49/W+nNZx6I3QHJ3nYi2lbxVpVlCtFbuTypHJahpV5ptRwuaMorpJLZ/E9ZLK1GnXpunWhGcHzjJZQHjgO41bsXTqcVXTZd3Ln3cns/Q4+8sbmxqunc0pU5LzXMC6x1C60+r3lrWlTfVJ7P1R2WkdsqFxw0tQSo1OXGvZf4HBgD1DUe0Wn6fT4pVVUm1mMIPLZxWr9p73UuKnGToUH8yDw36s0gAArGLk8RTbfRHQaT2SvL3hqXObei/P2mBoKdOdWahTi5yfJJZOn0nsbXuOGpfydGHPgXtP8DrdM0ay0uni2pLj6zlvJ/E2AHGar2KSTqabN/u5v7mclc2te0quncUpU5rpJYPYDGvbC21Ci6V1SjUj0yt16MDyIHV6t2MrUc1NPk6sP+XL2l+Jy9WlUo1HCrCUJLmmgM/S9dvdLklQquVLrTlvH+h2+k9qbLUFGFWSoVn82T2fozzYAejat2ss7DNOg1cVl0i9l6s4nVNavdUn/wARVfd52px2ivga8AASUaFW4qKnRpynN8lFHVaT2LqVOGpqU3Tjz7uL3fqwOYtLO4vaqp21KVST8kddpfYmCjx6lUbk1+jg+XxOps7K3saSpWtKNOK8lz9fMyAOA1bsdc2vFUsW69P6Pzl+JzU4SpycZxcZLmmj2Q1uqaJZarB9/SSqdKkdpL8QPKxyN/q3ZS9sOKdFfKKK6xW69UaBpp4aw10YG+0jtVe6fw060ncUF82T3XoztLDtBp99RdSFeNNxWZRm8NHloA7rV+2dKjxUtOiqs+XeS5L08zjb2+ub+s6t1VlUl0y9l6GOAAMmy0+6v6qp2tGU35rkjsdJ7GUaPDV1CXezW/dr2V6+YHJ6do95qdRRtqTces3sl8TrbbsRaxtnG5rTlWa9qOyj6I6inThRgoUoRhBcoxWEi8DzTVuzF7prc4xdeivnwXL1RpHtzPZjRav2WstRzUpxVCu/nQWE/VAebF1OpOlNTpycJrdOLw0bLVNAvtMk3VpudPpUjujVgdXpHbOtR4aWoLvocu8XtL18zqlrmnO0+U/Kod36758sHlQA63V+2dWrxUtOj3ceXeSW79PI5WrVqVqjqVZynOXOUnlssAAGy0zQ77U5LuKTVPrOWyR2ukdlLLT8VKyVxWXWa2XogOR0rs1fak1Lg7mj9Oa+46Kt2ItXaqNGtONdfPlun8DqksLCKgeU6lot7pk2rik+DpOO6Zrz2ScIVIOFSMZxfNSWUzl9X7G29xxVbB9zU58D9l/gBwZPaXlxZVlVtqsqc11T5kl9pt3p1RwuqMoPo+j+JiAdvpHbSFThpalFQly7yK2fqjeXuv6fZUFVncRnxLMYweXI8sAHQav2svL/AIqdu3b0X0i/E/VnPttvL3YCTbwllgCsYynJRgnJvkkbzSey17qGJ1I9xRfzpc36I7XStBstKinRpqVXrUnu/wCgHJaT2PurvhqXjdvSfT5z/A2OpdiabhxadUcZpexN5T+J2AA8hvLG5sarp3NKVOS81zMc9gurSheUnSuaUakH0kjj9W7FyhxVdNnxLn3Unv8ABgceZ+maxeaXPNtVaj1g94v4GJcW9a2qOnXpypzXNSRGB6JpPa20veGnc4t6z834X8SfVu09jpycIyVet9CD5erPNABtNV1++1RtVanBS6U4bL4+ZqwXU6c6s1CnFyk+SSAtJbe2rXVVU6FOVSb6RWTpNJ7G17jhqX8nRp/QXtP8Ds7DTrXTqSp2tGMF1eN36sDlNK7FOSVTUptf/HB/eyHVuxlajxVdPk6sOfdv2l6eZ3YA8cq0qlGbhVhKElzTWCw9Y1LSLPVKfDc0k5dJraS+JxWrdkLuz4qlpm4pLovaQHOG60ntNe6ZiDn31BfMm849GaaUZQk4yTTXNMoB6fpnaOw1GGY1VSqJZcJvDRrtW7Y29txU7FKvU+l81ficCAMu/wBSu9Rq95dVpTfRdF6IxAT2lncXtVU7alKpJ+SAgMuw0y71GooWtGUvOWNl8Tq9J7Fwjw1dSnxPn3UXt8WdZQoUrekqdGnGnBcoxWEBy1l2It40H8tqynVktuB4UTS6t2UvLDNSincUV1it16o9HAHjLTTw1h+TB6bq3Zux1NObh3Nb/mQ2z6rqcTqvZy+0xuUod7RXz4L7wNTGUoSUotxkt0090dLpHbC5teGlep3FJbcXzl+JzIA9Uoa7p1e1dxG5goRW/E8NfA5zV+2jfFS0yOOneyX3I44ASXFxVuarq16kqk3zlJ5ZGDO07SLzU58NtSbj1m9kgME2ml9n77U5J06bhS61JLCOu0jshaWfDVu/+IrLo/ZXwOjSUUlFJJckgOW/Ii0+ScHfT+Uc+86fYcvqmgX2mSbq03Ol0qRWUepFJRUouMkmnzT6geNA9B1fsha3nFVtP+HqvfC9l/DocZqOk3mm1OG5otLpJbpgY1vc1rWqqtvUlTmuTi8HXaR209mlqcfd3sV96OMAHqlxr2nW9sriVzCUJLwqLy2chq/bC6u+KnZ5t6T6r2n8ehzQArKTlJyk229231KA3Oldmr7UmpcHc0X8+a+5AadJyeEm35I3+k9k7y+4alwnb0X1kvE/gdfpPZyx0tKUYd7W/wCZPd/DyNuByV/2IoSop2NWUKkVupvKkcjf6bd6dVcLqjKHk8bP0Z62RV7elc0nTr041IPmpLIHjwO01bsVF8VXTZ4fPupPb4M5G6tK9nVdO5pSpzXRoCXT9Tu9Nq8drWlDzj0fqjtNI7YW11w071KhVe3F81/gcAAPTtT7SWGnQ3qKrUa2hB5OJ1btJfanmDm6VB/4cHjPr5mnAAFYxlOSjFOTfJI6PSex91d4qXjdvS8vnMDnqVGpXqKFGEpzfJRWTqdJ7GVa3DU1GTpR593Hm/U6zTdJs9Mp8NrSUX1m95P4mcBxWrdinHiqabPK591J/czk7i3rWtR069OVOa5qSwewmJf6ba6jSdO6oxmuj6r0YHkgOp1bsbcW+alhJ16f0H7S/E5ipTnSm4VIuMlzTQGz0rtBe6W1GlUc6PWnPdfDyO20rtPY6ilGU1QrdYTfP0Z5oAPRNW7XWllxU7XFxWXk/CvicTqWr3mqVOK5qtxztBbRXwMEAAS29vWuqip0Kcqk3yUUdXpPYuUuGrqU+Fc+6i9/iwOXs7G5vqqp2tGVST8lsjr9N7E01T4tRqOU2vYg8JfE6m1tKFnSVK2pRpwXSKJgPPdX7IXVnxVLTNxSXRe0jnJRlCTjJNNdGeymq1XQLLVYt1afBV6VIbP4+YHlwTaeVszd6t2YvdObnGPf0V8+K5eqNJjDwwOh0jtZeWPDTuG7iivpPxL4nZWWv6feUHVhcRhwrMozeHE8sAHcat20p0+KlpseOXLvJcl6HHXl5cX1Z1bqrKpP3vl6EAAAyrHTrrUKqp2tGU31fRHZaR2Nt7fhq3776ot+D5q/EDlNM0S91SaVCk1DrUlskdtpHZSz0/hqVkrisuslsvRG9hCNOChCKjFcklhIuAcgAAAAAAAAAAAAAAAAAAAAAAAAAAAAGvvP0/wISa8/T/AhCFQgAKlSgAo+Rq72rKEsI2prtSo5jxIrfSYiozc4YkTwia22qtbPmjaUZqSRxXvLt0eo12qz7mOWnh7HO16rc8I6rVqHe20klulk5CWXJo2wkjHL2sbbecmZ/aVRUFTiksLGUY8aOebMiFtDGcZL3KK6YizKTb3bEk8mbinDoi2VWn5IjyPFiKEn0ZfGnLqibv4eaEHKrLFOLY8qeKJ03jfBG4pPczpWtWnHiml9pLSpQnBvgTfvHmXHTWNUeB8Tal0wuZCkzPuLeKfhRjqm4vdbepeZbVQ4eTstBvO+tYxl7UdmctGMHzeDYaXcQt7nEZZUkLVo7LjRVSNarrKyi6F2uTY2nTPlJIQqp7Gur31OlHDknJ8lndmquNVrQi1FQi5bYzyJtTMdtrqtSpGk5Rnwmilcze02m2YE7irN+KrOW/LLZbJPaUnw58zOzdb44yRmyqvpks75rzMTvmnhNv3tl3ylrZpEeKdMtXco8myajqk1NKUXjzMGNWnNZk8P0LJSTeFL+RHitJ+3S0rxSSzJbmTGrlHLQUscWeXxL5X1wlwxeF7mU8aXGfTqOJlk61OHtVIr4nNPUrh03TnOSXpzIJTWMvxP1HgiYurlNKPFlcPmaq71dUq3BTippc2aiV3WlT7vi8C5RInLPMTin2tOm6p61FtcdPC9zNhSvKFVJxmvRnK5RcpYe2SuXDPppLK61ShL2WmXwjl7I5ihdVaTzGR02l13c2/FJJSTxsZ/h7M/4zcZNOn5kySykolsdmTxXI2x4pHLlns4MFcPzKz5FIRy92a+MZ+S18Ra2+pLUcYLdmJVrxXJiyQl2mUhhP3mLC4i5bsnV3QjzmvtIlhYmjD3FWl1IJ39NQk6fieNkaha3XzLvaHDjy3LeURqt1KKW+EW5ilk56eu3MsYtmqbeOLJrbzV7qVRxzwY8iZbUXp107ujTb4pJYIJaxaxz+cWTiXcTlLNSUpZ82SQqxS5c/PcnVV267+2IVF+bkpehj3NzOtSlCEnFyXtLmjn6cpJ8VKXBL7zIp6p82tDDXzolfH9m2Hc2lenNuWaifUx5JY32Z0FCvTuJYhNP3FtzptGvvjgl9JF9oaSlVnDfDaM6hcUqmE2skFfSLik8wlxx93Mw5Up03icWvUrcZUWN6oRxlPY1F/WVWpwwfhiWqtPu3HvXwvmmRS4IrnkjDDVRJpbEkTIXLIRrpbTJSyZFKk6q3p8W2NjFjnCal8CZVeDDabS6oqrUVSMqVXDjwmxoXU+KMZST229xjVKirxy2n95SdOnTpppOUmtitm0XtsXVdTbojWX0OCrxRzwyFCcqcuLPwMpxdxw8ceGK3KyeNRL4tWst+ZJGjUl81o2vBRhDCSTXLC5lHVi6fCoLi+kybmef6a+lYVJSWcfAzO67lY8uhLGvNQ4eLZPPIgi5VJNtiZWpltZFGXEZMSGlBRWxNEvF4yKEsSL48yKnsSxLJTRJIkcehLHmEpEXrmWIvRKGRQ9pG3jyRqKHtI28fZQSqAAAAAAADXapollqkH8opJVOlSO0kcTq3ZS8sOKpR/4iiusVuvVHo4A8ZaaeGsP3l9KlUrTUKUHOT5JI9L1Ts3Yal4pQ7mr9Ontn1Rk6bo9lpkErakuLrOW8n8QOS0nsZXr8NTUJdzDnwR9p/gdlY6fa6fSVO1oxprq0t36sygAAAAAAAABotX7LWWo5nSj8nrP50Fs/VHE6poN9pkm6tPjp9KkN0eplJRjOLjOKlF801lMDxontLK4vaqp21KVST8kegXfZHTbm5jWUZUlnMoQe0vwNxaWVvZUlTtaMacV5Ln8QOX0nsXCHDV1KfHLn3cXt8WdXRoUremqdGnGnBcoxWESAAAAAAAFtSnCrBwqRjOL2aksplwA5XV+xtC44quny7mpz4H7L/A42+02606o4XVKUPJ9GeuEVxbUbqk6dxSjUg+klkDx4z9N0a91OaVvSfD1nLZI7el2P0yndus4zlDmqTl4V/M3tOnClBQpQjCC5KKwkBz+kdkbSy4al1/xNZfSXhXwOiSUUkkklySKgAAAAAAEF3Z297SdK5pRqQfSS5ehOAOI1bsXOHFV02fFHn3Unv8ABnKV7erbVHTr05U5rmpI9iMO/wBMtNRpuF1RjPylya+IHkputK7M32pNTce5ov5819yOw03stp9hUdRwdeefC6m/D8DdpYWEBqtJ7PWOlpShDvK3/Mnu/h5G2AAAAAAABg6lpFnqdPhuaScuk1tJfEzgB55q3ZC7s+Kpav5RRXRe0jnZRlCTjJNNc0z2U1Wq9n7HVIt1afd1elSGz/qB5fCEqklGEXKT5JI6XSex11d8NS9fyek/m/Of4HW6XoVjpcV3NJSqdak95f0NmBhadpdpptPgtaMYvrLnJ/EzQAAAAAAAabVuzdjqac+Dua3/ADIbZ9V1NyAPMNV7OX2mNylDvaP04fzNQeytKSaaTT5pmj1Dsnp17WVVRlQlnMlT2UvgB53bWta7qqnb05VJvokdbpPYrPDV1Ke3PuoP72dVY6fa6fSVO1oxprq1zfqzKAhtrWhaUlSt6UacF0iiYAAAAAAApKMZxcZJSi+aa5nN6v2Ptbviq2f/AA9V74Xsv4dDpQB5NqOk3mm1OG5pNLpJbpmEex1qNOvTdOtCM4PmpLKNC+x2mu87/E1Dn3XF4c/eBw2n6Xd6lU4LWk5ecui+J2ekdjra14at8+/qrfh+avxOjoUKVvTVOhTjTguSisEgFsIRpxUYRUYrkksJFwAAAAAABFcW9G6pOnXpxqQfSSyclq3YpPiq6ZPHXupvb4M7IAeP3VpXs6rp3NKVOa6NEJ67e2Ftf0nTuqMakfet16M1Vj2S06zuJVZRlW3zGNR5UfxA4zS+z19qbTp0+7pdak9kdtpPZix03E5R7+v9Oe+PRG6jFRioxSSXJLoVAAAAAAAAAxL/AE201GlwXVGM/KXJr4nGat2NuLbiqWMnXp/RftL8TvgB43UpzpTcKkXGS5prBSMXJpRTbfRHqmp6JZapBq4pJT6VI7SRDpXZ2x0xKUKfe1f+ZU3fwA5HSeyV5fcNS4/4ei/P2n8DtdM0ay0uCVvSXH1qS3k/ibAAAAAAAAAAarVez9jqkW6lPgq9KkNn/U4nVuzF7p2Zxj39FfOgt16o9LAHjLWHhklGhVuKip0YSnN8lFHo+p9l9P1GanwOhUzvKntn4Gdp+lWem01C1oxi+snvJ/EDlNJ7F1KnDV1GfBHn3cefxZ2FnZW1jSVK1oxpxXkt36vqZAAAAAAABRpNNNZT6FQBz2r9k7O/4qluvk9Z9Yrwv1Rxep6Je6ZNq4pNw6TjumeqltSnCrBwqRjOL5qSymB42ZNlp91f1VTtaUpvz6I72v2P02tdqsozpwzmVOL8LN1bWtC0pKnb0o04LpFAczpHYyjR4auoy72fPu4vwr8TqaVKnRgoUoRhBcoxWEi8AAAAAAAsq0qdem6dWEZwfOMllF4A5LV+xdKrxVdOl3Uufdy9l+nkcde2FzYVXTuaUqcvetmevEN1aULyk6dzSjUg+kkB4+bLTNDvdTku4pNU+s5bJHaW3ZDTaF06zjOrHOY05vwr8TfQhGnBQhFRiuSSwkBotI7KWdhw1K6VxWXWS8K9Eb5LCwuRUAAAAAAAxr2xtr+k6V1RjUj71uvRmSAOF1bsXVpcVXTp95Dn3cvaXoctWo1KFR060JQmuaaPYzB1HSbPU6bjdUVKXSa2kviB5Ok28Ldm80rste6hic13FF/Okt36I7DTOzGn6dLjUHWqZ2lU3x8ORugNXpWg2OlxTpU1Or1qT3f9DaAAAAAAAA1+p6LZapBq4pLj6VI7SXxNgAPOdW7JXljxVLf/AIiiuq9peqNA04tqSaa6M9lNRqnZyw1PMp0+6q/8yns/wA8yp051ZqFOLlJ8kkdNpPY24ueGpfS7inz4F7T/AAOt0zRbLS4JW9JOfWpLeTNiBiWGm2unUu7taMYeb6v1ZlgAAAAAAA0Wr9lrLUc1KcVb1386C2fqjegDyzVNBvtMk++p8VPpUjujWHsk4RnFxnFSi+aaymc/fdj9PurhVabnQ38UYcn+AHAW9tWuqqp29OVSb6JHW6R2L9mrqU/f3UH97OpsdOtdOpKna0YwXV9X6sywIra2o2tJUrenGnBdIrBKAAAAAAAAAAAAAAAAAAAAAAAAAAAAAAAAABr7z9P8CElvf7z8CIIVAAAqAQkIa3DODiyZmDdylTllciLeiNTOPdXaj0k8GyxwpcJq76plqUdpIy7S9hUhGMprj65OTkm703xZTlKSxLkaS60ebqSnRaw9+Fm8TTLuFMrjbE2SuQr29eh7dOSXmQK6qR26HXVpRTcWk11TIPkVpXWe6jn7C85J9xTw+3KuU6stk8vyJqWnXFV5a4V7zov7NhDeCx8A7ecVskybyfqI8Wpp6RCEczk5MlpUlSfg2M9qSWJRaMeaw8lLlb7RrSkocSzLf1LIcMVLyKzqx4cdTFnNpPcmIva6XDOTwtjFqxXIvncKEeFYb6mPOtxPkaSU8LVkm0+nqWQlJTTjzRXDb3ZXiUdjVaYfttKeoOFNcfMs/tSXH7KUf4msdRy2Kxb5JEaaSTSevVlUqOcm3J8iOOJPM22i1Sww5vknlskXJrL4fCunmWyk293ko9uu5RrIIqFgpyGQsvjNLpkqnkjz5F3JELbSxqTjtF4QVaSfiw/gRcSKcQ0bTuqpvdYKNJvYh4ivERpba/hKYKwlkuXDJNtpNEJ1tGxHLLms8i1vhJV1pfGXmZ+mXrt7mMnOSp9UjWl8WRY0nc1XdUK9OvBTpyzFmSpxS5o5bSbhxg4cT80bLvHLmyLnpzZceq2c7iGfaI5XWE+BZZhRSfzmVeIySlJZ6Gd5KiYRr9Qvbt1sVW6cXyUWY3eya9uX2myv6ar27jjMlumaaNOrCXC4Sb8sDe060rUc28QnPL6ZMi3tK3zWpLnlmNTg+PPiTzyaN7bKKptY+aRlfpbrSOmp04pSWH7g6TlPi5rqiWFWE1guhs8cym0empleUrS+lQlBq3lzyuTMbWbBLFe38UOqNze2dK7p8NRPbfK5kUaXBTVNNuKWNzaZa9MrNuRyT0eB025Jtr3m5r6RRqzck3Fvy5GM9CqZ/N1E/VG3nKzuLA3xxRT39wkpR9tYz0NjLS77i4VTTi/J8iSOg3c5qVWUOHouL+g3FfFraCVKfeRk4NdcGwt9Xp1Eo14uMl86PJm2oadGmuGUIP13K1tHtaqfFTim+sdinltbxrDhXpVHmNWLXveC+pTp1I4nGMkYt32fVOnKpSqtpbtSRHbSnShiTzGPmLdKXpStpFGpl05Om/tRhVdGrw3g4zX2G3p3NOosZ3LnXpx9qpFerJmRK52pY3NOPFOjJLzMc7Whw1aXFFpxfU5zWrWNvdZgsRms4LzLa7DoTUX4uRmydNpum/Z/iaxczJpYcd/aJqtiZxpzeafgl1XQpKc4xUJLfoy2bjFxbx8CfiUknttyyVqlUpUnx5fil5GTLLw6rUfcjHqXGJZ4sPHQjdxnfdv3lLNq2bZ9KKqeyvtFZKk1x4w/I18birT8UJYKSrVK8s1JZ9xEw2tMU05qUsRzgnpIxqaMqkaSaW0yYciSJHEkiTExLAmiRQ5E0EWSliSx5kcSSIEqLkWovRInoe0jbx5I1NBeJeptlyCVQAAAAAAAAAAAAAAAAAAAAAAAAAAAAAAAAAAAAAAAAAAAAAAAAAAAAAAAAAAAAAAAAAAAAAAAAAAAAAAAAAAAAAAAAAAAAAAAAAAAAAAAAAAAAAAAAAAAAAAAAAAAAAAAAAAAAAAAAAAAAAAAAAAAAAAAAAAAAAAAAAAAAAAAAAAAAAAAAAAAAAAAAAAAAAAAAAAAAAAAAAAAAAAAAAAAAAAAAAAAAAAAAAAAAAAAAAAAAAAAAAAAAAAAAAAAAAAAAAAAAAAAAAAAAGsvX/xWPciwtvan/wCRlDyiiqJiFSoAAw6txVpzacVjozMLZQjNYkslMpbOlsbJe2ur3dZbqCx7mRRuu88NRNJ+ZmVLVx3p7+4w6tNSeGmmjjyueN7dOPhlNMC/p8EtnlM1s/FiSysPZm2u7aXctxefcc7UqVIScZNrfkaYfyZZbwrcWt7VSUVLL8mbqjKrKCcksnLabd06VwpVeR09C6pVVmEkzPPGyry7i+cVL24v1RA1wy54xywZqkmUcYyWGkV1tMukVOrnaX2kjw1syGVJxeYPK8mVWWsJtMmX9os36VcUyKpShLnET4o9WQyqtMlGkVSzoPOzXxNPexVKrwqTaNrUrPyRrLyPe7tbrkXxTjJKxOGMt2y3CRRxmucXjzwUybNdyqMtk8tF3qWtLDxtgmM8lVHyLk+HbqWxeEVT25bkqmF5hPCZbljOQHMqimSseYTFd8e4oXSeyWSiWY5IWULs7BJ4KEJOb5FMF3IPONglT12Kvfdci15fMrjHMlXasSTCcM9SJF8cvC8+RFi+NXtNLfPuLOFt7snqzTSSjhRWOZZBcbSSfwIX6qLk/cTRXFJQi0ZEqNOM+Gpy5+WTHcYptw2RG1pNJqFV0qntcjbwrppM00IpxePafIzaEZzisGecRl322VOs5SwmW3nH4Zwi5SW23kLahNR9ncyu5qYWJJfxMtVluRj0brlHu556toyoxTWWki6Fu/nTb9NiSNJR/qT41W5RF3UG8uCb8y5UU+rRMksFHKEebRbX7U2xPkcVLMZNehNCio85Nl8q1OPzkWxrwm8ReSt0dpI0kyrtYPdorCSwXupt1L42K3aNW9OL9lF6il5IhrXEoQcow4sdMkdK8p114ZpS+i+ZbcRplOUYoj76L5MpmLXiRG4Rz4WLaaTcWd0ikpJJt9CxPh5ovUkyPI01ep6pRp29SEXJzawlwtGip3KfteXU6+VOE/ahF+qMWvptrXWJUo+q2LTVUyx25WpdRpNd1u+pjVq8q805JI3N/wBn5pcVq+JL5r5mrtrWTvadKpH5yyma4yK606qyo9xZUoLpHmaTtHJOtTj1SOoUYqCwtkchrdWNa+k4eytiMfaWDBcMVLqyjjNeLD9SWi1ODg1uuRWPiSTTwuZdVFFSqTwllkyjNrga38iynU4KvFFciWvcqrU4opxZHe02TS2ai1ndNe8osFJprxN79SzjXRk2I0nwnH1LYLDwKEKlWMnBZwUhJuW+zKw1YyIGTTMam9zJpkjJiSxI4ciWIiUkDIiiCBkRRYXxJYkcSWCCV6L48y1F8eZKGXarNSJszX2a/OI2ASAAAAAAAAAAAAAAAAAAAAAAAAAAAAAAAAAAAAAAAAAAAAAAAAAAAAAAAAAAAAAAAAAAAAAAAAAAAAAAAAAAAAAAAAAAAAAAAAAAAAAAAAAAAAAAAAAAAAAAAAAAAAAAAAAAAAAAAAAAAAAAAAAAAAAAAAAAAAAAAAAAAAAAAAAAAAAAAAAAAAAAAAAAAAAAAAAAAAAAAAAAAAAAAAAAAAAAAAAAAAAAAAAAAAAAAAAAAAAAAAAAAAAAAAAAAAAAAAAAAAAAAAAAAAANZqFrFVflK9p7MihyNncw46E17jVU3tuBKChUlAUKlGiAyQ16EaqytpEgK5YyzVWls9NfjDw1hrozWappirwdSmsSXU3tej3izF4kuRhKo1mE9n1Ry5Y3Ct5fKOJnGVObjJNNF9G5nRlmMmvRnR6jpULjhntFv5xg1uzs+DioVVJ+T2NpnjlO2dxuPpPa6nPgXi4vUzIapFvE00zQfIL+1lvQk17tzIgqjaUqc1LycWZ5YT6aY5b9t/C+oy5TSfvK9/FvaSNVTsq014lwL3mTQsKdKWW5Sf8AAyuotqM6NWMniSLalFS9ll0JKKwsCXE5Jwax1TI7EErelGLlVlsi2nO1f6KCb9DLlCNRcM0mRSt1ST4YkynTCuKannEUai6tuHLit/I2dxd8MnHDTMCrUnUNsahr8tFrJq8cLJDnODWK2qhcwuYfkSKFUUCAqhgZCCV2M4KvbYo37xlt7kLGRgubRR+8hZR8yq2WQkm0SSgly3QEaa6jrsXuG2cbcimXFcKWPMlCkcZ3WUVjHi2SbfuKSXC9+ZJFTjFThB5XOWNgLHGUfDLw+ojUaWF9pJCHGvmtvrJllSnKD4XHd+RCZV8qinTScXxL5zZbxbFIyUYtY3LMsjS/lpsNNtJ3M288MFzZ0VvbU6MUor4s5O3u6trJulLGeaNlZapdV6mJSWF5Iyzxy9qW76dDsmHUSNfGrUms7tE1KalzTXqU3VLiyuN42Iu+qN7LHqSLkME62r6QylP50mUUY/OZJUp8SW+MGNVhOLzvgzylXmqlfdryKwUJbx5mI25dTLs6Tj42+fIrJtN6jLhBqOWXY2LZ1OGBZTqPlLl5mm5Lpnq1I4o0WrafPMqlBPD325pm/wAlHDi2NJ/Sri6Gr3trLgnJzxtwzNhS7RU3hVqMovzjubCek0neTr1IqTb2XRGs1uyp4VSnHha2eC1yxt1YiY36bi3u6VeKlTnlMm67HK2NxK22e8Td217CovDLJhyS43+muMljYKTXUr3iXMg75Yzkw/7WtncOi54a6vkyvHllb0jLGSdtsmn7yKdnSqVY1eBcceTIoSezi9jKhUyt9mdEy/bLSOtLuqM5NYwsnC1qjlOT82egVqca9CdOXKSxldDh9T0+rYV3GazB+zLzNsdK2MaEsYa2aJ6dZwTSS3MRMkXqWUsVqRxLK9llMYfMvUVJNcSZXhUPai/VBCObb55LMkk2uHq/UhJWjIt7qdvng6rBapNy4mRoqvaRGolm0nkzqNOUt0myzT7OVRKc1iP3m1SVNJRwVtRpiwXQlii6SzLISESkgTxIoIniXQuiiaKwiOKJUSLkXwW5YiamtyRnWUd2zMIbWOKXqTEJAAAAAAAAAAABbKcYLMpJJdWzBr6vQp7QzUfu5EWye18cMs/8Y2BRtLmzQVtXuKnsYgjDqXFWo8zqSfxKXkjqx+Hnfd06eVxRj7VWC9ZIRuKMniNWDfukjlMt82E2uRX8jT/RT9uwBpNHvJd53FSTafs5N2a43c24uXjvHl40ABLMAAAAAAAAAAAAAAAAAAAAAAAAAAAAAAAAAAAAAAAAAAAAAAAAAAAAAAAAAAAAAAAAAAAAAAAAAAAAAAAAAAAAAAAAAAAAAAAAAAAAAAAAAAAAAAAAAAAAAAAAAAAAAAAAAAAAAAAAAAAAAAAAAAAAAAAAAAAAAAAAAAAAAAAAAAAAAAAAAAAAAAAAAAAAAAAAAAAAAAAAAAAAAAAAAAAAAAAAAAAAAAAAAAAAAAAAAAAAAAAAAAAAADUVY93cSj7zbmBqMMONRejAgQKRexUlCoKAgGi1ovKNAQVJOKNXeVVLxLaSNnXWzNJd7NmefcaY+0lpc99JxfTmjOUlFbGosNpTZm8e5zXptrbM9roU4IrfCEX4UWSrQj7TS9Sv/aCSzyImiyreQisR3Zh1LipN88LyQWkrLnUjHmzEq6nTp7J8T9xHJqSwyCdvTl0wWkn2mq1NUqTfg8JsbDVI1kqddpT6PzNTK1gltsWfJ2t1Jl/GK9uhurGlcRy1v5o0lxYVKLbi+JGdp+oSjilVefJmfLhrLG25WXV0jTlakZOLTMVxcXudFeWay9l8DUXFBx6ZNsckaYqAx0BcUQBUAt2OpUMJVjHi3yl8S6XSKRRPAe25CyuMFOu5Ve8ZTa39QlWO7wiWD7uXFOKnFbYyR+zPl9pRtybfIhKr8T22SCzTkpR3KRxxJSeF1LnJrPCsx96AKLqye6T57ktK6qwh3WUovn5lsKqi1GMeGU9m/cXtxtK68SqJPOORKETlBvG+c/AulTko8bfh95StcQqTfBTUE30KKbqJQcuGJC0VrQ4k6sYqMG8JESTx6l8lh8KmnFPmWOXC047NdQVZJ7m00Sg6k5Pp1NXGLqVElu2zq9Nt1bUIxXN7srn60z39svhjBcKSRa6ae6IbuvGjJuUkkQUdTo1J8Lbj5N9THSGY5OnHPReRFG/jxYnFpeZKpKSynlFs6UKi8UfiQdfbIhUjNJp8y7CNbOMoSUUpNdGie3r1FLhnF48xMv2m4/cZEqEG84wSZUY+SQTT5BpSWGTqX0pv9sdVXXm8LwrqS4wX06UYR2RFOW/CuZnljr2vLv0ujVxLHQyIzXmY3Coe9lKcJb+JYZEthqVmxw+mTFvrFXNKSWFJ8iaG0cEikzeWX2z9ObjoNRpqpVS9CWl2fp02nGvUT9xvXu8lkm11FysGGtNpuHDKU3/3EK0Ozi893n1ZsYuTWE3gu4PMiX9Jvftjwt40oKMElFdMl0SlTwvBSLM77SmTaIb62p3tB06sdnyfkSxeSktjTHLSunLV+z1aDbpVIyXk+ZDGz+TtK6g17+h1kVCcsS295jX0adOEuNKdPHVG0y3FNark6yowqNU5cS9xSNZwTgp+CXPYirRXeycVhZ2XkFSaSbTwaT0pV1T2UorbzLZU+Gn4k0+hJx0or2ZOS8yxydSWIp78kCIjb6bp3Go1a0cLovMvsNJe1auveom2bSxFbFcslpNrW1BcMS3OSKVTjnwx6c2SLZETtCpdFFqJIItBJBE0UWQRNFFhdFEiLUi9EoVRkUo5wQxRmWsMzXuAz4Lhgl7i4AJAAAAAAAx7u8p2kMzeW+UVzYt0mY3K6iac4wi5SaSXVmrutYjHMbdcT+k+Rrbu9q3UvE8R6RRjGOXJ+no8XxJO801a5q13mpNv3EJfTpzqSUYRcpPojZ22jSliVeXD/lRSS5OnLk4+KdtUk28JZZk09PuaiyqbivOWx0FG1oW8fBBL3mp1LUHVk6NF+BbNrqWuEk7YY/Iy5MtYRrqkOCbjxKWOqLTYWuk1a2JVfzcf4m2t7Chb+zBOXm+ZEwtWz+Vhh17rSWdrcutCpCnJJPOXsdIuW4wVNscfF5/Ly3lu7AAFmIAAAAAAAAAAAAAAAAAAAAAAAAAAAAAo3hZZjLULZyce9imvPYxNXve7j3FN+J+0/JGjM8s9XUdvD8Xzx8snXwqQmswkpL3MuOTod7KrGNJtSbwsHUUIyhSjGcuKSW7Jxy8mXNw/i+0gALucAAAAAAAAAAAAAAAAAAAAAAAAAAAAAAAAAAAAAAAAAAAAAAAAAAAAAAAAAAAAAAAAAAAAAAAAAAAtqVIU48U5KK82yC8u4WlLilvJ8l5nO3FzUuZuVSXouiKZZyOnh+Plyd/TfvVLRPHe/YmTUbmjX/RVFL3HKGRTpXNLFWFOaS3zgpOSujP4mEnV7dSCCzr/ACi2hU6vn6ll9ewtKeXvN8ka7mtuGYZXLxntPUqwpR4qklFe9mK9UtE8d5/Bmgr3FS4m5VJN+7yIzK8n6d2Hw5r+VdXRuKVdZpTUvRkpy1Onc27VaNOcUt842Ojtayr0IVF1RfHLbm5uGcfcu4mABdzgAAAAAAAAAAAAAAAAAAAAAAAAAAAAAAAAAAAAAAAAAAAAAAAAAAAAAAAAAAAAAAAAAAAAAAAAAAAAAAAAAAAAAAAAAAAAAAAAAAAAAAAAAAAAAAAAAAAAAQ3NPvaMo9ehMANLB9OpILqn3Vw/KW6KJhCoAAFShUCCstmaa8g3nY30o5Rh1bdSZTJaNHb1YU/C+Zld5CXJlbvTYzTcXiRpa8bq1lhOTRz3DbeZN73knHhUsEHyWOXJvil5tmmhqFeLw4ts3VGFV0oyntJrkUuNxXmUqOVL3EbWCao6kOUXL0LVGtU/wpL1RC22O0UyuTyZfySs/mJfEfIKr5tIttFYE3lkMm+RtHpsvppFrsIwWeLLJ8oq1apSlu9kZVC6nRajlyXvLqtHHzi+0tE26j5LkLdmtMnv1OOMYz0MO4p5y8El14VhbMwPlU4NrfBOJWJWg4TbIjNlKFXOdmYc4uMmjaXaimMAoipYAM+YAqG3ncZGckJXcWVjAw0/eWocXQLLpTbMldxK3pxUlGq5Pib6IxVwP2v4Fu3mDaerRdFt8cJpeTJVTrStHLiXdxecZ33MPk99zIrXXGsU4KnFrDUeoNrMKLTT35pk9v8AJZzfypz35OJit5W5bkJ2vkoqT4eWdimQngoDaROKi85z0Im8leeyHAyC21sNHt+9rcbXI6VRxE1Oi08UlsbWpJwpvHkZW7qlajUZcU5ZMCFNRjnqZNfirVYxW7kzNjYUo0sTbyVyzmPtaTbDoV5ww4yZs7e8jV8MvDI1s7bum+7bkie0g0svmUuU1uLeP7bTGS9RTIoZSJITyzKZyouK2rTnGPFCT26FLPilUblJteTJ8lvEk8Z3Lyq760yWsFjpLPEluUjN9SanKOHk2msmfpizp1N2t35EVCq3VcJR4WZmfFuJUozak14l1OPK+OWq2l3FYpdSDvXCo4y3RFd31Oz2nly8kQW1xK9k5d24x8ze3rcVk/bZKaaytyjw8ZKxiopJLBWXC0Tq2KrlFKOS2TwiyM1uuJMq9yd9I0xqsnnLK03lkk1HBHsnlGd6qyRc0SS8iPOxXi4l7zTGq1h1O8p12vmvkUqxdWm4tbNGXJZRG2l7Wxbeke3M1dIuZy2iks88kkNJrxjidRY8kb6UlzRYvFsluX/JVPFpY6PFveTbNlZ6XQtvEo5l5sy8d30wYd1qMKKai+KXuLTLf2aT3FVUoZcka13EpzbjzZiTr1LmeZPKMmjDhRFm0y6T0ocK95KWpYRct2XitXRRNBFkUZEIlohdBEsUUSL0iyFUXpFqL0iRfTW5srSGIuXmYVKOWkbSEeGCQSuAAAAAAABBd3MbWg6kufRebOZr1p16jnUeWzP1qs53Cpp7RRrDDPLd09X4vFMcfK+6GdZabUucSlmFPz8ybTNO73FasvB0XmbxJJYSwiccN91Tn+T4/wAcEVva0raPDTil7/MmANnnW23da/VK84xjQpfpKm23kVsdNp26U5riqefkT/JU7t3Enl4wl5GQV13utbyax8cf/YACzEAAAAAAAAAAAAAAAAAAAAAAAAAAAAAAAAMe8uY2tBzfPovNk8moxbeyRzWo3buq7w/BHaKK5Zajfg4vyZf0x6lSVWpKcnlt5ZbzKG00iy72ff1F4Y+yvNnPJuvVzznHjtl6VY9xDvai/OSX2I2QB0yamnjZ53PLyoACVAAAAAAAAAAAAAAAAAAAAAAAAAAAAAAAAAAAAAAAAAAAAAAAAAAAAAAKZRptS1OXG6VvLCXOSNcrqvF5VWefUzvJJXXh8TPLHfp1YOeoavcQaU8VF7+ZvLer31KM+Fxz0ZaZSsuThy4/aUAFmIAAAAAAAAAABZWqxo05Tm8JIvNHrN3x1O4g/DH2vUrldRrxcd5MtMG6uZXVZ1Jcui8kQA2Ok2Xf1O9mvBF7e9nPJcq9fLLHiw3+mTpenJJVqy3e8U+htsJrGNioOmSSPH5OTLky3WM1SsbecltHLfxOcua8ritKpN7vl7jN1e772t3MH4Ic/ezWmOeW+o9H43F4zzy91XmbzTNOVOKrVlmb5J9DG0iy72ffVF4Y+yvNm9LYY/dZfK5/+GKjimsNbFlGjChDgprEeZIDVwbvoAAQAAAAAAAAAAAAAAAAAAAAAAAAAAAAAAAAAAAAAAAAAAAAAAAAAAAAAAAAAAAAAAAAAAAAAAAAAAAAAAAAAAAAAAAAAAAAAAAAAAAAAAAAAAAAAAAAAAAAAAAAxb+j3lLiXOJgQeUbhrKwzU1qfc13Ho90BUFAEKkc6qhzLzFuc4IF1S4i4NJ4ZiPxb8zEqtpk9CfgOXmro44mUG/ml3A/JFFWaK99kx201VHDzhH7A0/oIrx7bleMbRpb41yiMTa32LuIcY2KODxzZTu2+bK8fvLXVwRtM2Oi+rIpUE3hsSuMGPOvKbwuoTJSVrGdThTTMp0406ajFbF9Cj3dPMvaZZc1FCDZeK27aq9fjwYcuHql9hfXk5zbMafqa4wtUnKKWxjVGmXSkl1I3JGsjK1a9inEVZY+ZdG1ze5VMjCyNHklzvuUbXQokxw+YT5GShdw+8bA2t3GGXZKKaQRseYvBXjXBjG/mUlPiznmWDR5VLFNx4uhTO5WG6wUlHhe/IhPkNlE23grhLpn1FNpVE3sgeXbaWWnupFSlyL7yhGguFJZZn2FWPAkmVrWLuK6m5bHJcrvtv5fSTSaTVCLJNQn3cMZ3ZkwUKFFLkkjUX1XjqqTexMm2e+1LKPFUc305GVKTqSwuSMa1fDQk11ZlUY4j7zn5P8ALbXH0tnFKJHRniWGS13iOxjUqVSMuLz6CdxLYccnHEdveRwqcE3h5IpTq8OERUOJTfE9yvitGfTvKc3wt8MvJl04NvjjzNbe0JJccUNPqVe8UeN8PkaTubVs16bejxOPiRK5OEW0slkZEyaaJlY32wad1mfj2Zn0qiktmY9a0hUy0sMxqaqW08ZeDDPCy7azWU6Z1ehTqNTlCMmurRWEYwW2EVpVO8jyK1Ka4GzfCddMr70p3izhcy2a4kY3GlPK6GUmpJNdSZdlmmDOL49tjHd1VjdKnGT4cbmyq019pqKsalK4bmubI9L49s+FSUnuSwxncx0+GnxEXfSUs5KJ02XCsFOHDyiCNdpb7ksamUaSxnZUmCCvZ0riSdSO695Lxoq2X8orpjVaLSSitkVtF3filnJO9yKU4xTy8YK2TLq1Mul93FXFGUEsN9Tlby2nRr91J8v4nUU6kaizFpkGo0ac7dylFcS5PqbYYzH0plu+2ioU+FGZSjuWQhhGTTjhF9qmC+KKJZZLGJaIXU45MiMcIspxwiZI0iFYouCWCoQrFEsFllkUT0okjKtKeZZ8jNI6MOCml1JAkAAAAAAABy+oNu9rZ+kUsqHyi5hTfJvf0J9YpOnduWNp7ldGaV6l5pnPr+T2PL/Y3P06CMVGKSWEioB0PHAAAAAAAAAAAAAAAAAAAAAAAAAAAAAAAAAAAAMO61Ghb5WeKXkiLdLY43K6kZgNDPWa7nmMYqPkbCpqEFYquuclsveRM5WuXx88dbntjaxecK+T03u/aNKXTnKpNzk8tvLEYuclGKy3sjDK+Vepxcc4sNJrK2ldV1Beyt5P3HT04RpwUIrCSMfT7RWtBL573kzKNsMdR5nyOb8mXXoABdzgAAAAAAAAAAAAAAAAAAAAAAAAAAAAAAAAAAAAAAAAAAAAACjaSy3gxK+pW9HZz4n5Lci2RbHHLL1GYDS1Nbf+FSS+syH+2bjPKH2FfPFvPi8l+nQAwtPv1eRaa4Zx5ozS0u2GWNxuqGu1a97il3cH45fwRm160aFKVSb2SOXuK0q9aVSXNspnlqOj43F55bvqIwk20kstlDd6TYcKVeqvE/ZT6GWOO69Ll5Jx47q/TtNjSSqVlmp0T6GzAOiSR42edzu6AAlQAAAAAAAAAAGPfXCtreU/ncl6nLyk5Scm8t8zP1e67644Ivww+815z53dev8AF4vDDd91JRpSrVY04rds6mhRjQoxpwWyRrtGtOCn381vL2fQ2pphjqbcfyuXzy8Z6gYuoXPya2lJe09kZT2Oc1S6+UXLSfghsi2d1Gfx+P8AJn/TCbbbb3bJLajK4rRpx6vciN/o9p3VLvZrxz5e5GGM3Xp83J+PDbPpU40qUYRWFFYLwDpeLbsAAAAAAAAAAAAAAAAAAAAAAAAAAAAAAAAAAAAAAAAAAAAAAAAAAAAAAAAAAAAAAAAAAAAAAAAAAAAAAAAAAAAAAAAAAAAAAAAAAAAAAAAAAAAAAAAAAAAAAAAAAAAADGvaPeU+Je1EyQBpoPKLi66pOjWyvZkWJ5CFS2UFJblxUDW3do8NxRBbR8LT6M3LSawzBr0HRbnBZT6GHLj1uNePLvSFw8i3h3xko5t9GRwqJVVlM497dM2yIx4nglVF+ZBGrwycpJ49yIqurqnLhVJ+rLzH9q2/pm9z7yndLzIIXk6tPiikiKdWs+UsfAaiO2VKEUt2QVZU4rmYs51HnMmY8lKeYp7MSLJqtzT6PJl6dRU/z1RbdEY9lp2Z95U9ldPM2VSpGCxySLdRW36itepiMpSwoo5rUNTqVZuNPHAv4mRqV7K4apweIR/iauUTTGfdUQzq1pfOx8CKXePm2yaTS2I3PyNorUfCyuEluVznmUwWVUe4cMcy9Ik7qTWyBpCooZS6F04uHMsWZckBVyfJFMlJRknyKxhxLfYC+jCVaooQWWy2pB05uMnungy7CSt67mlxYWxi1XKdWTfNvJEvabOkeNslC6NKc5cMVlktzZztoQlNrxdETueldXW0AKLIJQkiyTHEsEUWSw3aIq8WYa2Za0ZFSGHnBdb23fVYpyUUyN67NI7e7q0JLhlsujNzS1iChmWcmrvLOVrU4W8p8mQxw9ilxxy7Wm503tK/d4pPkovkRXTzBS5bmDY1O5rcL9mRsbug6tOPBJLBXxkTtZZ1E48GeptIYUTQUFUoXCU1s+puXVjClmTOfkw7WmXSleaUot8smXTUJQysGlrSncy8CfCiSjG6isKSS95X8d0ttsasomJKeKmVyLowbXilksnKMUJhr2ny/TOouNSm4y3TLLa27qtJ810MClVqKeIbt9DdW9OShmb8RWYWUuXSknwrJjfKJ59rGCt5WUXwJ+phxqJyxLkTYnGbbihdRntJpMlnSjVXvNKoy4lKmn9ptoScYRy98Ey76Uyx8b0ko03ST4njAc5TTUeS5kVSvjCfUnyo0n6CanUVu/da/qzJpSxFJkFNcTyS+hEXqWcvD6GNXpqpDK5omi8x3KKKisIVE6Q0cOOGWzoxTzjYtpyam17zLglKOGZXLVXs0xdtiWLwRVYOnnJi299Gc3CW3kaTuIrZIuT6EMZYfuJVuTFKuLe6i88SzkuSYzjmaaiiKjbQoybjncgvqvF+bj8TLeZpqLw/MwalvKlLxb56mkvXSL37QRhl4JWsbF0YYKpblsbtWqRiTQjkpGJNCOEayKVdFYL0iiRelgugLkiiRfFEi6EcszrWlmXE+SMejDLNlThwQSCV4AAAAAAAAAAxNQtFdUHFe2t4s0FvUla3cZSWHF7o6o1eq2Hep1qS8a5rzM88fuOv4/LJ/DL1WyhJTipJ5TLjU6Pd5j8nqPdezk2xeXcYcmFwy1QAEswAAAAAKNpLL2RFcXNO2hxVJY8l5mhvNRq3LcYtwp+S6lcspG/FwZcnr02d1q1KjmNP85L3cjU19QuK73m4ryjsYpf3c+Hi4Xw+eDG5WvRw4OPjbrR7yVaLpVJZlHdN9UbQ5vSZON/DHXKf2HSGuF3HB8nCYcnTX6pcV7aMJ0muHOGmiO11iFTEa64JefQv1pr5H8Uc+VyyuNb8HDhy8fcdhGSksxeUypotFr1O/wC5y3BrOPI3pfG7m3Jy8d48vEKNqKy3hENzdU7anxVH6LzNFe3le4acswpvlHzGWUi3Fw5cl/pt6uqW1N44+J+5FKWq21R44nF+9HOAy/JXb/o8Ne3YJqSynlMqYmmRnGygp8+noZZtO3m5TxtgACVQjrVqdCDnUkkkQ3l7TtIZlvLpE5+5ualzU4qj9F0RTLOR08Px7yd30yr3ValfMKWYQ8+rNeUMu10+tc4aXDD6TMe8q9KTDhx/TEK8T4eHLwuhsL63o2VJU4+OrLm30RriLNLYZzObgbjRrP8A/YqL6q/mYFjau6rqPzVvJnTQioQUYrCSwjTjx+3L8vm1PCLgAbPMAAAAAAtqcXdy4HiWNi4o+TBGkpaxVpzca8VLDw8bM2tvdUrmOacs+7qc1cvNzVa5cTLaVWdGanTk015GEzsvb1M/i4547x6rrgR0ZupRhNrDlFNl7aist4SN3ma+lSCvd0aH6SaT8jX3upylxU7VN45zNNKTk25NtvqzPLPXp18Xxbn3l03/APbFtnHix54MyhcUriOaU1I5M2Oixm7vMfZS8RXHO26acvxcMcLlK6AFlWrCjBzqSSSNJe6lVrRaopwpfS6s0uUjk4+LLkvTaV7+3oPE57+S3IY6xbSeG5L3tHPvfmUMvyV3z4eGu666lVhVjxU5KS80Xmn0KM+GpJ+w+Xqbg2xu5t5/LhMM7jAAEswpKSisyeEQXV5StYZm9+iXU0F3f1bqTy+GHSKKZZSOji4MuT/ptLrV6dPMaK45efQ1Va+uK0syqSXkovBjF7pzjHicWl54Mbla9HDg4+Nv9Ku3cUXGbzOHN+Znmg0STV3JLk4m/N8LuPN+RhMOSyAALMAAAAAAMO81GlaprPFP6KINU1DuF3VJ/nHzfkaJtybbeW+rM8s9dR28HxvP+WXpk3N9XuX4pYj9FcjFKpZeEZtvpdeuuKS7uPmzHvJ324cU/TBBm3FKjSl3NBOrU6y8vQlt9Hq1MOq+BeXUnxqLzYSbvS3RW1e7fRZ0Jr1pqo08W1Tu5vnNrLwYt7G5tKXFK8cm9kuHmazeM7efyePPnvGrNYu+8qKjB+GPP3s1ZVtttt5bJba3nc1lTh15vyMrblXo4Y48WGmVpdl8oqd5UX5uL+06BbcjW09OuaUFGF3wxXRRMm1t61KTdau6ueSxjBtjNdaebz5Tku9soxa2oW9GTjKfiXNIyJyUIOTeEkcpcVO9rzqfSk2M8vFHx+Gctu/Tfw1a1k8cTj6ozIVI1IqUJKSfVHIG+0SnONvKUvZk/CiuOdt005/j48ePlK2ZRvCyyprdXu+5o91B+Of8EaW6m3Lhhc8pjGSr+2cuHvY5J4zjNZjJP0ZyBNbKtKtGFGUlJvozKcjtz+HJNyurBZSjKNOKnLikluy82eeGJqNz8mtpNPxy2iRVLS7lOUld8KfRR5GluqtSdRxnVdRReEzPLLUdfBwzPL2hby8syLG2dzcRh81byZjm4tdNuIU1KFfu3JZa4cmWM3XfzZzDHW9NvFKMVGKwlyKmu+RXf7Y/9JSVndpNu9aX1Tfd/TyvDH/5JdUufk9s0n45bI5wluKs6tR8dR1OHZNkSTbSW7Zhll5V6nBxfixZWnWzubhJ+xHeR0qSSSXJGpttMuKdNOFx3blu0ok6srvKzeNrr4TXGWT04ufLHky/ybAFEsJLmVNHGAAAAAAAAAAAAAAAAAAAAAAAAAAAAAAAAAAAAAAAAAAAAAAAAAAAAAAAAAAAAAAAAAAAAAAAAAAAAAAAAAAAAAAAAAAAAAAAAAAAAAAAAAAAAAAAAAAAAAAAAAAAAAAAAir0lWpuL59DVbwk4y5o3RhX1DiXeRW65gYqKlkZZLghcUklJYYyVAxKtpneDx7jG4HB4lHBtC2UIy5oxy4pWk5LGvecbcvQhr2sK68aw/cZ87fDzB4I5cS2lEz/AB39rTOMSjbdwmottPzJZ5lBRSSx1KVcv2W0RTnWjHKw/VFfDJbyiN2sm34+fuJKdtCG8nl+81V3qV5QfhjDHoYEtZupe018EPxZHnHT1LqFKPDk1V9eSmsReEayOocXt5TKyuIzXMmcdl7T5RR1JJ74ZdDxrZFlOi60vDn1MyFKNGOObL3SGurx4Z7rmQtGXd7yTZiZzyNMVKoXcHLLKd4ktkWOTe+SyF9R42K07icY4yRbsql7xo2vdSUsp75JKK4ehFxJPCL25JeRAvq1cvGNyByb5IdctZHFu3jBMhaKUs7MqlJy5lIrqSQjjLaFF1GcqNTiwmXXFSpcSUp8uiKRXFl9EJYaWJL08iupva27rS9U8L2UmyGrT24luVlU4ZcMnnHky6U4um0o/FlptWsZE1JohlnJfTfmKSstYcknuupSpFU5OUOKK6EcXvjiwuhkKq5UJU8Jt9X0IXR16/fUk6ksyXJYMdMlhSdWLhHefReZDKMoScZpproxqekbv2ng+KPvMqjeSprhqbowKcsE8ZRxv8clLFt7bOnUpVvnIyVBcOG00c7WjwTzF/YX0bipHbjl9ouO1dt+5KOywWOql1NM76onjmT0q/eR8ylxsWllZdW5wvCss16rVa9ThTeW8YRlYyuRlaPZxjJ1prMm9vcV3JNrVn6dZdzBSnvMy683TptxWZdEXJ4WxZKk5vMmYXK/SJ77a1UJTk5T3kyaFnKT8WIo2EKSW0USd1hZkzK39tfP9MWnRjT2RNgrtnYtqTUISk+iLYd9qW7rDrP8435EyrqVPhkzCVaMpYzz6svoRcqqgye2njNM6EVwrhWEJRxy5k8EkvciKcuKeehp4yRjvtZSe+H1L6kcweOZZjm1thky3JkLWqhJxm8mbSnyMavT4KksFkLiMXhySZz54tvcbC4xUh78HM1YOncSj79jeO5i14XkgdCnOt3jWWX47Z7VsWWU63Cu83j0zzM+nUS6kGPIhuHKNPMXhlvdRptYtNZRSceJGtt7ipBLL4vUz6VXjSaRMzl6quWFx7IxcZFLmXHiHX3l831Mdpyllmkn1GdWqHQrjoX4wisY5ZfHDvatpCBMlgoo4LkjoigkXYBckSgitianDLLYxyzMt6WXj7SRNbUsLifwMgolhYRUJAAAAAAAAAAAAAGk1S1lb1Vc0dlnLx0ZsrG6jdUFJbSW0l7yatTjVpShNZTWDnratKwvXGT8KeJfiZ3+NdeP+9x6+46QFE1JJrdMqaOQAAAxL6+haQ+lN8oi/vY2lPbeo+SOcqVJVZuc3mTM889dR1/H+P8Ak/ll6XV69S4qOdSWX9xbTpzqzUKcXKTL7e3ncVFCO3m30N/a0Le0hiMo8XWTfMzxx8vbt5ebHimsZ2x7LSYU8TuPFL6PRGXeRhGyqrCS4WSO5or/ABI/aYOpXMK0I0KVSOZvd55I16k6efLnyZy5MXRKDlXdZraKwvU3pj2cKVKioUZKSXNoyCcZqK82fnntp9dqbU6a9WaYy9Srd9eTa5J4Rixi5SUVu2YZXdepwY+HHNtvoVHedV+iNjd3Ubanl7yfsxXUig4afZRi95Jcl1ZS1tpTn8oud6j5R6RRtOpqPOzszzueXpFQsp15/KL15fNQ6I1upXCr3LUPYhsjbatddxb8EX457I50pnddOr42Ny/nf/QZ+mWTuavHNfm4/wAWYtvQlcVo04c3z9x09vRjQpRpwWyIwx32t8nm8J4z3UiSSwuRUA3eUGDqGoRtY8McSqPkvIrqN9G1p8Md6j5LyOdnOVSblNtyfUzzz11HZ8f4/n/LL0rVqTqzc6km5MU6c6s1GEXKT6Ivtrapc1FCmvV9EdFZ2VO1hiKzLrJ9TPHG5Ozl58eKantiWWkxp4nX8UvLojYVZxoUpTe0YokNJrN5xy7iD2XtGt1jHn4+fPn211xWlcVpVJdX9iI4xcpKMVlvkUNto1pxSdea2W0TGTyr0885xYbbDT7RWtBL573kzLAOiTTxssrld0ABKoAAAAAEdxUVKhOb5RWSQ1utVuC2VNc5si3UX48fPORoW222+bJLek61eEF1ZEbbRLfMpV5clsjnxm69nlz/AB4Wtz4acN9kkayrUq6jUdKg3Cgn4p+ZfVnPUKzo0m1Qi/HLz9xnQhChS4YpRjFG/t5M/wBvv7azUO7sbRUKKxKfN9TSmRfXDubmU+nJehjmGV3XqcOFxw791fTpyqzUILMmzf01S0y0XE/E+fm2YlnThY0PlFZZqS9iPUyba1nXqfKbvd/Nh0RfGa/7cvPyTO9+p/8AqOnbVb+arXTcaa3jTRgalXjOr3VJJU4bLHVm21S6+TWzjF+Oey9xzvMZ3XS/xsbn/O+vpQntbadzWVOPxfkRRi5yUYrLeyR0mn2itaKT9t+0yuGO62+Rzfjx69p6FGNClGnBYSRIAdDx7d90MHUNQjax4YYlUfTyKalfq2hwQw6j/gc/KUpycpNtvm2Z5566jr+P8fz/AJZelatWdabnUk5SZWjRqV5qFOOWSWlrK5qYTUYrnJm/t6dva0+GEorzbe7M8cfLuuvl5pxTxxnaCz0qnRSlV8c/4Ik1RRVhUWF0wTu5or/Fj9pgahWhdTp28KkVHPFKWTW6k1HBjc8+SZZLNDoNcdZrnsjcEVuqcaUY0mnGO2xKTjNTTPlz887kAAszAAALZy4YOT6IuIbz+61cfRYqZN3Tl61R1asqkucnkUqcqtRQgsyZYb7R7VU6PfSXjny9yObGeVezy8k4sNpLHTadvFSmlOp5voXanWnSoxp0vbqPhRmlsoRk05RTa5e4311qPJ/Jbl5ZdsaxsoW1NNrNR85MywCZNK5ZXK7qkmoxbbwkczqF07q4b+ZHaKNnrN33dPuYPxS5+5GiMuTL6eh8Ti1POqpNtJLLZ0em2atqOZLxy3ZgaPZ8cu/qLZeybwnjx+2fy+bd8IAEdetGhRlUk9kjVxSbuo12s3XBT7iL8UufoaMkr1ZV6sqk+cmWwg5zUYrLeyObK+Ve1w8c4sNMiwtXdV1H5i3kzpYRUIqMVhJYRBY2qtaCj857yfvMk2wx1HmfI5fyZdellWpGlTlOT2Syctc15XFeVSXXl7kbLWrvLVvB8t5GoM+TLd07PicXjj5X7VSbaS3bOh0yxVtT45r85L+BhaRZccu/qLwr2V5m8LYY/dZfK5t3wxACjaim3skauBg6tddxbuMX457I54yL+5dzcyl81bRIIQlUmoRWW3hHPld17PBx/jw7Z2k2vf1+8kvBD+LOhILO3VtQjTXPq/Nk5tjNR5nPyfkz39BrtXuu5od3F+Kf8EZ85KEXKTwkcveXDubiVR8uSXuIzy1GnxuLzz3fUQGy0e172s6sl4YcvezApU5VakYRWXJ4OptqEbehGnHojPDHd26/lcvhj4z3UoAN3lAAAAAAAAAAAAAAAAAAAAAAAAAAAAAAAAAAAAAAAAAAAAAAAAAAAAAAAAAAAAAAAAAAAAAAAAAAAAAAAAAAAAAAAAAAAAAAAAAAAAAAAAAAAAAAAAAAAAAAAAAAAAAAAAAAAFGsrDKgDV3VB0anFH2H/AjTybapBVIOMllM1NWnKhU4Xy6MCpUtTK5CFQASBSUVIqURVKGVGLI3R2MpotaI0nbQ6jaZi2kc3cUXCTwd5WpKcWmjmtTtOCTaWxHojQ4Mixs53dXhjtFc2W9zKdRQistnTabaq1tlFpcb3ZTPPxi+M2shaxoU1CC5dfMxLhcOTa1MNM1F5NRzlmMu2rBrPOcmG3h7F9WtxNpciyKWPedGM0yt2te5XoCkn5F1TGWvIrUaziKwii2WS1bvAElGKcsvki6bzL3ElKnuoLmyO4jwVpRTykyPafpZnIjBuSGGisXiQQvcXxJckSKcoJxwpR88ElKmnLx9UWzbgpbe4j2tpA6nD4VtktWz8yiWZZYclnYnSNqyi5S2RRSa8LRWLaZLOMZrKwmSe0PC28JNlIvEsE3C9k21hEUo43xj3hHpeue7JYcnuQxw0Vy0VW2ybWqqdxCo+j3Npqyta9mq0ZR41yxzZo0Vllorcd3a2+lieEV48deZZKfE+i9CmC+lNr8cRTkxTy8+ZNb207mbUenUi3XtMm/SLPF6k9DwzWCGpB0ajg+aL6cuTIvonVbCE1NbG7safd20XLmznoPDyupnU7yooKHFhI58o29t4pEkXxczU0q1WS8Mky/5VXpvxJNeZlZUabhNRRDXuYxWM7mArqc1zwSUocT4pbmP493taTTLpNuCb67mFqVbEVTi93zMpz4FgirUKU48beZGvU6RPe2lryxT2e5tdJ46lvGrVXieyfuI/kVKtLhae5taFKMIxhFYjFGmOqZZKXE1Ro+9/wACJdGitdKrJ55FnFGGI5SIy7qs9L1h5T6orbSfz1smWrD5MuzgSlQXaWWzQXrcajTZvK7y8GrvreNbd7SREs8u156TWvD3UWuWDJi8vCMC3coU0muRnUYOe+cFMulvpkqg5U24vxGFRpVK9aSq5Sj0NtQSiscy2pDhy4rxMi7mKkvbW06bdThXmbWMI04LC3IKFFU8znjJdOpxPbkV4+8trcmW5oqT4ixDBckduMc1UxkkisFIovSNpFBF2AkXJFkCRelkokT0odWSL6NNtrbfoZ9OChHBbRp8Cy+ZKEgAAAAAAAABRSTbSayuaAqAAAAAHO6xDhvW185JnRHPa1JO8x5Iz5PTr+J/5Gfo1w6tu6cnmUNvgbI5/RZuN5w9JI6AnC7inycPHkugiua8bejKpN8v4kpz+r3TrV+7i/BD+LJyuorw8f5M9MOvWncVZVJvd/wLIxlJ4im37kUOg0qzVCgpzXjnv6GGM8q9Tl5Jw4tXQ067msxXAn5vBmU9Fb3q1m/ckbgG0wkedl8rky9dNfDR7aPNSl6smjp9rHlSRlAt4xleTO+6sp0oUliEVFe4xL2/jRUoQXFJLd+XkLy7kpK3tvFWlt9U1eopUFGhF8UvanLzZXLLU6bcPF5ZTyYLeXkz9LpRUpXFXaFP7zCpwdSajHmzb2dBV3GEf7vS/wD+2ZYTdd3Pn446ZFtSldVflNdYX+HB9F5mc2opt8kEsLYwdXuO5tXFPxT2Rt6jzJvkykjTX1w7m5lPPhW0fQx1u8IobDSLXvq/eSXgh/FmHeVevbjxYf8ATZaXZq3o8cl+cnz9xngHRJqaeLnlc8vKhi313G0ouT3m/ZRLcV4W9J1JvCX8Tmbq4nc1nOfwXkVzy03+Pw/ku76WVakqtRzm8yZfa207qqoQXq/IspU5VqkYQWZM6WytYWtJRW8nzfmZY4+Vd3PzTix1Pa61tqdtSUIL1fmTggurmNtT4nvJ8orm2b+nld53+0Oo3itaLUX+clyRzjbk228t8ya8nOdduo8z6+73EBhnluvX+PxTjx/tNa0JXNeNOPXm/JHUUqcaVOMILCSwYOk2nc0O8mvHPf0RsTXDHUcHyeXzy1PUADDuq8pTVvQ3qS9p/RRa3TnxnldLK1adzX+T0G1GP6Sa6e4zksJLyI7ehG3pqMfi/NkoicrPUAASoAAAc5q1fvrtpPww2N3e1/k9tOfVLb1OXbbbb5sy5L9O/wCHx7tzq6nCVWpGEVlt4N1JPELG2eML85NdDAs4yppSgs1qm0F5LzN5aW0bako85PeUvNkYRb5PJ2vo0YUKahBYSMLWLnurfu4vxT+42DeFlnM39w7i6lL5q2RfO6jD4+H5OTd+mKZNpThxOrV/Rw6eb8jGNlpls7monJfmafTzZjjN16PNl44bZtnbyuJ/KbhfUh0SNi2opt7JBLCwjX6xc9zb93F+Ke3wN/8AGPJm+XORqdQuXc3MpfNW0TFBl6daO6uEmvBHeRz95V7H8eLD+oz9HsuFd/UW79lG3KRSiklskVOmTU08bkzvJl5UMa+u42tFye8n7K8yWtWhRpuc3hI5q7uZ3VZznsui8iueWo1+Pw/ky3fSKpUlVm5zeZPmUhCU3iEXJ+5FEm2kubOk0+0VtQWV43vJmWOPlXoc3LOHHpqaOmXc1/y0/NmXDRU96tZv3JG3BrMJHn5fJ5Mv6YENIto81KXqyaNhax5UYmSC2oxvJnfdWwhCnHEIqK9xFTuVUrypwWVFby6Z8jGurqdar8mtd5P2pfRRl29CNvSUI/F+Y3+k3HU3l7qUAEswAACypHjpyi+qLwD05Bxcajg+aeGdZRioUYRXJJI0OrUO5u+NLwz3+JvqMuKjCS6xTMsJq12/Jy88MavABq4gsq1FSpynJ7JZLzT63dezQi/fIjK6m2nFheTKYtXcVpV60qkubZdaW8rmvGmuXNvyRCdFpdp8nocUl457swxnlXqc3JOLDUZdOnGlTUIrCSLwDoeP7DR6zdcdRUIPwx9r1M/Ub1W1JqG9Rrb3HOSbk228t82ZcmX07vicO751Q3OjWe3yia+qa2zt3c3Eaa5dfQ6iEVCKjFYSWERx477a/L5fGeEXEF5cK2oSm+fRebJ3sjndVu/lFdwi/BDZe9mmWWo4+Di/Jnr6YU5upNzk8tvLJrO2dzXjBcubfuIFvyOj0y0VvbpteOe7McZ5V6XPyfiw6ZdOEacFCKwksFwB0PG9hptWv85oUXt85/yMu9uXl0aL8WMzl9FHP1GpTbXLoZZ5fUdvxeGW+WSw2+i2uW681y2ia22oSuK8acer3fkjqaVONKnGEVhJYK8eO7tv8vl8cfCfa8Asq1I0qcpyeElk3eX7a3WrrgpqjF7y5+hoyW4rSuK8qkur+wus7d3NxGC5dfQ5sr5V7PFhOHj7bPRbTCdea3e0TblsIKEFGKwksIuOiTU08rkzvJlcqAAlmAAAAAAAAAAAAAAAAAAAAAAAAAAAAAAAAAAAAAAAAAAAAAAAAAAAAAAAAAAAAAAAAAAAAAAAAAAAAAAAAAAAAAAAAAAAAAAAAAAAAAAAAAAAAAAAAAAAAAAAAAAAAAAAAAAAAABFXoqtBxfPoyUAaaUZUpuMuaLjYXNuq0dtpLkzWtOEnGaw0ELwUKkgACNChRlxQCxo1WpUlJPY27RBcUe9g11K2bWjmLekqd2nKLfkbaUtsoi7l0qjjNYeeZkRSOLkttdOOpGFd3kKEG5S38jnrm4lXm29kdHd6ZRuXxtNS9zNZcaPwJuMma8dximW61GAsolq0J0ue5GdG9staVKNFMlckixt9S+jHLyRvmS0ngVE9sinN08yXMh9qeWXzfDHYijLG7Kxerp88EfFiZc2nuRvdkxFbBpVIxlF4aRbWTVPmmmY1Os4LHQvdRyiV1VtrWvDgj4WXynhYKwqJRaaLKrVHYrFSb2JFwsKooPw7kbFnG1zzsSfpYYjs/LzKwqcalCSWHuQwnwtpbBKjThJqSwyqwySq+NZ2yRLwslC7kOPBVPK95bJJcgLamE8oQXEimOJl8VjYkVpRSqLPLqZ1K4+ROpwRUuLkzAfPJLOrGpTjHhUZR/iVsl9pl1VlVuVRylzluIySljoS3WHRpTT8XJkKaccY38xro+00m8JxZPSlJwyzFpS8SjJ7GWqkPMzyXxZdpU4Izk+hsaFWncQ2xnyNL364HFdSlOc1JOm2n5mVxXbv5MlLMeRkQeW4x3wQ2lZ1aK4vaMim+7qZ6PmZiKc/FhdC3jSWZbIkuJU/lCUeckW9x3nhI1s9Mi1imuNLnyJ6s1Tjz3EIqjTT6JbGHVq95Jtl/UV91e60feQ1lCe+MS8yNy3JI05TwZ7XnS+2jN83sjIm1GO7SLoJRikjCu4zr1oQi8Ri8yZbWld7qrhLifEYleOamOhsG21hrl1MOosyb6IiRO2M1guheRpPD3Irqpwrhhzf8DHpW7e7LeO+6nybSGqxzjglgnjfKpyizApW+OaMunSwPHfStsT8bnz2RckIxwXpGmPHplctiRckEi9I3k0paokXookXJF0CLkgkTU4Z9CUFOnndmdQpcpNeiKUKOcOS26IyQkAAAAAAAAAAA1s6ncausvw1I4+JsjVa3SfBTrR5wZXL1trwyXLxv22oMPT7yN1RWX4480ZhMu1MsbjdUABKqkmopt8kcrd1e/ualTo3t6G21e9UIOhTfifte5GjMeTL6en8TisnnWdpCzfR9yZ0Zp9DoPx1mtnsjcF8J05flZTLk6QXlXuLac/JbHLNttt82b7W5NWsUuTluaAz5L26/h46wtZem2/yi6imvDHdnSpYRqtCppUqlTq3j/79ptjTCajl+Vn5cmv0AFs5xhFyk0kurLuVca69v2pdxarjqvbK6EF1qFS5n3Fmm87ORmWNjG1jxS8VR82U3vqOiYTjnln7/S22t4WNCVWq8zxmUjQVqjrVZVJc5PJttbucQVCL3e8jTJOTSSy2Z536jt+NjdXky+2TY0alet3cNk/afkjpKVONKmoQWIpGPp1orWgk145byMs0wx1HF8jl/Jl16DnNWr97dyin4YbI6KTxFv3HJVJcdSUvpNsryXrTX4eO8rl+lsYuUlFc28HUWVure3jBc8ZfqaXSKHe3XE14YbnRDjn2n5nJu+ECypUjSg5zeIoVakKUHObSijXNzveKvNONCCbjF/OfmaWuTDDfd9NfqN1O4q75UVyiYRdOTnOUn1Zl6Xa/KLlOS8EN2c/eVex1xcf/TZaTZ9zT72a8cv4I2RRbIxL2/p2scZ4p9Io36xjybcuXPf2lu7qna03Kb36LqzWtz7ud9c+1j83B9C6ztql5V+U3Xs/NiyzXKvihRXJbsrb1tvx4SZTCe/tqW22292zK023+UXUU14Y7sxDodHt+6tVN+1Pf4GeE3Xb8jk/Hh0z0sLBUGLdXSpNU6a46suUUdHp48lyuorc3Dg1SpLiqy5Ly97Lra3VCO/inLeUvNlLW37pOdR8VWW8pGQR/a1sk1AAEqAAAAEVxWjQoyqS5RQTJu6jUa3ccVSNGL2juzV9S6rUdWpKcucnkz9Is++q97NeCPL3s5/8snsTXBxdthptq4Q76svzkv4IzwDeTTyM8rld1hapX7i0lh+KWyObNlrVbjuVTT2gv4mtMM7uvV+Lh48e/wBr6VOVWpGEVlyeDqLWhG3oRpx6czV6JbZcq8ly2ibo048dTbk+Xy+WXjPpR7I5nUK/yi6nLPhWyN9f1e5tKklzxhHMEcl+mnw8PeQk5NJLLeyOnsLZW1vGPznu2afR6He3XHJbQWfidCOOfaPmcm74QLalSNODnNpRXNspUqRpQc5ySiubZiwhK8mqlRONFbxi+vvZpa4scd930xL2pKpQlcVE4x5U4v7zTG611tQpRXLJpTDP29X4s/htsNIt++ueOS8MN/idCa7RaajZ8fWTZsTXCajg+Tn5cl/oALKlSFKDlOSil1Zdz+13I1l3ezrVPk1pvJ+1JdCGve1b+p3FqmodZGxs7OFrTwt5PnLzKb8vTo8ZxTeXv9FnaRtaeFvJ+0/MyQC/phbcrugACAAAAABh6pb9/aywvFHdFuk1+9tFF+1DZma1lNGl0+XyfU6tH5smyl6u3Rh/PjuP67bsAF3OsqzVOnKcuSWTla9V1q0qkucmbrW63Bbxpp7zf8DQmPJe9PT+HhrG5M7SrXv7lSkvBDd+p0Zh6XQVG0jt4pbszC+E1HH8jk886GPdXKoQwlxVJbRiurF3dQtoZe83tGK5tkdpbzc3XuN6suS+ii1v1FMcdTyyavUlKlCMajzVqeKb/ka4ztXlxX0l0SSMa2pOvcQprq9zny7r1uL+PHLW60a27uh3sl4p8vQ2RbGKhFRisJIiuriFtRc5P0XmdEmo8nLK8me/2xdWvO4pd3B+Of8ABHPmTed5KaqVvbqLix5LoYxz53der8fjmGHTO0q27+5Ta8MN2dGYWlUFRtIvHinuzNNsJqPO+Ryeed/oMW7uXBqlRXFWnyXl72Lu7VHFOmuOtL2Yoto0la0p1674qjWZP+Ra1njjrutdqEla0VQjLNSpvUkasluKzr1pVJdWTadau5uEmvBHeRz3+V6ethJxce8m00e07qj3s145/wAEbIolhYRU6JNTTyM87nlcqGn1q6wlQi+e8jaXFaNCjKpLkkcrWqyrVZVJc5PJTky1NOn4nF5ZeV+lh0Ok2ncUOOS8c9/RGr0y1+UXCcl4Ibs6TkV48ftp8vl/4QABs88AAAAAAAAAAAAAAAAAAAAAAAAAAAAAAAAAAAAAAAAAAAAAAAAAAAAAAAAAAAAAAAAAAAAAAAAAAAAAAAAAAAAAAAAAAAAAAAAAAAAAAAAAAAAAAAAAAAAAAAAAAAAAAAAAAAAAAAAAAAx7m3VaOVtJcmZAA028JOMlhouNhcW8a0fKS5M104ypT4ZoC4FEypKAoVBAoUKgCOdKFT2opmPOzg94NxMsoylxl9rTKxr50a1PklJe4xqlWD8M1wv3m3ZjXFCFWLUoozvFPpfz/bnrygpJuJqKtJxZvbywqUsyotteRqKzak1OPCyZLC3bDki1EsiN8zSKqFU2nyKFyfmSJoviWBKi1S+bu/Pcj5bolVWOMSK+k+0PBh4YlTa3W6JpSi1zLIzcOW6JOkcVuXN8KLZT8kWNtslCrbZcotrKL4e8vUY80+ZBpCk36GVCzlKnxx5FtBbuMo8SZNTlKOYN4SItWkRSUaccp7tGK92T1578zHZMRUkcsVE0Vp74MitRk6PEo8uo2nXTEjLfDKy3ZakXIlUSwXotzgt4iErpY2wvUupR4qiwWLdmVQqKlCXDHxNYyArcMqMEnlrYxVLhk8ciWS5kLQiak2b2L4Sw9yBMvzkiwlZccNmZThHhSNbQmlLdmbGqkjHKNMa2FOo4pRhsjPo1VOOJczVUp8UHglp1FTp+J8jC+2njtsp04yaeN0ZNFKKzI11G7jwqT5GbTqwqRzGWUPtnYjvLrjlwR2SMRyyjMq04PMmiGhThOb8hVohTwbCknwKT5kVO3Tq5+ajKexGt9lv0jqTUFs8t9CynFweXvktpp1a8ptNRjsjIawssmY7V3pDXnGMcmDN55EldurU/yoqoY6FpDemLG2zLiluyenSUeSJlAkUDSYqXJHGnuTRgXKJckaTFS1RIuSLki5IvIqtSLsFUiqRYUSL0iqiSwp9XyJ0hSnTzu+RmUKOcOSwuiK0aHKUlhdEZISAAAAAAAAAAAAABHXpKtRlTlykiQBMurty0lWsblpNxlF/abKhrUcJVoNPzRnXllTu4YltJcpeRo6+mXFFvEHOPnHcxsyx9PQxz4uefz9tq9Ytce03/ANrMO51mU4uNCLjn5z5mtdKonvCS+BfC1r1HiFKb+BFzyrTH4/Dj3UUm5NuTy2ZFnaTuqqjFYiub8jMttGnJp13wryXM3FGjChBQpxSSGOFvtXl+VjjNYK0qcaNOMILCSLwDd5lu2LqFu7m1lGPtLdHMyi4ycZLDXNHYGLc2FC53nHEvpLmZ54bdfx/kfj6vphaHWj3c6TeJZyjbNpLLZppaNUhLNGsl6h6ZeVNqldNerEtk1o5MePPLymTLutUo0MqD7yfkjXL5VqlTqqafwRm0NGpQeasnN+XQ2MIRhFRikkuiGrfaPycfHP4d39oLSzp2sMQWZPm/Mmq1I0qcpy2UVkvMW/t6lzR7unJRTe+S/qdMJfPL+Vc7cVpV60qkubZsNGtOOffzXhj7PqTUdEipJ1anEvJG0hCNOCjFYS5Izxwu912c3yMfHwwXAA1cC2azCS9xyU4uE5RfNPDOvNXf6V39R1KLUZPmn1M88d+nX8XlnHbMvtj6NcUqLqRqSUW902bCvqVvRjtNTl0UdzVx0a4b3cUvPJsbXS6VBqUvHPzfQjHy1pbm/DcvLe0VKjWv5qrcpxpL2YeZsJ006MqaWE1gkBpJpy5Z3KuRq03SqShJYcXg2umXdtbWr7yeJZ3WDMvdPp3Xi9mfmax6NccWE4teeTLxuN6d/wCXj5sNZXSW61eU/BbprPznzLrDTZVJd9dZ81F9TKstMp2zU5+Ofn5GeWmNveTnz5ccZ48X/wBqJJLCOe1hNX0m+TSwdEYt7ZQu4b7SXJlspuKcHJOPPdcwdHZ3tv8AJaeakYuMUmm8YNZPR7mLxHhkvPJLR0Wo3+emoryRljMpfTt58uLkxm8mXW1F1Zd1Zx7yb+d0RNZ2fcZnUfHVlzkyW3tqVtDhpxx7/MmNZPuuDLOa8cfQACzIAAAAADSa1c8UlQi9lvI3T5bczUS0erVqynVqrMnl4RTPdmo6Pj3DHLyy+mrt6MritGnBbv8AgdRQoxoUo04LZIhtLGlaLwbyfOTMoYY6T8jn/JdT0FG8JsqUksprzLuZylxN1LipJ9ZMtpU5VakYQWW2bP8AsWo6j4qkVHPxNja2NG1XgWZdZMwmFt7epl8rDHHWPaW2oqhQhTXREoBu8y3d3Wv1lN2Tx0ksnPHXVaca1OVOaypI0dXR68Zvu8Sj03wZZ423cd/xebHHHxyq7RrilRlUjUkouWMNmyq6hQp7Rn3knyjDds1lLRq0n+ckor7TaWtjRtl4Y5l9J8ycfLWmfPeK5eUu1lOhUuJqrcrCW8afl6mYlgqC8jlyy2wdVtpXFvmCzKG6Xmc69nhnYGHc6dQuG21wy80Uzw33HV8f5H4545ekOi1oyte7z4oN7GxclFZbSRpno9anLNGsl/APS7qp+lrpr1YlsmtIzw48svKZMm61alSzGl+cl7uRgU6V1qdTjqNqn59PgZ9vpFGm06jdR+/kbCMVFYSwkTq32j8mHHNcc7/aK2tqdtT4aax5vzJgC7mttu6AAIAAAAAGuV3KGqTozl4JJcK8mbE0mt0XGrCtHk9m/eQ0dXr04qMsTx1Zn5auq7PwXkxmWDoJNJNvkc7Sq95qynHk57FLnUq9xFxbUYvohpNJ1LyLxtDdlbl5WSNePhvFhllk6QAGzzml15PjpPphmoOruraF1ScJ/B+RpqmjXEZeDhmvXBjnjd7j0vj8+Ew8crps7W+t50I5qRi0t03gjr6nBPu7Zd7UfLHIwaWjVpP85JRX2m1tbKlax8EfF1b5l55Vz5zixu5dorSzkp9/cviqvl/lM4AtJpz5ZXK7rnNXg4Xsm+UllFmm1YUbyE6jxHlk3l7Zwu6eHtJcmaiWj3KlhKLXnkyuNl3Ho8fNhlx+GV029bULelDi7yMn0UXkw7enU1Cuq9dYpR9mPmLTR1GSlcNSx81cjapKKSSwkXkt9uTLLDj6w7v7aHW4tXUX0cdjXHTX1nG7ppN4kuTNTLRrhPCcWvPJnljd7js4OfCYTHKtpa3tu7aGasY4ik03giq6h3s+6s13k387ojGo6LJvNaaS8kbWhb07eHDTikaTyvtyZ/ixu52itLNUczm+OrLnJmBrd1yoQfvkbS5rRt6EqkuiOWq1JVakpy5yeSud1NRr8bC8mfnl9LUm2kt2zpdOtVbW6TXjlvI1ekWne1u9mvBDl72b8ceP2n5fLu+EACC8uFbUJVHz6LzZq4ZLbqNXrV1xTVCL2W8jVRi5SUUst8is5upNyk8tvLNno1rxz7+a8MfZ9Tn/AMsnr9cHE2dhbK1t4w+dzk/eZIB0SaeRllcrugACAAAAAAAAAAAAAAAAAAAAAAAAAAAAAAAAAAAAAAAAAAAAAAAAAAAAAAAAAAAAAAAAAAAAAAAAAAAAAAAAAAAAAAAAAAAAAAAAAAAAAAAAAAAAAAAAAAAAAAAAAAAAAAAAAAAAAAAAAAAAAAI6tGNWOJL4kgA1NalOhLDXh6MtTybacIzjiSyjX3FpKn4qe8fICIqWqRXIQqUBUChaXMAWNFjiStFuBoY86aa5GvvNNp1ovw7m2cS1xyBxl3pdWi24ptGtmnF4ksHfVKKkt0a270qlWy+HD80QnbkkViuKSXmbK50erSy4eJGvkp0pLiTTQSpUi4Swyil5l1Ws6uMoswEr8JlHsymcFQlRrJbjBIUayEaXQ3iXxf0iHGC/ieMMhLIhOEYvz6YI1KVSeEyLJdReJkWJ2knazfJ5IJwlT2ksGa6sovMuRe3CtS33bI3Ym4y+mBQfjNtSmvk8l7jVqDp1sGwp7W8lkmpxa6S8THuK8OajQrYi0kTtRTCLGMsEoVi/MkUkyEqCVkynGaSfNEbhgiWxk22Kk1GRHpPtHGlxyxyZbJOLwyStF0a7SeSzHHuNi3JJCrJSW5E009yqWWkLNkroraKq0YSx6kd7SfeRcE/FzSKaZXjGKpN8+RtFTXPBx2aybb6YNK2qSis7IzKNHuksNk0Y4LtkhpG1rbksSFOnCLWMrBZUrQgvFJIx3eRz4E2VTGzhtyL2uJYNbTuK0sYWEZcKk2t0TFayIw4Fgx60nN4XskqqPBZjJrMVNoY08F6gScJVRNJirasUS9RLlEuSLyIWqJckVSLkidIUSKpFUi5IlC1IvjHJdGOSalTcniKz7yRZCG6WMt9DNo0OHxT59F5F9OjGnvzl5kgSAAAAAAAAAAAAAAAAAAAAAKYXkhhFQAAAAAAAAAAAAAAAAAAAAAAAAAAAAAAAAAAAAAAAAAAAAAAAAAAAAAAAAAAAAAAAAAAAAAAAAAAAAAAAAAAAAAAAAAAAEVxQhcUnTmtmaOtpFxTk+7SnHzOhBW4ytuPmy4/TnKelXM5YcVFebZurKzhaU+GO8nzfmZIExkTyc+fJNUABZgAAAAAAAAAAAAAAAADkDWarfKlB0ab8cufuRFuptfDC55eMYWrXnf1e7g/BB/azCo0pVqsacFlyZYst7btm/wBLsfk9PvKi/OSX2Iwkudepnlj8fj1GZbUI29GNOPQlAOh5Ntt3VG8LJzuqXnymtwxf5uPL3mdq19wRdCk/E/afkjSJNtJLLZjnl9R6HxeHX88klvQlcVo04c3/AAOooUo0KUacFskYmmWXyalxTX5yXP3GeXwx1GHyeb8mWp6gAC7lAAAAAAAAAAAAAAAAAAAAAAAAAAAAAAAAAAAAAAAAAAAAAAAAAAAAAAAAAAAAAAAAAAAAAAAAAAAAAAAAAAAAAAAAAAAAAAAAAAAAAAAAAAAAAAAAAAAAAAAAAAAAAAAAAAAAAAAAAAAAAAAAAAAAAGJXs4zzKHhkYUoypyxNYZuCypSjVjiayBqypJWtZ0t4+KJCpBC4FAAKYKgC1oo0XACNxLJQRMWtAY06Ka5GDc6bSrJqUEzbOJa45IHJ3OhSjl0n8DV1rWtReJwZ3cqZBVtYTWJRTCXDJ4ZRy32OoudFo1MuK4X7jU3Gi16WXDxIG2vTyVwJ0alJ4lFopGXmFpVWisSq3JI0VjM8pEJ0hlgty08orPaTRQlDLhU72i6ciOLlQniXIjgnnYyVw1Eo1OnUrV4tqNSkpIv7zwNZ5lYUkpbS2JVaQnHKnz6ELMejb97Lw8yG4hwy4c5aMqEalvLwv4osnjheV4vMbRZ0wsNcxklmiJovtnZoTBQuCBF8MrPDzLEXRk4vKe4Smdbji1UWXjZkUc5whzeWZ9pSjlNorbpKO3tJ1X4tkZP9kPOYSNjThFIni0uRlcqlDZafChJTk8y9/Qz8pEE5TS8McspThWkn3ksZ6Ipd1O19S4p0+ckYU7mtWeKUeGPmZcLSmnnh382TKjFckTMDyka2FpKTzNtv3mXStYx6GUoYL1AtMEXOo4QS5IkSLlEvUS8xV2sUSuC9IrgtpVbwlUi7BXBbQtwXJFUiuAhRIrguSLlEkWqJeol8KcpvEFky6NtGG8t5ARUrdz3ltEy4QjBYisIuASAAAAAAAAAAAAAAAAAAAAAAAAAAAAAAAAAAAAAAAAAAAAAAAAAAAAAAAAAAAAAAAAAAAAAAAAAAAAAAAAAAAAAAAAAAAAAAAAAAAAAAAAAAAAAAAAAAAAAAAAAAAAAAAAAAAAAABjXNy7edPMfBJ4cvIJktuoyQUTTWxUIAWVKsKcW5ySS8zVXur7OFt/qIuUjTj4suS6kZOoahG2i4Qeaj/gc/KUqk3KTbk3uMSqT6uUnzZvNP0uNLFStiU+i6Ix7zr0Z4fGx/tHpencOK1db/ADYvobcEdStTpRcpzUV72bSTGPOzzy5Mt1Ia7UdRjbxdOk81H/Axr3V3JOFtsvpGsp0qleeIRcpMzyz+o6uH43/Lk9LW5Tll5cmzdaXp3dYrVl4+i8iSw0yNDFSriVTp5I2Ixw13Tn+R5fxw9AANXCAAAAAAAAAAAAAAAAAAAAAAAAAAAAAAAAAAAAAAAAAAAAAAAAAAAAAAAAAAAAAAAAAAAAAAAAAAAAAAAAAAAAAAAAAAAAAAAAAAAAAAAAAAAAAAAAAAAAAAAAAAAAAAAAAAAAAAAAAAAAAAAAAAAAAAAAAAAY9a1hU3S4ZeaMgAaqpRqUn4lleZambZpNYayYtazTzKns/IDDBfG3r9abLvk9X6DCEQJvk9X6DKfJqv0WSIQTfJqv0GPk1X6DAgKYJ/k1X6A+TVfoMgY7Ra4mT8mq/QY+S1voMDDcCyVJPoZ3ySr9BlPklb6DA1dS0p1FiUE/VGuudCo1d4LgfuOk+R1voMo7Kt9BgcXU0K4hLwNSRc9Nu8JNLY7B2Nb/lso7Cs/wDDI0tuuGr6Zc5zwZ9DG+S1Yy8UJL4HfvTaz/w2WPSqr50gbcMoOPOLRfGaXNZR2ctGnLnQRG9Ck/8A9dEaW8nKeCaWHgk4lCOI/adI+z7f/wCuVegzxjuCvitM3KynLoRScmda9AqdKJY+z1X/AJLEiLm4+TfkRs7J9nKj/wABhdm6n7OXUtcaot8ky5U5/RZ2S7P1VyoF60Ksv8FhG3Gxo1HygyWNlWl807BaLWX+CXrSK6/wgbclDTar57Gdb6e4YzJnRLSq6/wmXLTK6/wmRZtO2rp0UkTRgkbBabX/AOWy5afX/wCWyPGG2DGPuL1H3GYrCuv8Nlysq/8Ay2NG2GoFyiZfyKv/AMtlVZ1v+WydIYyiVUTJ+SVvoMfJK30GToY6jgrgyPklb6DK/JK30GBj4K4J/ktb6DK/Jav0GShBgrgm+S1foMqrWr9FgQ4LlEm+TVF8xl9K2nJ+NcKAgjHLwllmTStW96my8jJp0o01iKLwlSMVFYisIqAAAAAAAAAAAAAAAAAAAAAAAAAAAAAAAAAAAAAAAAAAAAAAAAAAAAAAAAAAAAAAAAAAAAAAAAAAAAAAAAAAAAAAAAAAAAAAAAAAAAAAAAAAAAAAAAAAAAAAAAAAAAAAAAAAAAAAAAAALKtKFam4TWYsvAJdNZKzu6G1rcNx6KW+CGVLVZbOovhhG5BXxbTms+o0X9k3VV5q1F8XkyKOi04tOrNz9y2RtQR4Ra/I5LNb0x3ZUO5dJU0ovyMSVpe0dra4bj0UjZgtZGePJlP7aaVHVJ7Oovg0iP8Asm5qvNWovVvJvQV8I0nyMp6kjV0dFpRadWTn7uSNhSo06MeGnBRXuJAWkk9M8+TPP/KgAJZgAAAAAAAAAAAAAAAAAAAAAAAAAAAAAAAAAAAAAAAAAAAAAAAAAAAAAAAAAAAAAAAAAAAAAAAAAAAAAAAAAAAAAAAAAAAAAAAAAAAAAAAAAAAAAAAAAAAAAAAAAAAAAAAAAAAAAAAAAAAAAAAAAAAAAAAAAAAAAAAAAAAAAAAAAAAAAAAAAAAAAAAAAAAAAAAAAAAAAAAAAAAAAAAAAAAAAAAAAAAAAAAAAAAAAAAAAAAAAAAAAAAAAAAAAAAAAAAAAAAAAAAAAAAAAAAAAAAAAAAAAAAAAAAAAAAAAAAAAAAAAAAAAAAAAAAAAAAAAAAAAAAAAAAAAAAAAAAAAAAAAAAAAAAAAAAAAAAAAAAAAAAAAAAAAAAAAAAAAAAAAAAAAAAAAAAAAAAAAAAAAAAAAAAAAAAAAAAAAAAAAAAAAAAAAAAAAAAAAAAAAAAAAAAAAAAAAAAAAAAAAAAAAAAAAAAAAAAAAAAAAAAAAAAAAAAAAAAAAAAAAAAAAAAAAAAAAAAAAAAAAA//2Q==;" vertex="1" parent="1">
          <mxGeometry x="570" y="330" width="336.2" height="90" as="geometry" />
        </mxCell>
      </root>
    </mxGraphModel>
  </diagram>
</mxfile>
